<svg xmlns="http://www.w3.org/2000/svg" width="736.949" height="237.765" viewBox="0 0 736.949 237.765">
  <g id="Group_162248" data-name="Group 162248" transform="translate(0 0.591)" style="mix-blend-mode: multiply;isolation: isolate">
    <g id="Group_162248-2" data-name="Group 162248" transform="translate(74.112)">
      <g id="Group_162199" data-name="Group 162199" transform="translate(39.722 12.936)">
        <g id="Group_162197" data-name="Group 162197" transform="translate(0 0)">
          <g id="Group_162194" data-name="Group 162194">
            <path id="Path_63104" data-name="Path 63104" d="M88.725,0,0,105.355,88.725,210.71" transform="translate(88.725 210.71) rotate(180)" fill="none" stroke="#d1d0d0" stroke-width="42"/>
          </g>
        </g>
      </g>
      <path id="Path_68406" data-name="Path 68406" d="M9104.79-10558.389h-55.68l24.141,26.26Z" transform="translate(-9049.11 10558.389)" fill="#d1d0d0"/>
      <path id="Path_68508" data-name="Path 68508" d="M20.619,22.431,0,0Z" transform="matrix(0.996, -0.087, 0.087, 0.996, 28.247, 213.484)" fill="#f0f0f0"/>
      <path id="Path_74646" data-name="Path 74646" d="M9104.79-10532.127h-55.68l24.141-26.262Z" transform="translate(-9049.11 10768.961)" fill="#d1d0d0"/>
    </g>
    <g id="Group_162249" data-name="Group 162249" transform="translate(158.147)">
      <g id="Group_162199-2" data-name="Group 162199" transform="translate(39.722 12.936)">
        <g id="Group_162197-2" data-name="Group 162197" transform="translate(0 0)">
          <g id="Group_162194-2" data-name="Group 162194">
            <path id="Path_63104-2" data-name="Path 63104" d="M88.725,0,0,105.355,88.725,210.71" transform="translate(88.725 210.71) rotate(180)" fill="none" stroke="#d1d0d0" stroke-width="42"/>
          </g>
        </g>
      </g>
      <path id="Path_68508-2" data-name="Path 68508" d="M20.619,22.431,0,0Z" transform="matrix(0.996, -0.087, 0.087, 0.996, 28.247, 213.484)" fill="#f0f0f0"/>
      <path id="Path_74640" data-name="Path 74640" d="M9104.79-10558.389h-55.68l24.141,26.26Z" transform="translate(-9049.11 10558.389)" fill="#d1d0d0"/>
      <path id="Path_74645" data-name="Path 74645" d="M9104.79-10532.127h-55.68l24.141-26.262Z" transform="translate(-9049.11 10768.961)" fill="#d1d0d0"/>
    </g>
    <g id="Group_162661" data-name="Group 162661" transform="translate(243.149)">
      <g id="Group_162199-3" data-name="Group 162199" transform="translate(39.722 12.936)">
        <g id="Group_162197-3" data-name="Group 162197" transform="translate(0 0)">
          <g id="Group_162194-3" data-name="Group 162194">
            <path id="Path_63104-3" data-name="Path 63104" d="M88.725,0,0,105.355,88.725,210.71" transform="translate(88.725 210.71) rotate(180)" fill="none" stroke="#d1d0d0" stroke-width="42"/>
          </g>
        </g>
      </g>
      <path id="Path_68508-3" data-name="Path 68508" d="M20.619,22.431,0,0Z" transform="matrix(0.996, -0.087, 0.087, 0.996, 28.247, 213.484)" fill="#f0f0f0"/>
      <path id="Path_74641" data-name="Path 74641" d="M9104.79-10558.389h-55.68l24.141,26.26Z" transform="translate(-9049.11 10558.389)" fill="#d1d0d0"/>
      <path id="Path_74644" data-name="Path 74644" d="M9104.79-10532.127h-55.68l24.141-26.262Z" transform="translate(-9049.11 10768.961)" fill="#d1d0d0"/>
    </g>
    <g id="Group_162662" data-name="Group 162662" transform="translate(331.048)">
      <g id="Group_162199-4" data-name="Group 162199" transform="translate(39.722 12.936)">
        <g id="Group_162197-4" data-name="Group 162197" transform="translate(0 0)">
          <g id="Group_162194-4" data-name="Group 162194">
            <path id="Path_63104-4" data-name="Path 63104" d="M88.725,0,0,105.355,88.725,210.71" transform="translate(88.725 210.71) rotate(180)" fill="none" stroke="#d1d0d0" stroke-width="42"/>
          </g>
        </g>
      </g>
      <path id="Path_68508-4" data-name="Path 68508" d="M20.619,22.431,0,0Z" transform="matrix(0.996, -0.087, 0.087, 0.996, 28.247, 213.484)" fill="#f0f0f0"/>
      <path id="Path_74642" data-name="Path 74642" d="M9104.79-10558.389h-55.68l24.141,26.26Z" transform="translate(-9049.11 10558.389)" fill="#d1d0d0"/>
      <path id="Path_74643" data-name="Path 74643" d="M9104.79-10532.127h-55.68l24.141-26.262Z" transform="translate(-9049.11 10768.961)" fill="#d1d0d0"/>
    </g>
    <g id="Group_164068" data-name="Group 164068" transform="translate(414.048)">
      <g id="Group_162199-5" data-name="Group 162199" transform="translate(39.722 12.936)">
        <g id="Group_162197-5" data-name="Group 162197" transform="translate(0 0)">
          <g id="Group_162194-5" data-name="Group 162194">
            <path id="Path_63104-5" data-name="Path 63104" d="M88.725,0,0,105.355,88.725,210.71" transform="translate(88.725 210.71) rotate(180)" fill="none" stroke="#d1d0d0" stroke-width="42"/>
          </g>
        </g>
      </g>
      <path id="Path_68508-5" data-name="Path 68508" d="M20.619,22.431,0,0Z" transform="matrix(0.996, -0.087, 0.087, 0.996, 28.247, 213.484)" fill="#f0f0f0"/>
      <path id="Path_74642-2" data-name="Path 74642" d="M9104.79-10558.389h-55.68l24.141,26.26Z" transform="translate(-9049.11 10558.389)" fill="#d1d0d0"/>
      <path id="Path_74643-2" data-name="Path 74643" d="M9104.79-10532.127h-55.68l24.141-26.262Z" transform="translate(-9049.11 10768.961)" fill="#d1d0d0"/>
    </g>
    <g id="Group_164069" data-name="Group 164069" transform="translate(497.048)">
      <g id="Group_162199-6" data-name="Group 162199" transform="translate(39.722 12.936)">
        <g id="Group_162197-6" data-name="Group 162197" transform="translate(0 0)">
          <g id="Group_162194-6" data-name="Group 162194">
            <path id="Path_63104-6" data-name="Path 63104" d="M88.725,0,0,105.355,88.725,210.71" transform="translate(88.725 210.71) rotate(180)" fill="none" stroke="#d1d0d0" stroke-width="42"/>
          </g>
        </g>
      </g>
      <path id="Path_68508-6" data-name="Path 68508" d="M20.619,22.431,0,0Z" transform="matrix(0.996, -0.087, 0.087, 0.996, 28.247, 213.484)" fill="#f0f0f0"/>
      <path id="Path_74642-3" data-name="Path 74642" d="M9104.79-10558.389h-55.68l24.141,26.26Z" transform="translate(-9049.11 10558.389)" fill="#d1d0d0"/>
      <path id="Path_74643-3" data-name="Path 74643" d="M9104.79-10532.127h-55.68l24.141-26.262Z" transform="translate(-9049.11 10768.961)" fill="#d1d0d0"/>
    </g>
    <g id="Group_164070" data-name="Group 164070" transform="translate(581.048)">
      <g id="Group_162199-7" data-name="Group 162199" transform="translate(39.722 12.936)">
        <g id="Group_162197-7" data-name="Group 162197" transform="translate(0 0)">
          <g id="Group_162194-7" data-name="Group 162194">
            <path id="Path_63104-7" data-name="Path 63104" d="M88.725,0,0,105.355,88.725,210.71" transform="translate(88.725 210.71) rotate(180)" fill="none" stroke="#d1d0d0" stroke-width="42"/>
          </g>
        </g>
      </g>
      <path id="Path_68508-7" data-name="Path 68508" d="M20.619,22.431,0,0Z" transform="matrix(0.996, -0.087, 0.087, 0.996, 28.247, 213.484)" fill="#f0f0f0"/>
      <path id="Path_74642-4" data-name="Path 74642" d="M9104.79-10558.389h-55.68l24.141,26.26Z" transform="translate(-9049.11 10558.389)" fill="#d1d0d0"/>
      <path id="Path_74643-4" data-name="Path 74643" d="M9104.79-10532.127h-55.68l24.141-26.262Z" transform="translate(-9049.11 10768.961)" fill="#d1d0d0"/>
    </g>
    <g id="Group_162250" data-name="Group 162250" transform="translate(0 3.377)">
      <g id="Group_162199-8" data-name="Group 162199" transform="translate(29.798 9.559)">
        <g id="Group_162197-8" data-name="Group 162197" transform="translate(0 0)">
          <g id="Group_162194-8" data-name="Group 162194">
            <path id="Path_63104-8" data-name="Path 63104" d="M88.725,0,0,105.355,88.725,210.71" transform="translate(88.725 210.71) rotate(180)" fill="none" stroke="#d1d0d0" stroke-width="42"/>
          </g>
        </g>
      </g>
      <path id="Path_68406-2" data-name="Path 68406" d="M9091.486-10558.389H9049.11l18.372,19.986Z" transform="translate(-9049.11 10558.389)" fill="#d9d9d9"/>
      <path id="Path_68508-8" data-name="Path 68508" d="M20.619,22.431,0,0Z" transform="matrix(0.996, -0.087, 0.087, 0.996, 18.324, 210.107)" fill="#f0f0f0"/>
      <path id="Path_68509" data-name="Path 68509" d="M9091.486-10538.4H9049.11l18.372-19.984Z" transform="translate(-9049.11 10767.995)" fill="#d9d9d9"/>
    </g>
  </g>
</svg>
