<svg xmlns="http://www.w3.org/2000/svg" width="131.648" height="97.684" viewBox="0 0 131.648 97.684">
  <g id="Group_163957" data-name="Group 163957" transform="translate(-437.5 -189.716)">
    <path id="Path_76251" data-name="Path 76251" d="M686,540.482,735.871,523,777.2,536.958v4.066l-68.64,27.714" transform="translate(-214.391 -290.352)" fill="none" stroke="#ff4c0a" stroke-miterlimit="10" stroke-width="1"/>
    <path id="Path_76252" data-name="Path 76252" d="M494.24,538.717v-4.37l-5.014-18.8-49.058-19.65,29.136-9.08L467.679,486,438,495.08v23.708l50.1,22.726Z" transform="translate(0 -258.366)" fill="none" stroke="#ff4c0a" stroke-linejoin="round" stroke-miterlimit="10" stroke-width="1"/>
    <path id="Path_76253" data-name="Path 76253" d="M561.591,575.214,574.52,571l4.578,2.107v8.643" transform="translate(-106.842 -331.847)" fill="none" stroke="#ff4c0a" stroke-miterlimit="10" stroke-width="1"/>
    <line id="Line_33583" data-name="Line 33583" x1="12.47" y2="4.125" transform="translate(459.786 241.26)" fill="none" stroke="#ff4c0a" stroke-miterlimit="10" stroke-width="1"/>
    <line id="Line_33584" data-name="Line 33584" x2="0.445" y2="11.659" transform="translate(469.305 228.447)" fill="none" stroke="#ff4c0a" stroke-miterlimit="10" stroke-width="1"/>
    <path id="Path_76254" data-name="Path 76254" d="M467.438,282.865v3.572L514,307.489l79.549-33.2v-4.292h.551V223.061l-11.8-3.252v-1.9L556.279,211v1.762l-4.472-1.084a2.09,2.09,0,0,0-1.9.813l-.068,17.753" transform="translate(-25.449 -20.634)" fill="none" stroke="#ff4c0a" stroke-miterlimit="10" stroke-width="1"/>
    <path id="Path_76255" data-name="Path 76255" d="M1059.229,371.763l.895-20.418a2.851,2.851,0,0,1,2.036-2.732l2.056-.613v4.749l16.94,5.144-.949.407,6.37,2.168,1.353-.454,14.751,4.688" transform="translate(-537.722 -139.068)" fill="none" stroke="#ff4c0a" stroke-linecap="round" stroke-linejoin="round" stroke-miterlimit="10" stroke-width="1"/>
    <path id="Path_76256" data-name="Path 76256" d="M1104.5,400.763l-43.318-14.928" transform="translate(-539.835 -156.366)" fill="none" stroke="#ff4c0a" stroke-miterlimit="10" stroke-width="1"/>
    <path id="Path_76257" data-name="Path 76257" d="M927.467,446.5l-1.786.644a2.7,2.7,0,0,0-1.911,2.534l-.436,25.485L853,504.57" transform="translate(-358.76 -224.219)" fill="none" stroke="#ff4c0a" stroke-miterlimit="10" stroke-width="1"/>
    <path id="Path_76259" data-name="Path 76259" d="M40.021,12.691-2.531-.785" transform="translate(524.81 215.816)" fill="none" stroke="#ff4c0a" stroke-width="1"/>
    <path id="Path_76258" data-name="Path 76258" d="M1148.545,237.765l.474-19.853L1123,211v19.051Z" transform="translate(-592.17 -20.634)" fill="none" stroke="#ff4c0a" stroke-miterlimit="10" stroke-width="1"/>
  </g>
</svg>
