<svg xmlns="http://www.w3.org/2000/svg" xmlns:xlink="http://www.w3.org/1999/xlink" width="1920" height="1084" viewBox="0 0 1920 1084">
  <defs>
    <clipPath id="clip-path">
      <rect id="Rectangle_253427" data-name="Rectangle 253427" width="1920" height="1175" transform="translate(0 6960)" fill="#242424"/>
    </clipPath>
    <clipPath id="clip-path-2">
      <rect id="Rectangle_253416" data-name="Rectangle 253416" width="717" height="537" transform="translate(514.432 1212.145)" fill="#fff" stroke="#707070" stroke-width="1"/>
    </clipPath>
    <clipPath id="clip-Web_1920_92">
      <rect width="1920" height="1084"/>
    </clipPath>
  </defs>
  <g id="Web_1920_92" data-name="Web 1920 – 92" clip-path="url(#clip-Web_1920_92)">
    <rect width="1920" height="1084" fill="#ffdc67"/>
    <g id="Group_164050" data-name="Group 164050">
      <g id="Group_164049" data-name="Group 164049">
        <rect id="Rectangle_253428" data-name="Rectangle 253428" width="1920" height="1080" fill="#00112c"/>
        <g id="Mask_Group_156886" data-name="Mask Group 156886" transform="translate(0 -6960)" clip-path="url(#clip-path)">
          <g id="Group_163952" data-name="Group 163952" transform="translate(0 -254)">
            <g id="Group_163949" data-name="Group 163949" transform="translate(90.5 7095.5)">
              <line id="Line_33545" data-name="Line 33545" y2="1611.5" fill="none" stroke="rgba(255,255,255,0.24)" stroke-width="1" opacity="0.181"/>
              <line id="Line_33546" data-name="Line 33546" y2="1611.5" transform="translate(480)" fill="none" stroke="rgba(255,255,255,0.24)" stroke-width="1" opacity="0.181"/>
              <line id="Line_33547" data-name="Line 33547" y2="2157.552" transform="translate(240)" fill="none" stroke="rgba(255,255,255,0.24)" stroke-width="1" opacity="0.181"/>
              <line id="Line_33548" data-name="Line 33548" y2="1611.5" transform="translate(720)" fill="none" stroke="rgba(255,255,255,0.24)" stroke-width="1" opacity="0.181"/>
              <line id="Line_33549" data-name="Line 33549" y2="1611.5" transform="translate(80)" fill="none" stroke="rgba(255,255,255,0.24)" stroke-width="1" opacity="0.181"/>
              <line id="Line_33550" data-name="Line 33550" y2="1611.5" transform="translate(560)" fill="none" stroke="rgba(255,255,255,0.24)" stroke-width="1" opacity="0.181"/>
              <line id="Line_33551" data-name="Line 33551" y2="2157.552" transform="translate(320)" fill="none" stroke="rgba(255,255,255,0.24)" stroke-width="1" opacity="0.181"/>
              <line id="Line_33552" data-name="Line 33552" y2="1611.5" transform="translate(800)" fill="none" stroke="rgba(255,255,255,0.24)" stroke-width="1" opacity="0.181"/>
              <line id="Line_33553" data-name="Line 33553" y2="1611.5" transform="translate(160)" fill="none" stroke="rgba(255,255,255,0.24)" stroke-width="1" opacity="0.181"/>
              <line id="Line_33554" data-name="Line 33554" y2="1611.5" transform="translate(640)" fill="none" stroke="rgba(255,255,255,0.24)" stroke-width="1" opacity="0.181"/>
              <line id="Line_33555" data-name="Line 33555" y2="1611.5" transform="translate(400)" fill="none" stroke="rgba(255,255,255,0.24)" stroke-width="1" opacity="0.181"/>
              <line id="Line_33556" data-name="Line 33556" y2="1611.5" transform="translate(880)" fill="none" stroke="rgba(255,255,255,0.24)" stroke-width="1" opacity="0.181"/>
            </g>
            <g id="Group_163950" data-name="Group 163950" transform="translate(1050.5 7095.5)">
              <line id="Line_33557" data-name="Line 33557" y2="1611.5" fill="none" stroke="rgba(255,255,255,0.24)" stroke-width="1" opacity="0.181"/>
              <line id="Line_33558" data-name="Line 33558" y2="2157.196" transform="translate(480)" fill="none" stroke="rgba(255,255,255,0.24)" stroke-width="1" opacity="0.181"/>
              <line id="Line_33559" data-name="Line 33559" y2="1611.5" transform="translate(240)" fill="none" stroke="rgba(255,255,255,0.24)" stroke-width="1" opacity="0.181"/>
              <line id="Line_33560" data-name="Line 33560" y2="2157.196" transform="translate(720)" fill="none" stroke="rgba(255,255,255,0.24)" stroke-width="1" opacity="0.181"/>
              <line id="Line_33561" data-name="Line 33561" y2="1611.5" transform="translate(80)" fill="none" stroke="rgba(255,255,255,0.24)" stroke-width="1" opacity="0.181"/>
              <line id="Line_33562" data-name="Line 33562" y2="2157.196" transform="translate(560)" fill="none" stroke="rgba(255,255,255,0.24)" stroke-width="1" opacity="0.181"/>
              <line id="Line_33563" data-name="Line 33563" y2="1611.5" transform="translate(320)" fill="none" stroke="rgba(255,255,255,0.24)" stroke-width="1" opacity="0.181"/>
              <line id="Line_33564" data-name="Line 33564" y2="2157.196" transform="translate(800)" fill="none" stroke="rgba(255,255,255,0.24)" stroke-width="1" opacity="0.181"/>
              <line id="Line_33565" data-name="Line 33565" y2="1611.5" transform="translate(160)" fill="none" stroke="rgba(255,255,255,0.24)" stroke-width="1" opacity="0.181"/>
              <line id="Line_33566" data-name="Line 33566" y2="2157.196" transform="translate(640)" fill="none" stroke="rgba(255,255,255,0.24)" stroke-width="1" opacity="0.181"/>
              <line id="Line_33567" data-name="Line 33567" y2="2157.196" transform="translate(400)" fill="none" stroke="rgba(255,255,255,0.24)" stroke-width="1" opacity="0.181"/>
              <line id="Line_33568" data-name="Line 33568" y2="1611.5" transform="translate(880)" fill="none" stroke="rgba(255,255,255,0.24)" stroke-width="1" opacity="0.181"/>
            </g>
            <g id="Group_163951" data-name="Group 163951" transform="translate(0 7135)">
              <line id="Line_33569" data-name="Line 33569" y2="1920" transform="translate(0 880) rotate(-90)" fill="none" stroke="rgba(255,255,255,0.24)" stroke-width="1" opacity="0.181"/>
              <line id="Line_33570" data-name="Line 33570" y2="1920" transform="translate(0 400) rotate(-90)" fill="none" stroke="rgba(255,255,255,0.24)" stroke-width="1" opacity="0.181"/>
              <line id="Line_33571" data-name="Line 33571" y2="1920" transform="translate(0 640) rotate(-90)" fill="none" stroke="rgba(255,255,255,0.24)" stroke-width="1" opacity="0.181"/>
              <line id="Line_33572" data-name="Line 33572" y2="1920" transform="translate(0 160) rotate(-90)" fill="none" stroke="rgba(255,255,255,0.24)" stroke-width="1" opacity="0.181"/>
              <line id="Line_33573" data-name="Line 33573" y2="1920" transform="translate(0 800) rotate(-90)" fill="none" stroke="rgba(255,255,255,0.24)" stroke-width="1" opacity="0.181"/>
              <line id="Line_33574" data-name="Line 33574" y2="1920" transform="translate(0 320) rotate(-90)" fill="none" stroke="rgba(255,255,255,0.24)" stroke-width="1" opacity="0.181"/>
              <line id="Line_33575" data-name="Line 33575" y2="1920" transform="translate(0 560) rotate(-90)" fill="none" stroke="rgba(255,255,255,0.24)" stroke-width="1" opacity="0.181"/>
              <line id="Line_33576" data-name="Line 33576" y2="1920" transform="translate(0 1057) rotate(-90)" fill="none" stroke="rgba(255,255,255,0.24)" stroke-width="1" opacity="0.181"/>
              <line id="Line_33577" data-name="Line 33577" y2="1920" transform="translate(0 80) rotate(-90)" fill="none" stroke="rgba(255,255,255,0.24)" stroke-width="1" opacity="0.181"/>
              <line id="Line_33578" data-name="Line 33578" y2="1920" transform="translate(0 720) rotate(-90)" fill="none" stroke="rgba(255,255,255,0.24)" stroke-width="1" opacity="0.181"/>
              <line id="Line_33579" data-name="Line 33579" y2="1920" transform="translate(0 240) rotate(-90)" fill="none" stroke="rgba(255,255,255,0.24)" stroke-width="1" opacity="0.181"/>
              <line id="Line_33580" data-name="Line 33580" y2="1920" transform="translate(0 480) rotate(-90)" fill="none" stroke="rgba(255,255,255,0.24)" stroke-width="1" opacity="0.181"/>
              <line id="Line_33581" data-name="Line 33581" y2="1920" transform="translate(0 977) rotate(-90)" fill="none" stroke="rgba(255,255,255,0.24)" stroke-width="1" opacity="0.181"/>
              <line id="Line_33582" data-name="Line 33582" y2="1920" transform="rotate(-90)" fill="none" stroke="rgba(255,255,255,0.24)" stroke-width="1" opacity="0.181"/>
            </g>
          </g>
          <g id="Group_164048" data-name="Group 164048">
            <rect id="Rectangle_253417" data-name="Rectangle 253417" width="80" height="1084" transform="translate(1771 6960)" fill="rgba(255,255,255,0.05)"/>
            <rect id="Rectangle_253418" data-name="Rectangle 253418" width="80" height="1084" transform="translate(1611 6960)" fill="rgba(255,255,255,0.05)"/>
            <rect id="Rectangle_253419" data-name="Rectangle 253419" width="80" height="1084" transform="translate(331 6960)" fill="rgba(255,255,255,0.05)"/>
            <rect id="Rectangle_253420" data-name="Rectangle 253420" width="80" height="1084" transform="translate(1451 6960)" fill="rgba(255,255,255,0.05)"/>
            <rect id="Rectangle_253429" data-name="Rectangle 253429" width="80" height="1920.5" transform="translate(0 7937.5) rotate(-90)" fill="rgba(255,255,255,0.05)"/>
            <rect id="Rectangle_253430" data-name="Rectangle 253430" width="80" height="1920.5" transform="translate(0 7759.5) rotate(-90)" fill="rgba(255,255,255,0.05)"/>
            <rect id="Rectangle_253431" data-name="Rectangle 253431" width="80" height="1920.5" transform="translate(0 7599.5) rotate(-90)" fill="rgba(255,255,255,0.05)"/>
          </g>
        </g>
      </g>
    </g>
    <text id="Hyundai_EU" data-name="Hyundai EU" transform="translate(214.5 513.5) rotate(-90)" fill="#f2dec7" font-size="32" font-family="Poppins-Light, Poppins" font-weight="300" letter-spacing="0.04em" opacity="0"><tspan x="-93.872" y="0">Hyundai EU</tspan></text>
    <g id="Group_163936" data-name="Group 163936" transform="translate(0 -40)" opacity="0">
      <g id="Group_163871" data-name="Group 163871" transform="translate(-123.627 31.762)">
        <g id="Group_163869" data-name="Group 163869" transform="translate(679.81 72.667)">
          <g id="Group_163868" data-name="Group 163868" transform="translate(0 0)">
            <text id="Adobe_Captivate" data-name="Adobe Captivate" transform="translate(56.817 11.572)" fill="#ffb78a" font-size="14" font-family="Poppins-Regular, Poppins" letter-spacing="0.06em"><tspan x="-67.312" y="0">ADOBE CAPTIVATE</tspan></text>
            <text id="Adobe_WIJK" data-name="Adobe WIJK" transform="translate(224.817 11.572)" fill="#ffb78a" font-size="14" font-family="Poppins-Regular, Poppins" letter-spacing="0.06em"><tspan x="-45.157" y="0">ADOBE WIJK</tspan></text>
            <text id="Adobe_ANIMATE" data-name="Adobe ANIMATE" transform="translate(378.817 11.572)" fill="#ffb78a" font-size="14" font-family="Poppins-Regular, Poppins" letter-spacing="0.06em"><tspan x="-59.444" y="0">ADOBE ANIMATE</tspan></text>
            <text id="Adobe_CUSTOMER_SUCCESS" data-name="Adobe CUSTOMER SUCCESS" transform="translate(593.817 11.572)" fill="#ffb78a" font-size="14" font-family="Poppins-Black, Poppins" font-weight="800" letter-spacing="0.06em"><tspan x="-108.346" y="0">ADOBE CUSTOMER SUCCESS</tspan></text>
            <text id="OTHER_PROJECTS" data-name="OTHER PROJECTS" transform="translate(811.817 11.572)" fill="#ffb78a" font-size="14" font-family="Poppins-Regular, Poppins" letter-spacing="0.06em"><tspan x="-63.714" y="0">OTHER PROJECTS</tspan></text>
          </g>
        </g>
      </g>
      <path id="Path_76161" data-name="Path 76161" d="M675.511-735.536q-8.4,4.392-16.476,9.376c-5.415,3.346-10.618,6.967-15.84,10.6a2.88,2.88,0,0,1-2.364.743,5.727,5.727,0,0,1-2.1-1.269,10.555,10.555,0,0,1-2.74-3.674.718.718,0,0,0-1.2-.086l.168-.689a.747.747,0,0,0-1.36-.573c-.937,1.63-1.941,3.5-1.486,5.442.02.085.044.17.069.253l-.9,3.7a20.771,20.771,0,0,1-5.43-2.1.754.754,0,0,0-1.093.445l-.733,2.223a83.514,83.514,0,0,1-3.968-8.578l-2.828-6.79a136.691,136.691,0,0,0-1.708-14.414,67.366,67.366,0,0,0-3.419-13.056c-1.649-4.163-4.051-8.027-7.762-10.641a.753.753,0,0,0-1.018.267c-1.833,2.974-.706,6.557.514,9.534,1.566,3.819,3.175,7.622,4.762,11.433l7.165,17.2c.249,3.677.39,7.362.482,11.041.064,2.574.1,5.148.141,7.723a13.612,13.612,0,0,1-.121,2.942l-2.7-3.153a.751.751,0,0,0-1.27.526l.15,6.97a2.56,2.56,0,0,1-2.029-2.245.744.744,0,0,0-1.488,0q-.028,1.983-.055,3.966a2.74,2.74,0,0,1-1.781-2.083c-.01-.082-.02-.164-.031-.246,0-.024-.006-.048-.007-.073h0c-.009-.066-.015-.132-.025-.2-.116-.831-1.5-.632-1.461.2a4.216,4.216,0,0,0,.082.653,24.551,24.551,0,0,1,.051,5.248,10.044,10.044,0,0,1-3.9-2.413.75.75,0,0,0-1.244.724,24.131,24.131,0,0,1,.952,4.6,9.372,9.372,0,0,0-4.371-2.48l-9.453-23.6-13.693-34.186c-1.278-3.191-2.566-6.378-3.833-9.573a48.26,48.26,0,0,1-2.9-9.35c-.146-.828-1.495-.633-1.461.2.55,13.645,4.148,26.879,7.729,39.979,1.793,6.558,3.587,13.121,5,19.772a138.37,138.37,0,0,1,2.737,19.137,21.766,21.766,0,0,0-2.55.457,19.9,19.9,0,0,0-6.416,2.822.756.756,0,0,0,0,1.285,14.436,14.436,0,0,0,9.27,2.621q.053,3.455-.071,6.91-.112,3.054-.365,6.1a14.159,14.159,0,0,1-.311,2.6c-.179.644-.789,1.562-1.548,1.057-.8-.532-1.545.756-.751,1.285a2.421,2.421,0,0,0,3.318-.944c.79-1.3.711-3.117.826-4.58q.444-5.658.4-11.341,0-.619-.015-1.238.615-.091,1.221-.228a14.763,14.763,0,0,0,5.648-2.611,13.614,13.614,0,0,0,1.659-1.489,20.612,20.612,0,0,1,3.628,1.784,18.764,18.764,0,0,1,4.916,4.443c.447.577,1.513-.051,1.243-.724l-3.547-8.855a13.272,13.272,0,0,1,4.026,3.2.751.751,0,0,0,1.27-.526,25.694,25.694,0,0,0-.564-4.723,11.537,11.537,0,0,0,3.579,1.564.758.758,0,0,0,.942-.717,25.152,25.152,0,0,0,.211-3.648,4.2,4.2,0,0,0,2.314.816.754.754,0,0,0,.744-.744q.014-1.008.028-2.016a3.915,3.915,0,0,0,2.829.958.757.757,0,0,0,.744-.744q-.061-2.858-.123-5.716l1.681,1.96a1.174,1.174,0,0,1-.562.19c-.941.077-.969,1.517,0,1.488a4.11,4.11,0,0,0,2.212-.688.753.753,0,0,0,.187-1.121,5.436,5.436,0,0,0,.4-1.308,33.823,33.823,0,0,0,.077-6.466c-.063-3.684-.154-7.369-.33-11.05l.564,1.354a83.478,83.478,0,0,0,5.518,11.727.753.753,0,0,0,1.36-.178l.974-2.953a22.07,22.07,0,0,0,5.73,1.982.758.758,0,0,0,.915-.52l.732-3.011a3.156,3.156,0,0,0,2.085.847.754.754,0,0,0,.744-.744q0-1.578-.008-3.156a11.394,11.394,0,0,0,1.058,1.189,7.359,7.359,0,0,0,3.626,2.2c1.628.269,2.912-.784,4.152-1.672q2.04-1.462,4.108-2.884,8.386-5.768,17.2-10.873,4.947-2.864,10.016-5.511C677.111-734.7,676.36-735.98,675.511-735.536Zm-94.45,29.56c-2.451-14.036-7.026-27.573-10.267-41.426a144.1,144.1,0,0,1-2.935-16.269q.218.589.446,1.174c1.092,2.815,2.237,5.61,3.36,8.413l6.846,17.093L592.2-702.8l3.308,8.259a4.52,4.52,0,0,0-2.035.813,13.115,13.115,0,0,0-2.35,2.595,23.233,23.233,0,0,0-8.386-1.1A135.033,135.033,0,0,0,581.061-705.976ZM579.7-686.422a12.8,12.8,0,0,1-5.652-1.751,19.313,19.313,0,0,1,7.308-2.446c.007.127.016.254.023.382q.105,1.91.154,3.822A14.472,14.472,0,0,1,579.7-686.422Zm3.318-.156q-.058-2.089-.182-4.174a21.543,21.543,0,0,1,7.167.822A13.343,13.343,0,0,1,583.019-686.578Zm9.565-4.03a7.357,7.357,0,0,1,2.013-2.085,3.121,3.121,0,0,1,1.484-.428l2.446,6.107A21.218,21.218,0,0,0,592.584-690.608Zm13.689-62.2c-1.217-2.922-3.369-6.848-2.045-10.054,6,4.682,8.011,12.994,9.434,20.092a118.15,118.15,0,0,1,1.71,11.8ZM633.731-715.5l.874-3.594q.006,2.3.013,4.608A2.17,2.17,0,0,1,633.731-715.5Z" transform="translate(-473.746 420.22) rotate(30)" fill="#ffb78a"/>
      <path id="Path_76180" data-name="Path 76180" d="M4658.172,1897.033a58.709,58.709,0,0,1-12.379.074c-3.341-.338-6.929-.834-9.891-2.53a8.335,8.335,0,0,1-3.262-3.188c-.065-.119-.125-.241-.184-.363q1.256-8.995,1.968-18.055h4.016a.863.863,0,0,0,0-1.724h-3.883q.114-1.591.215-3.183.116-1.864.207-3.729a16.269,16.269,0,0,0,.029-2.763c-.18-1.484-.917-3.061-2.616-3.075a.884.884,0,0,0-.862.862q-.618,5.934-1.027,11.888h-2.517a.863.863,0,0,0,0,1.724h2.4c-.279,4.371-.609,8.792-.548,13.174a14.278,14.278,0,0,0,.877,5.01q-.141,1-.288,2a16.388,16.388,0,0,1-.342,2.163c-.219.749-.961.726-1.607.512a3.765,3.765,0,0,1-2.414-3.069c.217-.9.621-1.776,1.423-1.508,1.057.352,1.505-1.308.459-1.663l-1.916-.65a.874.874,0,0,0-.974.4,5.293,5.293,0,0,0-.733,3.44c-.089.472-.149.957-.233,1.454-.1.61-.509,2.593-1.541,2.049a1.855,1.855,0,0,1-.69-1.651c.027-.455.055-.911.083-1.366a.764.764,0,0,0-1.065-.778.817.817,0,0,0,.18-1.054,1.871,1.871,0,0,0-.95-.868,3.04,3.04,0,0,0-4.357,2.211,3.694,3.694,0,0,0,.516,2.648,2.387,2.387,0,0,1-.458,1.263c-.61.742-1.57.063-2.165-.386-.134-.1-.264-.21-.388-.323a28.47,28.47,0,0,0,.334-4.442q.653-13.02,1.305-26.039l.111-2.228,1.659-.038a.863.863,0,0,0,0-1.725l-1.57.036a13.574,13.574,0,0,0-.008-2.8c-.271-1.782-1.752-3.406-3.68-2.9a.892.892,0,0,0-.633.832q-.248,2.488-.491,4.978l-3.491.08a.863.863,0,0,0,0,1.725l3.325-.077c-.609,6.392-1.142,12.791-1.379,19.209-.122,3.277-.277,6.652.6,9.849a10.767,10.767,0,0,0,1.85,3.828c.038.048.079.1.118.147-.369.859-1.24,1.742-2.083.806a5.139,5.139,0,0,1-.836-3.385.867.867,0,0,0-1.694-.229q-.619,1.821-1.239,3.642a8.647,8.647,0,0,1-.556-4.1c.1-1-1.412-1.116-1.694-.229a18.086,18.086,0,0,1-.744,2.024,5.625,5.625,0,0,0-3.532-1.521.874.874,0,0,0-1.63.106c-.022.114-.043.229-.064.345a2.633,2.633,0,0,0-.909,3.338,4.78,4.78,0,0,1-.829.741,5.028,5.028,0,0,1-4.689.449c-3.506-1.288-5.182-4.91-6.094-8.274a57.582,57.582,0,0,1-1.646-20.072,51.748,51.748,0,0,1,5.446-19.18c3.031-5.846,7.474-11.781,13.4-14.926,3.23-1.716,7.077-2.41,10.508-.861,3,1.356,5.47,4.135,5.312,7.578-.051,1.11,1.674,1.107,1.725,0a9.518,9.518,0,0,0-4.6-8.2,12.343,12.343,0,0,0-9.925-1.534c-7.357,1.857-13,8.623-16.693,14.892a52.832,52.832,0,0,0-6.784,21.172,59.671,59.671,0,0,0-.139,11.21,52.84,52.84,0,0,0,2.032,11.38c1.265,4.067,3.974,8.22,8.539,8.848a6.657,6.657,0,0,0,5.363-1.73,4.115,4.115,0,0,0,2.364,2.671,3.2,3.2,0,0,0,4.534-2.819,10.113,10.113,0,0,0,.746,1.291.876.876,0,0,0,1.577-.206l.816-2.4c.571,1.356,1.593,2.376,3.28,2.05a2.947,2.947,0,0,0,2.083-1.558,4.7,4.7,0,0,0,2.182,1.009,2.716,2.716,0,0,0,2.85-1.924,7.705,7.705,0,0,0,3.175,1.137.705.705,0,0,0,.652-.313,2.39,2.39,0,0,0,2.669.048,3.516,3.516,0,0,0,1.338-1.973,5.394,5.394,0,0,0,.729.773,4.289,4.289,0,0,0,3.872,1.079c1.724-.505,1.8-2.451,1.988-3.972a9.217,9.217,0,0,0,1.723,1.678c2.753,2.067,6.27,2.811,9.609,3.279a59.275,59.275,0,0,0,14.744.212C4659.262,1898.637,4659.274,1896.91,4658.172,1897.033Zm-59.141.508a1.372,1.372,0,0,1-.361-.113,5.281,5.281,0,0,1-.051-.634,5.243,5.243,0,0,0,.433-1.622,4.873,4.873,0,0,1,1.614.618,4.784,4.784,0,0,1,.887.668A2.62,2.62,0,0,1,4599.031,1897.54Zm1.864,2.427a2.206,2.206,0,0,1-1.36-.687,4.843,4.843,0,0,0,2.875-1.257c.007.055.014.11.016.167C4602.476,1899.107,4601.919,1900.064,4600.9,1899.967Zm11.52-42.486c1.138.248,1.026,2.556.984,3.39q-.017.356-.036.711l-1.355.031Q4612.209,1859.547,4612.415,1857.482Zm.2,18.979q-.266,5.311-.533,10.621-.128,2.57-.257,5.139c-.029.579-.037,1.17-.07,1.759a9.192,9.192,0,0,1-.442-1.006c-1.095-2.981-.993-6.235-.894-9.358.135-4.216.4-8.427.741-12.632.2-2.549.437-5.1.68-7.642l1.436-.033q-.07,1.351-.136,2.7Q4612.879,1871.236,4612.618,1876.461Zm7.6,16.8a8.114,8.114,0,0,0-.068,1.133q-.051.833-.1,1.667a4.048,4.048,0,0,1-2.034-1.15,5.987,5.987,0,0,1,.24-2.033c.126-.326.729-.95,1.117-.774a.785.785,0,0,1,.195.2.86.86,0,0,0,.977.362A.91.91,0,0,0,4620.215,1893.266Zm12.894-32.448a5.12,5.12,0,0,1,.222,1.821c-.038,1.7-.162,3.395-.264,5.087q-.107,1.761-.236,3.521h-.6Q4632.588,1866.025,4633.109,1860.817Zm-1.555,23.833c.021-3.695.29-7.41.517-11.089.012-.2.027-.393.04-.59h.591q-.191,2.458-.424,4.911Q4631.956,1881.27,4631.555,1884.65Z" transform="translate(-3099.005 -1772.004)" fill="#ffb78a"/>
    </g>
    <g id="Group_164107" data-name="Group 164107" transform="translate(-20 62)" opacity="0">
      <g id="Component_41_290" data-name="Component 41 – 290" transform="translate(1705 410)">
        <rect id="Rectangle_253463" data-name="Rectangle 253463" width="20" height="20" fill="#fff" opacity="0"/>
        <g id="Ellipse_11973" data-name="Ellipse 11973" transform="translate(6 6)" fill="none" stroke="#fff" stroke-width="1">
          <circle cx="4" cy="4" r="4" stroke="none"/>
          <circle cx="4" cy="4" r="3.5" fill="none"/>
        </g>
      </g>
      <g id="Component_41_291" data-name="Component 41 – 291" transform="translate(1705 450)">
        <rect id="Rectangle_253463-2" data-name="Rectangle 253463" width="20" height="20" fill="#fff" opacity="0"/>
        <g id="Ellipse_11973-2" data-name="Ellipse 11973" transform="translate(6 6)" fill="#fff" stroke="#fff" stroke-width="1">
          <circle cx="4" cy="4" r="4" stroke="none"/>
          <circle cx="4" cy="4" r="3.5" fill="none"/>
        </g>
      </g>
      <g id="Component_41_292" data-name="Component 41 – 292" transform="translate(1705 490)">
        <rect id="Rectangle_253463-3" data-name="Rectangle 253463" width="20" height="20" fill="#fff" opacity="0"/>
        <g id="Ellipse_11973-3" data-name="Ellipse 11973" transform="translate(6 6)" fill="none" stroke="#fff" stroke-width="1">
          <circle cx="4" cy="4" r="4" stroke="none"/>
          <circle cx="4" cy="4" r="3.5" fill="none"/>
        </g>
      </g>
      <g id="Component_41_293" data-name="Component 41 – 293" transform="translate(1705 530)">
        <rect id="Rectangle_253463-4" data-name="Rectangle 253463" width="20" height="20" fill="#fff" opacity="0"/>
        <g id="Ellipse_11973-4" data-name="Ellipse 11973" transform="translate(6 6)" fill="none" stroke="#fff" stroke-width="1">
          <circle cx="4" cy="4" r="4" stroke="none"/>
          <circle cx="4" cy="4" r="3.5" fill="none"/>
        </g>
      </g>
    </g>
  </g>
</svg>
