<svg xmlns="http://www.w3.org/2000/svg" width="71.131" height="82.544" viewBox="0 0 71.131 82.544" style="&#10;">
  <g id="Group_163614" data-name="Group 163614" transform="translate(0 0)">
    <g id="Group_163613" data-name="Group 163613">
      <path id="Path_74283" data-name="Path 74283" d="M718.312,956s-4.69-1.682-7.731.939" transform="translate(-690.586 -921.304)" fill="none" stroke="#fff" stroke-linecap="round" stroke-linejoin="round" stroke-width="2"/>
      <g id="Group_163612" data-name="Group 163612">
        <g id="Path_74284" data-name="Path 74284" transform="translate(-699.488 -936.514)" fill="none" stroke-linecap="round" stroke-linejoin="round">
          <path d="M727.816,1019.059h9.591a5.3,5.3,0,0,0,5.3-5.3v-2.084a5.57,5.57,0,0,1,1.754-4.057l5.932-5.588s6.156-8.475,9.811-11.985l10.419-11.569s-.085-1.9-3.327-3.026a12.18,12.18,0,0,0-11.756,2.039,14.65,14.65,0,0,0-2.954,3.387l-6.114,4.371s-.975-.472-1.141-1.047l3.746-34.165s.589-5.527-4.25-6.343a5.26,5.26,0,0,0-2.68.2s1.925-5.063-2.349-6.88c0,0-4.724-2.156-6.857,2.444l-9.863,30.291L714.2,945.8s-1.637-5.485-6.055-4.34a5.408,5.408,0,0,0-4.25,6.549l1.422,5.1s-5.5-.887-5.831,5.3l3.234,15.754s.71,3.92,1.3,11.078c0,0,2.94,21.583,6.84,25.6,0,0,.283-.031.532,1.853l.458,3.061a3.875,3.875,0,0,0,3.832,3.3Z" stroke="none"/>
          <path d="M 737.40771484375 1017.058715820312 C 739.2250366210938 1017.058715820312 740.7034912109375 1015.580261230469 740.7034912109375 1013.762939453125 L 740.7034912109375 1011.67919921875 C 740.7034912109375 1009.59912109375 741.5723876953125 1007.589172363281 743.0859375 1006.166015625 L 748.8826904296875 1000.705444335938 C 749.7598266601562 999.5052490234375 755.2493896484375 992.0521850585938 758.7619018554688 988.65771484375 L 768.200927734375 978.1768188476562 C 767.9073486328125 977.921875 767.4240112304688 977.6171264648438 766.6342163085938 977.3427124023438 C 765.5309448242188 976.9586791992188 764.3763427734375 976.7639770507812 763.2025146484375 976.7639770507812 C 760.8316650390625 976.7639770507812 758.5643310546875 977.5676879882812 756.818115234375 979.0272216796875 C 755.847900390625 979.8380126953125 754.9896850585938 980.8231811523438 754.2672119140625 981.955322265625 C 754.1297607421875 982.1707763671875 753.9523315429688 982.3578491210938 753.7444458007812 982.5064697265625 L 747.6304321289062 986.8775634765625 C 747.284912109375 987.1245727539062 746.877197265625 987.2506103515625 746.467041015625 987.2506103515625 C 746.170166015625 987.2506103515625 745.8720092773438 987.1845703125 745.5953369140625 987.0505981445312 C 745.060791015625 986.7916259765625 743.7771606445312 986.0498046875 743.4044799804688 984.7575073242188 C 743.3322143554688 984.5069580078125 743.3096923828125 984.24462890625 743.3380737304688 983.9854125976562 L 747.0830078125 949.8261108398438 C 747.0849609375 949.8059692382812 747.1705932617188 948.8010864257812 746.850341796875 947.7625122070312 C 746.4685668945312 946.5247192382812 745.740234375 945.8786010742188 744.4887084960938 945.6674194335938 C 744.4240112304688 945.6565551757812 744.41748046875 945.6575927734375 744.3644409179688 945.64306640625 C 744.3132934570312 945.6342163085938 744.1478881835938 945.6091918945312 743.9103393554688 945.6091918945312 C 743.5247192382812 945.6091918945312 743.1443481445312 945.6715087890625 742.7797241210938 945.7943725585938 C 742.5662841796875 945.8662719726562 742.3461303710938 945.9014282226562 742.1278686523438 945.9014282226562 C 741.5919189453125 945.9014282226562 741.0679321289062 945.6893310546875 740.68701171875 945.2885131835938 C 740.1522827148438 944.7259521484375 739.9869995117188 943.9165649414062 740.2694091796875 943.1941528320312 C 740.298095703125 943.1127319335938 740.6248168945312 942.15966796875 740.566650390625 941.1231689453125 C 740.5029907226562 939.9881591796875 740.0228881835938 939.2899780273438 739.0099487304688 938.859375 C 738.9939575195312 938.8526000976562 738.9780883789062 938.8455810546875 738.9622802734375 938.83837890625 C 738.9552001953125 938.8351440429688 738.1959838867188 938.5142211914062 737.3034057617188 938.5142211914062 C 736.1439819335938 938.5142211914062 735.3672485351562 939.03662109375 734.7975463867188 940.2045288085938 L 724.9739990234375 970.37353515625 C 724.7103881835938 971.1829833984375 723.9633178710938 971.7368774414062 723.1121826171875 971.75390625 C 723.0986938476562 971.754150390625 723.0853881835938 971.7542724609375 723.0719604492188 971.7542724609375 C 722.2369384765625 971.7542724609375 721.4877319335938 971.234619140625 721.19677734375 970.4489135742188 L 712.3265380859375 946.4989624023438 C 712.3098754882812 946.4539184570312 712.300048828125 946.4262084960938 712.2870483398438 946.38134765625 C 712.2647094726562 946.3115844726562 711.9801635742188 945.4431762695312 711.395751953125 944.6242065429688 C 710.4556274414062 943.3067016601562 709.60546875 943.3067016601562 709.3261108398438 943.3067016601562 C 709.115478515625 943.3067016601562 708.8876342773438 943.3380737304688 708.64892578125 943.3999633789062 C 708.5879516601562 943.4157104492188 708.5650634765625 943.4221801757812 708.50732421875 943.4314575195312 C 708.4055786132812 943.4539794921875 707.5662841796875 943.6541137695312 706.8569946289062 944.2587890625 C 705.9791870117188 945.0071411132812 705.65185546875 946.1002197265625 705.8577880859375 947.59814453125 L 707.245849609375 952.5801391601562 C 707.4307861328125 953.2439575195312 707.2815551757812 953.9597778320312 706.8169555664062 954.46875 C 706.4337768554688 954.8886108398438 705.908447265625 955.1237182617188 705.355712890625 955.1237182617188 C 705.2418212890625 955.1237182617188 705.126708984375 955.11376953125 705.011474609375 955.0933227539062 C 704.9735717773438 955.0887451171875 704.8282470703125 955.0729370117188 704.61767578125 955.0729370117188 C 704.1886596679688 955.0729370117188 703.3721923828125 955.1397705078125 702.7242431640625 955.5873413085938 C 702.0204467773438 956.0734252929688 701.6096801757812 956.978515625 701.5015869140625 958.279541015625 L 704.680908203125 973.7683715820312 C 704.6840209960938 973.7835693359375 704.6869506835938 973.7987670898438 704.689697265625 973.8140258789062 C 704.7193603515625 973.9775390625 705.42041015625 977.8924560546875 706.011962890625 985.0294189453125 C 706.0899658203125 985.5907592773438 706.8097534179688 990.6920166015625 707.943359375 996.156494140625 C 708.6387329101562 999.5084838867188 709.35009765625 1002.333862304688 710.0577392578125 1004.554260253906 C 711.06298828125 1007.708251953125 711.8362426757812 1008.909973144531 712.1986694335938 1009.340393066406 C 712.4539184570312 1009.555419921875 712.6978759765625 1009.862731933594 712.8851928710938 1010.301147460938 C 713.092529296875 1010.786376953125 713.2485961914062 1011.459655761719 713.3760375976562 1012.418823242188 L 713.8311767578125 1015.461486816406 C 713.9700317382812 1016.386962890625 714.7498779296875 1017.058715820312 715.685546875 1017.058715820312 L 727.8164672851562 1017.058715820312 L 737.40771484375 1017.058715820312 M 737.40771484375 1019.058715820312 L 727.8164672851562 1019.058715820312 L 715.685546875 1019.058715820312 C 713.767578125 1019.058715820312 712.1380615234375 1017.656372070312 711.8533325195312 1015.758178710938 L 711.3955078125 1012.697631835938 C 711.154541015625 1010.873291015625 710.8815307617188 1010.844543457031 710.8645629882812 1010.844543457031 C 710.864013671875 1010.844543457031 710.8637084960938 1010.844604492188 710.8637084960938 1010.844604492188 C 706.9630737304688 1006.832153320312 704.0232543945312 985.248779296875 704.0232543945312 985.248779296875 C 703.4319458007812 978.0909423828125 702.7217407226562 974.1705322265625 702.7217407226562 974.1705322265625 L 699.4879760742188 958.4163818359375 C 699.7415771484375 953.6084594726562 703.1234130859375 953.0729370117188 704.61767578125 953.0729370117188 C 705.0459594726562 953.0729370117188 705.3192138671875 953.116943359375 705.3192138671875 953.116943359375 L 703.8970336914062 948.012451171875 C 703.0336303710938 942.370361328125 708.1472778320312 941.4638671875 708.1472778320312 941.4638671875 C 708.5650024414062 941.3556518554688 708.9572143554688 941.3067016601562 709.3261108398438 941.3067016601562 C 712.8595581054688 941.3067016601562 714.2020263671875 945.8043212890625 714.2020263671875 945.8043212890625 L 723.072265625 969.7542724609375 L 732.9356079101562 939.463134765625 C 734.036376953125 937.08837890625 735.8275756835938 936.5142211914062 737.3034057617188 936.5142211914062 C 738.6864013671875 936.5142211914062 739.7924194335938 937.018798828125 739.7924194335938 937.018798828125 C 744.0662231445312 938.835693359375 742.14111328125 943.8990478515625 742.14111328125 943.8990478515625 C 742.8180541992188 943.6709594726562 743.4376831054688 943.6091918945312 743.9103393554688 943.6091918945312 C 744.4683837890625 943.6091918945312 744.8214111328125 943.6953125 744.8214111328125 943.6953125 C 749.6611938476562 944.5118408203125 749.0717163085938 950.0384521484375 749.0717163085938 950.0384521484375 L 745.326171875 984.203369140625 C 745.491943359375 984.7781982421875 746.4672241210938 985.2506103515625 746.4672241210938 985.2506103515625 L 752.5812377929688 980.8795166015625 C 753.4933471679688 979.4500732421875 754.5154418945312 978.3450927734375 755.5355834960938 977.4925537109375 C 757.6981201171875 975.68505859375 760.43505859375 974.7639770507812 763.2025146484375 974.7639770507812 C 764.5803833007812 974.7639770507812 765.9663696289062 974.9925537109375 767.2916870117188 975.453857421875 C 770.534423828125 976.58056640625 770.6190795898438 978.4803466796875 770.6190795898438 978.4803466796875 L 760.2005004882812 990.0489501953125 C 756.5451049804688 993.5584716796875 750.3893432617188 1002.033813476562 750.3893432617188 1002.033813476562 L 744.4573364257812 1007.621826171875 C 743.3379516601562 1008.67431640625 742.7034912109375 1010.143432617188 742.7034912109375 1011.67919921875 L 742.7034912109375 1013.762939453125 C 742.7034912109375 1016.688354492188 740.3331909179688 1019.058715820312 737.40771484375 1019.058715820312 Z" stroke="none" fill="#fff"/>
        </g>
        <line id="Line_33520" data-name="Line 33520" x1="6.491" y2="29.987" transform="translate(35.094 7.633)" fill="none" stroke="#fff" stroke-linecap="round" stroke-linejoin="round" stroke-width="2"/>
        <line id="Line_33521" data-name="Line 33521" x2="6.397" y2="22.644" transform="translate(6.87 16.794)" fill="none" stroke="#fff" stroke-linecap="round" stroke-linejoin="round" stroke-width="2"/>
        <path id="Path_74285" data-name="Path 74285" d="M723.418,958.9a7.527,7.527,0,0,0-6.655-.548" transform="translate(-685.624 -919.426)" fill="none" stroke="#fff" stroke-linecap="round" stroke-linejoin="round" stroke-width="2"/>
        <path id="Path_74286" data-name="Path 74286" d="M711.61,958.52s-4.355-.146-6.835,2.771" transform="translate(-695.245 -918.855)" fill="none" stroke="#fff" stroke-linecap="round" stroke-linejoin="round" stroke-width="2"/>
        <path id="Path_74287" data-name="Path 74287" d="M733.152,963.673s-16.457-.351-16.5,11.581" transform="translate(-685.711 -914.719)" fill="none" stroke="#fff" stroke-linecap="round" stroke-linejoin="round" stroke-width="2"/>
      </g>
    </g>
  </g>
</svg>