<svg xmlns="http://www.w3.org/2000/svg" width="84" height="84" viewBox="0 0 84 84">
  <g id="Group_164138" data-name="Group 164138" transform="translate(-1416.25 -938.5)">
    <g id="Group_164029" data-name="Group 164029" transform="translate(-77.75 1.5)">
      <circle id="Ellipse_11972" data-name="Ellipse 11972" cx="42" cy="42" r="42" transform="translate(1494 937)" fill="#ff6200"/>
      <g id="Path_76181" data-name="Path 76181" transform="translate(1548.134 1004.243) rotate(-45)" fill="#fff">
        <path d="M 10.74145793914795 -16.53256225585938 L 10.24145793914795 -16.53256225585938 L 8.75357723236084 -16.53256225585938 L 8.25357723236084 -16.53256225585938 L 8.25357723236084 -17.03256225585938 L 8.25357723236084 -23.8267822265625 L 2.039997577667236 -23.8267822265625 L 1.539997577667236 -23.8267822265625 L 1.539997577667236 -24.3267822265625 L 1.539997577667236 -25.70578384399414 L 1.539997577667236 -26.20578384399414 L 2.039997577667236 -26.20578384399414 L 8.25357723236084 -26.20578384399414 L 8.25357723236084 -33.00000381469727 L 8.25357723236084 -33.50000381469727 L 8.75357723236084 -33.50000381469727 L 10.24145793914795 -33.50000381469727 L 10.74145793914795 -33.50000381469727 L 10.74145793914795 -33.00000381469727 L 10.74145793914795 -26.20578384399414 L 16.95503807067871 -26.20578384399414 L 17.45503807067871 -26.20578384399414 L 17.45503807067871 -25.70578384399414 L 17.45503807067871 -24.3267822265625 L 17.45503807067871 -23.8267822265625 L 16.95503807067871 -23.8267822265625 L 10.74145793914795 -23.8267822265625 L 10.74145793914795 -17.03256225585938 L 10.74145793914795 -16.53256225585938 Z" stroke="none"/>
        <path d="M 10.24145793914795 -17.03256225585938 L 10.24145793914795 -24.3267822265625 L 16.95503807067871 -24.3267822265625 L 16.95503807067871 -25.70578384399414 L 10.24145793914795 -25.70578384399414 L 10.24145793914795 -33.00000381469727 L 8.75357723236084 -33.00000381469727 L 8.75357723236084 -25.70578384399414 L 2.039997577667236 -25.70578384399414 L 2.039997577667236 -24.3267822265625 L 8.75357723236084 -24.3267822265625 L 8.75357723236084 -17.03256225585938 L 10.24145793914795 -17.03256225585938 M 11.24145793914795 -16.03256225585938 L 10.24145793914795 -16.03256225585938 L 8.75357723236084 -16.03256225585938 L 7.753577709197998 -16.03256225585938 L 7.753577709197998 -17.03256225585938 L 7.753577709197998 -23.3267822265625 L 2.039997577667236 -23.3267822265625 L 1.039997577667236 -23.3267822265625 L 1.039997577667236 -24.3267822265625 L 1.039997577667236 -25.70578384399414 L 1.039997577667236 -26.70578384399414 L 2.039997577667236 -26.70578384399414 L 7.753577709197998 -26.70578384399414 L 7.753577709197998 -33.00000381469727 L 7.753577709197998 -34.00000381469727 L 8.75357723236084 -34.00000381469727 L 10.24145793914795 -34.00000381469727 L 11.24145793914795 -34.00000381469727 L 11.24145793914795 -33.00000381469727 L 11.24145793914795 -26.70578384399414 L 16.95503807067871 -26.70578384399414 L 17.95503807067871 -26.70578384399414 L 17.95503807067871 -25.70578384399414 L 17.95503807067871 -24.3267822265625 L 17.95503807067871 -23.3267822265625 L 16.95503807067871 -23.3267822265625 L 11.24145793914795 -23.3267822265625 L 11.24145793914795 -17.03256225585938 L 11.24145793914795 -16.03256225585938 Z" stroke="none" fill="#fff"/>
      </g>
    </g>
  </g>
</svg>
