<svg xmlns="http://www.w3.org/2000/svg" xmlnsXlink="http://www.w3.org/1999/xlink" width="78" height="70" viewBox="0 0 78 70">
  <defs>
    <clipPath id="clip-contact">
      <rect width="78" height="70"/>
    </clipPath>
  </defs>
  <g id="contact" clipPath="url(#clip-contact)">
    <path id="Path_76180" data-name="Path 76180" d="M4658.172,1897.033a58.709,58.709,0,0,1-12.379.074c-3.341-.338-6.929-.834-9.891-2.53a8.335,8.335,0,0,1-3.262-3.188c-.065-.119-.125-.241-.184-.363q1.256-8.995,1.968-18.055h4.016a.863.863,0,0,0,0-1.724h-3.883q.114-1.591.215-3.183.116-1.864.207-3.729a16.269,16.269,0,0,0,.029-2.763c-.18-1.484-.917-3.061-2.616-3.075a.884.884,0,0,0-.862.862q-.618,5.934-1.027,11.888h-2.517a.863.863,0,0,0,0,1.724h2.4c-.279,4.371-.609,8.792-.548,13.174a14.278,14.278,0,0,0,.877,5.01q-.141,1-.288,2a16.388,16.388,0,0,1-.342,2.163c-.219.749-.961.726-1.607.512a3.765,3.765,0,0,1-2.414-3.069c.217-.9.621-1.776,1.423-1.508,1.057.352,1.505-1.308.459-1.663l-1.916-.65a.874.874,0,0,0-.974.4,5.293,5.293,0,0,0-.733,3.44c-.089.472-.149.957-.233,1.454-.1.61-.509,2.593-1.541,2.049a1.855,1.855,0,0,1-.69-1.651c.027-.455.055-.911.083-1.366a.764.764,0,0,0-1.065-.778.817.817,0,0,0,.18-1.054,1.871,1.871,0,0,0-.95-.868,3.04,3.04,0,0,0-4.357,2.211,3.694,3.694,0,0,0,.516,2.648,2.387,2.387,0,0,1-.458,1.263c-.61.742-1.57.063-2.165-.386-.134-.1-.264-.21-.388-.323a28.47,28.47,0,0,0,.334-4.442q.653-13.02,1.305-26.039l.111-2.228,1.659-.038a.863.863,0,0,0,0-1.725l-1.57.036a13.574,13.574,0,0,0-.008-2.8c-.271-1.782-1.752-3.406-3.68-2.9a.892.892,0,0,0-.633.832q-.248,2.488-.491,4.978l-3.491.08a.863.863,0,0,0,0,1.725l3.325-.077c-.609,6.392-1.142,12.791-1.379,19.209-.122,3.277-.277,6.652.6,9.849a10.767,10.767,0,0,0,1.85,3.828c.038.048.079.1.118.147-.369.859-1.24,1.742-2.083.806a5.139,5.139,0,0,1-.836-3.385.867.867,0,0,0-1.694-.229q-.619,1.821-1.239,3.642a8.647,8.647,0,0,1-.556-4.1c.1-1-1.412-1.116-1.694-.229a18.086,18.086,0,0,1-.744,2.024,5.625,5.625,0,0,0-3.532-1.521.874.874,0,0,0-1.63.106c-.022.114-.043.229-.064.345a2.633,2.633,0,0,0-.909,3.338,4.78,4.78,0,0,1-.829.741,5.028,5.028,0,0,1-4.689.449c-3.506-1.288-5.182-4.91-6.094-8.274a57.582,57.582,0,0,1-1.646-20.072,51.748,51.748,0,0,1,5.446-19.18c3.031-5.846,7.474-11.781,13.4-14.926,3.23-1.716,7.077-2.41,10.508-.861,3,1.356,5.47,4.135,5.312,7.578-.051,1.11,1.674,1.107,1.725,0a9.518,9.518,0,0,0-4.6-8.2,12.343,12.343,0,0,0-9.925-1.534c-7.357,1.857-13,8.623-16.693,14.892a52.832,52.832,0,0,0-6.784,21.172,59.671,59.671,0,0,0-.139,11.21,52.84,52.84,0,0,0,2.032,11.38c1.265,4.067,3.974,8.22,8.539,8.848a6.657,6.657,0,0,0,5.363-1.73,4.115,4.115,0,0,0,2.364,2.671,3.2,3.2,0,0,0,4.534-2.819,10.113,10.113,0,0,0,.746,1.291.876.876,0,0,0,1.577-.206l.816-2.4c.571,1.356,1.593,2.376,3.28,2.05a2.947,2.947,0,0,0,2.083-1.558,4.7,4.7,0,0,0,2.182,1.009,2.716,2.716,0,0,0,2.85-1.924,7.705,7.705,0,0,0,3.175,1.137.705.705,0,0,0,.652-.313,2.39,2.39,0,0,0,2.669.048,3.516,3.516,0,0,0,1.338-1.973,5.394,5.394,0,0,0,.729.773,4.289,4.289,0,0,0,3.872,1.079c1.724-.505,1.8-2.451,1.988-3.972a9.217,9.217,0,0,0,1.723,1.678c2.753,2.067,6.27,2.811,9.609,3.279a59.275,59.275,0,0,0,14.744.212C4659.262,1898.637,4659.274,1896.91,4658.172,1897.033Zm-59.141.508a1.372,1.372,0,0,1-.361-.113,5.281,5.281,0,0,1-.051-.634,5.243,5.243,0,0,0,.433-1.622,4.873,4.873,0,0,1,1.614.618,4.784,4.784,0,0,1,.887.668A2.62,2.62,0,0,1,4599.031,1897.54Zm1.864,2.427a2.206,2.206,0,0,1-1.36-.687,4.843,4.843,0,0,0,2.875-1.257c.007.055.014.11.016.167C4602.476,1899.107,4601.919,1900.064,4600.9,1899.967Zm11.52-42.486c1.138.248,1.026,2.556.984,3.39q-.017.356-.036.711l-1.355.031Q4612.209,1859.547,4612.415,1857.482Zm.2,18.979q-.266,5.311-.533,10.621-.128,2.57-.257,5.139c-.029.579-.037,1.17-.07,1.759a9.192,9.192,0,0,1-.442-1.006c-1.095-2.981-.993-6.235-.894-9.358.135-4.216.4-8.427.741-12.632.2-2.549.437-5.1.68-7.642l1.436-.033q-.07,1.351-.136,2.7Q4612.879,1871.236,4612.618,1876.461Zm7.6,16.8a8.114,8.114,0,0,0-.068,1.133q-.051.833-.1,1.667a4.048,4.048,0,0,1-2.034-1.15,5.987,5.987,0,0,1,.24-2.033c.126-.326.729-.95,1.117-.774a.785.785,0,0,1,.195.2.86.86,0,0,0,.977.362A.91.91,0,0,0,4620.215,1893.266Zm12.894-32.448a5.12,5.12,0,0,1,.222,1.821c-.038,1.7-.162,3.395-.264,5.087q-.107,1.761-.236,3.521h-.6Q4632.588,1866.025,4633.109,1860.817Zm-1.555,23.833c.021-3.695.29-7.41.517-11.089.012-.2.027-.393.04-.59h.591q-.191,2.458-.424,4.911Q4631.956,1881.27,4631.555,1884.65Z" transform="translate(-4581.005 -1832.506)" fill="#fff" style="&#10;    fill: #000000;&#10;"/>
  </g>
</svg>