<svg xmlns="http://www.w3.org/2000/svg" id="b4944583-c201-42f9-8df3-05d47b6498e7" data-name="Layer 1" width="913.22255" height="852.58019" viewBox="0 0 913.22255 852.58019"><title>everyday design</title><circle cx="202.36981" cy="247.49134" r="54.31516" fill="#ff6584"/><path d="M1030.61127,453.29009c0,231.9596-188.0404,420-420,420s-597.99531-271.26226-420-420c179.13532-149.69036,275.34235-379.90594,420-420C834.14374-28.66532,1030.61127,221.3305,1030.61127,453.29009Z" transform="translate(-143.38873 -23.70991)" fill="#f2f2f2"/><polygon points="444.723 556.681 457.973 579.631 471.223 602.58 444.723 602.58 418.223 602.58 431.473 579.631 444.723 556.681" fill="#ff6584"/><polygon points="382.936 548.542 383.788 496.142 419.223 431.315 383.921 487.922 384.304 464.361 408.725 417.459 384.405 458.126 384.405 458.126 385.094 415.75 411.245 378.41 385.202 409.086 385.632 331.383 382.929 434.248 383.151 430.004 356.563 389.307 382.725 438.15 380.247 485.477 380.173 484.221 349.522 441.393 380.081 488.658 379.771 494.577 379.715 494.666 379.741 495.152 373.455 615.224 381.853 615.224 382.861 553.204 413.344 506.055 382.936 548.542" fill="#3f3d56"/><polygon points="810.936 649.542 811.788 597.142 847.223 532.315 811.921 588.922 812.304 565.361 836.725 518.459 812.405 559.126 812.405 559.126 813.094 516.75 839.245 479.41 813.202 510.086 813.632 432.383 810.929 535.248 811.151 531.004 784.563 490.307 810.725 539.15 808.247 586.477 808.173 585.221 777.522 542.393 808.081 589.658 807.771 595.577 807.715 595.666 807.741 596.152 801.455 716.224 809.853 716.224 810.861 654.204 841.344 607.055 810.936 649.542" fill="#3f3d56"/><rect x="547.22255" y="600.58019" width="366" height="252" fill="#3f3d56"/><polygon points="303.817 600.58 303.817 691.58 181.223 691.58 181.223 852.58 564.723 852.58 564.723 600.58 303.817 600.58" fill="#3f3d56"/><rect x="547.22255" y="600.58019" width="117" height="91" opacity="0.1"/><rect x="796.22255" y="761.58019" width="117" height="91" opacity="0.1"/><circle cx="358.72255" cy="272.29009" r="26" fill="#6c63ff"/><rect x="510.22255" y="180.58019" width="44" height="44" fill="#6c63ff"/></svg>