<svg id="Component_44_5" data-name="Component 44 – 5" xmlns="http://www.w3.org/2000/svg" width="56" height="56" viewBox="0 0 56 56">
  <circle id="Ellipse_11974" data-name="Ellipse 11974" cx="28" cy="28" r="28" fill="#fff"/>
  <g id="noun_Hammer_3865892" transform="translate(15.703 17.684)">
    <g id="Group_164115" data-name="Group 164115">
      <g id="Group_164114" data-name="Group 164114">
        <path id="Path_76768" data-name="Path 76768" d="M551.913,70.3,540.128,82.089a.723.723,0,0,1-1.023,0L536.212,79.2a.723.723,0,0,1,0-1.023L548,66.388l-3.105-3.105a.723.723,0,0,1,0-1.023,4.3,4.3,0,0,1,6.086,0l4.807,4.807,2.174-.311a.723.723,0,0,1,.614.2l1.808,1.808a.723.723,0,0,1,0,1.023l-5.425,5.425a.723.723,0,0,1-1.023,0l-1.808-1.808a.723.723,0,0,1-.2-.614l.311-2.174Zm-14.167,8.38,1.87,1.87L550.89,69.282l-1.87-1.87Zm21.1-9.4-1.041-1.041-2.174.311a.723.723,0,0,1-.614-.2l-5.063-5.063a2.858,2.858,0,0,0-3.463-.446l7.018,7.018a.723.723,0,0,1,.2.614l-.31,2.174,1.041,1.041Z" transform="translate(-536 -61)"/>
      </g>
    </g>
  </g>
</svg>
