<svg xmlns="http://www.w3.org/2000/svg" width="76.944" height="71.954" viewBox="0 0 76.944 71.954" style="&#10;">
  <g id="Group_163607" data-name="Group 163607" transform="translate(1 1)">
    <rect id="Rectangle_253240" data-name="Rectangle 253240" width="74.944" height="33.745" rx="2.224" transform="translate(0 36.208)" fill="none" stroke="#fff" stroke-linecap="round" stroke-linejoin="round" stroke-width="2"/>
    <line id="Line_33503" data-name="Line 33503" y2="25.737" transform="translate(47.334 10.409)" fill="none" stroke="#fff" stroke-linecap="round" stroke-linejoin="round" stroke-width="2"/>
    <path id="Path_74279" data-name="Path 74279" d="M335.681,977.962V945.554a3.712,3.712,0,0,1,3.715-3.713H364.42" transform="translate(-328.557 -941.818)" fill="none" stroke="#fff" stroke-linecap="round" stroke-linejoin="round" stroke-width="2"/>
    <path id="Path_74280" data-name="Path 74280" d="M351.624,941.828v7.4a3.008,3.008,0,0,0,3.007,3.01H363.1Z" transform="translate(-315.762 -941.828)" fill="none" stroke="#fff" stroke-linecap="round" stroke-linejoin="round" stroke-width="2"/>
    <path id="Path_74281" data-name="Path 74281" d="M362.223,974.567V955.34l5.6-9.792,5.6,9.792v19.544" transform="translate(-307.256 -938.842)" fill="none" stroke="#fff" stroke-linecap="round" stroke-linejoin="round" stroke-width="2"/>
    <path id="Path_74282" data-name="Path 74282" d="M355.206,966.925a7.809,7.809,0,1,1-7.929,7.688,7.821,7.821,0,0,1,7.929-7.688" transform="translate(-319.252 -921.689)" fill="none" stroke="#fff" stroke-miterlimit="10" stroke-width="2"/>
  </g>
</svg>