<svg xmlns="http://www.w3.org/2000/svg" width="54.408" height="72.993" viewBox="0 0 54.408 72.993">
  <g id="Group_148803" data-name="Group 148803" transform="translate(0.5 0.5)">
    <path id="Path_42029" data-name="Path 42029" d="M51.648,83.09H44.087a5.833,5.833,0,0,1-4.131-1.714l-10.777-10.8a5.837,5.837,0,0,1-1.7-4.121V37.721A20.768,20.768,0,0,1,48.243,16.953h0A20.767,20.767,0,0,1,69.009,37.721v28.26A4.685,4.685,0,0,1,67.823,69.1L55.142,81.523A4.679,4.679,0,0,1,51.648,83.09Z" transform="translate(-21.601 -11.096)" fill="none" stroke="#a2d0ff" stroke-linecap="round" stroke-linejoin="round" stroke-width="1"/>
    <path id="Path_42030" data-name="Path 42030" d="M73.6,49.175a6,6,0,0,1,6,6h0a6,6,0,0,1-6,6" transform="translate(-26.192 -14.303)" fill="none" stroke="#a2d0ff" stroke-linecap="round" stroke-linejoin="round" stroke-width="1"/>
    <path id="Path_42031" data-name="Path 42031" d="M43.875,17.532V16.448a6,6,0,0,1,6-6h0a6,6,0,0,1,6,6v.184" transform="translate(-23.234 -10.449)" fill="none" stroke="#a2d0ff" stroke-linecap="round" stroke-linejoin="round" stroke-width="1"/>
    <path id="Path_42032" data-name="Path 42032" d="M20.952,66.7V45.317c0-15.341,12.436-28.33,27.778-28.33h0V46.5a20.2,20.2,0,0,1-20.2,20.2Z" transform="translate(-20.952 -11.1)" fill="none" stroke="#a2d0ff" stroke-linecap="round" stroke-linejoin="round" stroke-width="1"/>
    <line id="Line_134" data-name="Line 134" y1="22.85" transform="translate(18.849 29.311)" fill="none" stroke="#a2d0ff" stroke-linecap="round" stroke-linejoin="round" stroke-width="1"/>
    <line id="Line_135" data-name="Line 135" y1="22.85" transform="translate(12.487 32.013)" fill="none" stroke="#a2d0ff" stroke-linecap="round" stroke-linejoin="round" stroke-width="1"/>
    <line id="Line_136" data-name="Line 136" y1="20.148" transform="translate(5.874 35.614)" fill="none" stroke="#a2d0ff" stroke-linecap="round" stroke-linejoin="round" stroke-width="1"/>
    <path id="Path_42033" data-name="Path 42033" d="M51.8,19.315s-.023,17.869,19.63,18.641H52.293" transform="translate(-24.022 -11.331)" fill="none" stroke="#a2d0ff" stroke-linecap="round" stroke-linejoin="round" stroke-width="1"/>
    <path id="Path_42034" data-name="Path 42034" d="M57.1,50.9s3.47,4.056,7.384,0" transform="translate(-24.55 -14.475)" fill="none" stroke="#a2d0ff" stroke-linecap="round" stroke-linejoin="round" stroke-width="1"/>
    <path id="Path_42035" data-name="Path 42035" d="M51.8,46V61.488a2.174,2.174,0,0,0,2.175,2.175H54.4a2.174,2.174,0,0,0,2.175-2.175h0" transform="translate(-24.022 -13.987)" fill="none" stroke="#a2d0ff" stroke-linecap="round" stroke-linejoin="round" stroke-width="1"/>
    <path id="Path_42036" data-name="Path 42036" d="M49.883,73.42l9.871-7.115a.878.878,0,0,1,1.368.913l-.8,3.39a5.874,5.874,0,0,1-5.9,4.528l-4.053-.128A.878.878,0,0,1,49.883,73.42Z" transform="translate(-23.795 -15.992)" fill="none" stroke="#a2d0ff" stroke-linecap="round" stroke-linejoin="round" stroke-width="1"/>
  </g>
</svg>
