<svg xmlns="http://www.w3.org/2000/svg" xmlns:xlink="http://www.w3.org/1999/xlink" width="119" height="99" viewBox="0 0 119 99">
  <defs>
    <clipPath id="clip-logo">
      <rect width="119" height="99"/>
    </clipPath>
  </defs>
  <g id="logo" clipPath="url(#clip-logo)">
    <path id="Path_76161" data-name="Path 76161" d="M675.511-735.536q-8.4,4.392-16.476,9.376c-5.415,3.346-10.618,6.967-15.84,10.6a2.88,2.88,0,0,1-2.364.743,5.727,5.727,0,0,1-2.1-1.269,10.555,10.555,0,0,1-2.74-3.674.718.718,0,0,0-1.2-.086l.168-.689a.747.747,0,0,0-1.36-.573c-.937,1.63-1.941,3.5-1.486,5.442.02.085.044.17.069.253l-.9,3.7a20.771,20.771,0,0,1-5.43-2.1.754.754,0,0,0-1.093.445l-.733,2.223a83.514,83.514,0,0,1-3.968-8.578l-2.828-6.79a136.691,136.691,0,0,0-1.708-14.414,67.366,67.366,0,0,0-3.419-13.056c-1.649-4.163-4.051-8.027-7.762-10.641a.753.753,0,0,0-1.018.267c-1.833,2.974-.706,6.557.514,9.534,1.566,3.819,3.175,7.622,4.762,11.433l7.165,17.2c.249,3.677.39,7.362.482,11.041.064,2.574.1,5.148.141,7.723a13.612,13.612,0,0,1-.121,2.942l-2.7-3.153a.751.751,0,0,0-1.27.526l.15,6.97a2.56,2.56,0,0,1-2.029-2.245.744.744,0,0,0-1.488,0q-.028,1.983-.055,3.966a2.74,2.74,0,0,1-1.781-2.083c-.01-.082-.02-.164-.031-.246,0-.024-.006-.048-.007-.073h0c-.009-.066-.015-.132-.025-.2-.116-.831-1.5-.632-1.461.2a4.216,4.216,0,0,0,.082.653,24.551,24.551,0,0,1,.051,5.248,10.044,10.044,0,0,1-3.9-2.413.75.75,0,0,0-1.244.724,24.131,24.131,0,0,1,.952,4.6,9.372,9.372,0,0,0-4.371-2.48l-9.453-23.6-13.693-34.186c-1.278-3.191-2.566-6.378-3.833-9.573a48.26,48.26,0,0,1-2.9-9.35c-.146-.828-1.495-.633-1.461.2.55,13.645,4.148,26.879,7.729,39.979,1.793,6.558,3.587,13.121,5,19.772a138.37,138.37,0,0,1,2.737,19.137,21.766,21.766,0,0,0-2.55.457,19.9,19.9,0,0,0-6.416,2.822.756.756,0,0,0,0,1.285,14.436,14.436,0,0,0,9.27,2.621q.053,3.455-.071,6.91-.112,3.054-.365,6.1a14.159,14.159,0,0,1-.311,2.6c-.179.644-.789,1.562-1.548,1.057-.8-.532-1.545.756-.751,1.285a2.421,2.421,0,0,0,3.318-.944c.79-1.3.711-3.117.826-4.58q.444-5.658.4-11.341,0-.619-.015-1.238.615-.091,1.221-.228a14.763,14.763,0,0,0,5.648-2.611,13.614,13.614,0,0,0,1.659-1.489,20.612,20.612,0,0,1,3.628,1.784,18.764,18.764,0,0,1,4.916,4.443c.447.577,1.513-.051,1.243-.724l-3.547-8.855a13.272,13.272,0,0,1,4.026,3.2.751.751,0,0,0,1.27-.526,25.694,25.694,0,0,0-.564-4.723,11.537,11.537,0,0,0,3.579,1.564.758.758,0,0,0,.942-.717,25.152,25.152,0,0,0,.211-3.648,4.2,4.2,0,0,0,2.314.816.754.754,0,0,0,.744-.744q.014-1.008.028-2.016a3.915,3.915,0,0,0,2.829.958.757.757,0,0,0,.744-.744q-.061-2.858-.123-5.716l1.681,1.96a1.174,1.174,0,0,1-.562.19c-.941.077-.969,1.517,0,1.488a4.11,4.11,0,0,0,2.212-.688.753.753,0,0,0,.187-1.121,5.436,5.436,0,0,0,.4-1.308,33.823,33.823,0,0,0,.077-6.466c-.063-3.684-.154-7.369-.33-11.05l.564,1.354a83.478,83.478,0,0,0,5.518,11.727.753.753,0,0,0,1.36-.178l.974-2.953a22.07,22.07,0,0,0,5.73,1.982.758.758,0,0,0,.915-.52l.732-3.011a3.156,3.156,0,0,0,2.085.847.754.754,0,0,0,.744-.744q0-1.578-.008-3.156a11.394,11.394,0,0,0,1.058,1.189,7.359,7.359,0,0,0,3.626,2.2c1.628.269,2.912-.784,4.152-1.672q2.04-1.462,4.108-2.884,8.386-5.768,17.2-10.873,4.947-2.864,10.016-5.511C677.111-734.7,676.36-735.98,675.511-735.536Zm-94.45,29.56c-2.451-14.036-7.026-27.573-10.267-41.426a144.1,144.1,0,0,1-2.935-16.269q.218.589.446,1.174c1.092,2.815,2.237,5.61,3.36,8.413l6.846,17.093L592.2-702.8l3.308,8.259a4.52,4.52,0,0,0-2.035.813,13.115,13.115,0,0,0-2.35,2.595,23.233,23.233,0,0,0-8.386-1.1A135.033,135.033,0,0,0,581.061-705.976ZM579.7-686.422a12.8,12.8,0,0,1-5.652-1.751,19.313,19.313,0,0,1,7.308-2.446c.007.127.016.254.023.382q.105,1.91.154,3.822A14.472,14.472,0,0,1,579.7-686.422Zm3.318-.156q-.058-2.089-.182-4.174a21.543,21.543,0,0,1,7.167.822A13.343,13.343,0,0,1,583.019-686.578Zm9.565-4.03a7.357,7.357,0,0,1,2.013-2.085,3.121,3.121,0,0,1,1.484-.428l2.446,6.107A21.218,21.218,0,0,0,592.584-690.608Zm13.689-62.2c-1.217-2.922-3.369-6.848-2.045-10.054,6,4.682,8.011,12.994,9.434,20.092a118.15,118.15,0,0,1,1.71,11.8ZM633.731-715.5l.874-3.594q.006,2.3.013,4.608A2.17,2.17,0,0,1,633.731-715.5Z" transform="translate(-834.304 385.441) rotate(30)" fill="#f8fafc"/>
  </g>
</svg>
