<svg xmlns="http://www.w3.org/2000/svg" width="56.783" height="71.237" viewBox="0 0 56.783 71.237">
  <g id="Group_159019" data-name="Group 159019" transform="translate(0.5 0.5)">
    <g id="Group_148801" data-name="Group 148801" transform="translate(0 0)">
      <path id="Path_42045" data-name="Path 42045" d="M49.088,13.5h0A23.188,23.188,0,0,1,72.275,36.688v20.07a21.006,21.006,0,0,1-5.223,13.863L58.131,80.78A8.7,8.7,0,0,1,51.6,83.737h-5.01a8.691,8.691,0,0,1-6.545-2.973L31.088,70.515A21.01,21.01,0,0,1,25.9,56.693v-20A23.188,23.188,0,0,1,49.088,13.5Z" transform="translate(-20.968 -13.5)" fill="none" stroke="#a2d0ff" stroke-linecap="round" stroke-linejoin="round" stroke-width="1"/>
      <path id="Path_42046" data-name="Path 42046" d="M74.1,40.606h0a4.476,4.476,0,0,1,4.476,4.476V50.41A4.476,4.476,0,0,1,74.1,54.886h0" transform="translate(-22.793 -14.526)" fill="none" stroke="#a2d0ff" stroke-linecap="round" stroke-linejoin="round" stroke-width="1"/>
      <path id="Path_42047" data-name="Path 42047" d="M25.25,40.606h0a4.476,4.476,0,0,0-4.476,4.476V50.41a4.476,4.476,0,0,0,4.476,4.476h0" transform="translate(-20.774 -14.526)" fill="none" stroke="#a2d0ff" stroke-linecap="round" stroke-linejoin="round" stroke-width="1"/>
      <line id="Line_140" data-name="Line 140" y1="3.368" x2="9.333" transform="translate(34.085 27.421)" fill="none" stroke="#a2d0ff" stroke-linecap="round" stroke-linejoin="round" stroke-width="1"/>
      <circle id="Ellipse_697" data-name="Ellipse 697" cx="1.646" cy="1.646" r="1.646" transform="translate(36.217 29.363)" fill="none" stroke="#a2d0ff" stroke-linecap="round" stroke-linejoin="round" stroke-width="1"/>
      <line id="Line_141" data-name="Line 141" x1="9.333" y1="3.368" transform="translate(12.918 27.421)" fill="none" stroke="#a2d0ff" stroke-linecap="round" stroke-linejoin="round" stroke-width="1"/>
      <circle id="Ellipse_698" data-name="Ellipse 698" cx="1.646" cy="1.646" r="1.646" transform="translate(16.826 29.363)" fill="none" stroke="#a2d0ff" stroke-linecap="round" stroke-linejoin="round" stroke-width="1"/>
      <path id="Path_42048" data-name="Path 42048" d="M46.3,54.4a3.625,3.625,0,0,0,3.56,2.766s3.059.309,3.656-2.574" transform="translate(-21.74 -15.048)" fill="none" stroke="#a2d0ff" stroke-linecap="round" stroke-linejoin="round" stroke-width="1"/>
      <path id="Path_42049" data-name="Path 42049" d="M40.6,82.578V70.49a9.052,9.052,0,0,1,9.052-9.052h0A9.052,9.052,0,0,1,58.7,70.49v12.1" transform="translate(-21.525 -15.315)" fill="none" stroke="#a2d0ff" stroke-linecap="round" stroke-linejoin="round" stroke-width="1"/>
      <line id="Line_142" data-name="Line 142" x2="7.024" transform="translate(24.656 53.495)" fill="none" stroke="#a2d0ff" stroke-linecap="round" stroke-linejoin="round" stroke-width="1"/>
      <line id="Line_143" data-name="Line 143" y1="9.696" transform="translate(28.569 60.541)" fill="none" stroke="#a2d0ff" stroke-linecap="round" stroke-linejoin="round" stroke-width="1"/>
      <g id="Group_148792" data-name="Group 148792" transform="translate(12.195 6.589)">
        <circle id="Ellipse_699" data-name="Ellipse 699" cx="0.531" cy="0.531" r="0.531" transform="translate(5.773 0)" fill="#a2d0ff"/>
        <circle id="Ellipse_700" data-name="Ellipse 700" cx="0.531" cy="0.531" r="0.531" transform="translate(9.621 0)" fill="#a2d0ff"/>
        <circle id="Ellipse_701" data-name="Ellipse 701" cx="0.531" cy="0.531" r="0.531" transform="translate(13.47 0)" fill="#a2d0ff"/>
        <circle id="Ellipse_702" data-name="Ellipse 702" cx="0.531" cy="0.531" r="0.531" transform="translate(17.319 0)" fill="#a2d0ff"/>
        <circle id="Ellipse_703" data-name="Ellipse 703" cx="0.531" cy="0.531" r="0.531" transform="translate(21.167 0)" fill="#a2d0ff"/>
        <circle id="Ellipse_704" data-name="Ellipse 704" cx="0.531" cy="0.531" r="0.531" transform="translate(25.016 0)" fill="#a2d0ff"/>
        <circle id="Ellipse_705" data-name="Ellipse 705" cx="0.531" cy="0.531" r="0.531" transform="translate(5.773 7.697)" fill="#a2d0ff"/>
        <circle id="Ellipse_706" data-name="Ellipse 706" cx="0.531" cy="0.531" r="0.531" transform="translate(1.924 7.697)" fill="#a2d0ff"/>
        <circle id="Ellipse_707" data-name="Ellipse 707" cx="0.531" cy="0.531" r="0.531" transform="translate(9.621 7.697)" fill="#a2d0ff"/>
        <circle id="Ellipse_708" data-name="Ellipse 708" cx="0.531" cy="0.531" r="0.531" transform="translate(13.47 7.697)" fill="#a2d0ff"/>
        <circle id="Ellipse_709" data-name="Ellipse 709" cx="0.531" cy="0.531" r="0.531" transform="translate(17.319 7.697)" fill="#a2d0ff"/>
        <circle id="Ellipse_710" data-name="Ellipse 710" cx="0.531" cy="0.531" r="0.531" transform="translate(21.167 7.697)" fill="#a2d0ff"/>
        <circle id="Ellipse_711" data-name="Ellipse 711" cx="0.531" cy="0.531" r="0.531" transform="translate(25.016 7.697)" fill="#a2d0ff"/>
        <circle id="Ellipse_712" data-name="Ellipse 712" cx="0.531" cy="0.531" r="0.531" transform="translate(28.864 7.697)" fill="#a2d0ff"/>
        <circle id="Ellipse_713" data-name="Ellipse 713" cx="0.531" cy="0.531" r="0.531" transform="translate(3.849 11.546)" fill="#a2d0ff"/>
        <circle id="Ellipse_714" data-name="Ellipse 714" cx="0.531" cy="0.531" r="0.531" transform="translate(0 11.546)" fill="#a2d0ff"/>
        <circle id="Ellipse_715" data-name="Ellipse 715" cx="0.531" cy="0.531" r="0.531" transform="translate(7.697 11.546)" fill="#a2d0ff"/>
        <circle id="Ellipse_716" data-name="Ellipse 716" cx="0.531" cy="0.531" r="0.531" transform="translate(11.546 11.546)" fill="#a2d0ff"/>
        <circle id="Ellipse_717" data-name="Ellipse 717" cx="0.531" cy="0.531" r="0.531" transform="translate(15.394 11.546)" fill="#a2d0ff"/>
        <circle id="Ellipse_718" data-name="Ellipse 718" cx="0.531" cy="0.531" r="0.531" transform="translate(19.243 11.546)" fill="#a2d0ff"/>
        <circle id="Ellipse_719" data-name="Ellipse 719" cx="0.531" cy="0.531" r="0.531" transform="translate(23.091 11.546)" fill="#a2d0ff"/>
        <circle id="Ellipse_720" data-name="Ellipse 720" cx="0.531" cy="0.531" r="0.531" transform="translate(26.94 11.546)" fill="#a2d0ff"/>
        <circle id="Ellipse_721" data-name="Ellipse 721" cx="0.531" cy="0.531" r="0.531" transform="translate(30.789 11.546)" fill="#a2d0ff"/>
        <circle id="Ellipse_722" data-name="Ellipse 722" cx="0.531" cy="0.531" r="0.531" transform="translate(3.849 3.849)" fill="#a2d0ff"/>
        <circle id="Ellipse_723" data-name="Ellipse 723" cx="0.531" cy="0.531" r="0.531" transform="translate(7.697 3.849)" fill="#a2d0ff"/>
        <circle id="Ellipse_724" data-name="Ellipse 724" cx="0.531" cy="0.531" r="0.531" transform="translate(11.546 3.849)" fill="#a2d0ff"/>
        <circle id="Ellipse_725" data-name="Ellipse 725" cx="0.531" cy="0.531" r="0.531" transform="translate(15.394 3.849)" fill="#a2d0ff"/>
        <circle id="Ellipse_726" data-name="Ellipse 726" cx="0.531" cy="0.531" r="0.531" transform="translate(19.243 3.849)" fill="#a2d0ff"/>
        <circle id="Ellipse_727" data-name="Ellipse 727" cx="0.531" cy="0.531" r="0.531" transform="translate(23.091 3.849)" fill="#a2d0ff"/>
        <circle id="Ellipse_728" data-name="Ellipse 728" cx="0.531" cy="0.531" r="0.531" transform="translate(26.94 3.849)" fill="#a2d0ff"/>
      </g>
    </g>
  </g>
</svg>
