<svg xmlns="http://www.w3.org/2000/svg" width="1256.797" height="1301.671" viewBox="0 0 1256.797 1301.671">
  <path id="Path_76183" data-name="Path 76183" d="M159.664,2297.749c-238.395,66.826-212.691,196.2-109.784,243.016S178.786,2282.114,203.3,2421.679s118.266,11.085,228.325-197.1,201.4,95.67,102.54,282.454,181.854,180.785,348.768,180.785,147.012,216.867,13.288,239.653,35.235,224.53,124.147,352.013-82.782,229.774-200.235,144.023,22.734-135.841,22.734-135.841l-450.685-69.009s-91.665-260.421,32.312-257.772,74.45-180.11,74.45-180.11-7.132-124.265-29.545-240.014-266.1,40.526-266.1,40.526,115.153,203.939,177.082,146.521,102.547,158.661,60.48,105.234S117.054,2875.118,49.88,2855.36s-97.532,153.476-97.532,153.476S38,3075.262-66.819,3165.674s-2.091-71.946-93.382-165.066-58.14,192.126,93.382,218.053,54.8,66.616,151.05,104.5,76.974-53.761,146.94-119.689-42.04-165.026-85.253-131.8-11.138,150.388,44.6,121.951,148.467,73.407,148.467,94.044,111.96,75.315,256.468-33.118S390.605,3104.23,270.09,3055.844s-61.077-132.616-52.148-181.251-233.9,3.317-219.8-146.782,85.319,40.224,137.284,97.643-90.275,8.115-51.191,153.967,105.431-2.747,193.942-124.062S128.29,2635.432,128.29,2635.432s-154.157-138.28-195.109,35.917" transform="translate(211.234 -2153.962)" fill="none" stroke="#707070" stroke-width="1" opacity="0.38"/>
</svg>
