<svg xmlns="http://www.w3.org/2000/svg" xmlns:xlink="http://www.w3.org/1999/xlink" width="371.099" height="278.327" viewBox="0 0 371.099 278.327">
  <defs>
    <linearGradient id="linear-gradient" x1="-0.079" y1="0.934" x2="1.083" y2="0.063" gradientUnits="objectBoundingBox">
      <stop offset="0" stop-color="#d30000"/>
      <stop offset="1" stop-color="#c600c6"/>
    </linearGradient>
  </defs>
  <path id="Path_69507" data-name="Path 69507" d="M271.686,12.465a111.64,111.64,0,0,1,27.465,37.871v-3.52a112.672,112.672,0,0,0-25.36-34.352Zm-233.159,0H36.213l-.089.069c-5.057,4.034-10.169,8.4-15.3,13v1.933c5.433-4.9,10.846-9.551,16.195-13.812C37.508,13.261,38.032,12.856,38.526,12.465ZM31.808,286.526c-.054,10.737-.084,17.836,14.094,26.23,5.69,3.4,11.177,8.246,16.481,12.932,8.656,7.638,16.961,14.973,25.063,14.973a14.137,14.137,0,0,0,9.264-3.653c6.154-5.156,12.937-9.887,19.5-14.459,11.261-7.85,22.9-15.967,31.657-26.472,20.391-24.48,13.233-34.7,6.911-43.714-2.669-3.806-5.186-7.405-5.482-11.829-.262-3.777-.41-7.46-.549-11.019-.776-19.423-1.443-36.2-20.96-47.911-18.829-11.291-41.529,2.289-59.207,15.384-9.674,7.173-19.927,19.3-27.416,28.158-3.179,3.762-5.922,7.01-7.939,9.076-10.253,10.5-8.7,15.147-5.873,23.585a82.016,82.016,0,0,1,3.263,11.968A83.377,83.377,0,0,1,31.808,286.526Zm2.437-51.307c2.056-2.106,4.815-5.369,8.008-9.15,7.445-8.8,17.638-20.861,27.174-27.93,12.843-9.521,28.37-19.309,42.918-19.309a28.042,28.042,0,0,1,14.707,4c18.859,11.315,19.482,26.951,20.268,46.745.143,3.569.287,7.262.554,11.058.321,4.82,2.951,8.577,5.739,12.551,6.318,9.017,12.853,18.34-6.842,41.979-8.631,10.356-20.194,18.419-31.381,26.215-6.585,4.592-13.4,9.338-19.6,14.533-10.089,8.458-20.456-.687-32.463-11.3-5.354-4.726-10.9-9.62-16.7-13.085-13.471-7.979-13.441-14.385-13.4-25a84.913,84.913,0,0,0-1.211-17.02,84.9,84.9,0,0,0-3.312-12.156C25.891,248.932,24.606,245.1,34.245,235.219Zm9.531,81.116c6.09,3.623,11.958,8.8,17.633,13.807,9.21,8.122,18.048,15.918,26.655,15.918a15,15,0,0,0,9.867-3.91c6.624-5.586,13.945-10.688,21.019-15.621,11.948-8.33,24.3-16.941,33.6-28.078,21.805-26.126,14.113-37,7.326-46.6-2.877-4.058-5.591-7.895-5.907-12.625-.287-4.093-.44-8.073-.588-11.923-.806-20.673-1.5-38.524-22.324-50.981-20.07-12.012-44.312,2.59-63.181,16.654-10.307,7.682-21.247,20.629-29.235,30.076-3.376,4-6.293,7.45-8.433,9.645-10.875,11.167-9.21,16.076-6.184,24.989a87.05,87.05,0,0,1,3.53,12.833,87.88,87.88,0,0,1,1.256,17.954C28.728,299.878,28.679,307.407,43.776,316.334Zm-18.4-59.108c-3.025-8.918-4.409-12.991,5.858-23.53,2.175-2.234,5.107-5.7,8.5-9.719,7.944-9.4,18.819-22.27,28.993-29.858,13.752-10.248,30.387-20.812,45.968-20.812a29.9,29.9,0,0,1,15.631,4.241c20.154,12.057,20.807,28.716,21.627,49.809.148,3.866.306,7.855.593,11.968.341,5.126,3.169,9.121,6.164,13.352,6.807,9.62,13.846,19.571-7.262,44.856-9.175,10.989-21.444,19.546-33.309,27.821-7.109,4.953-14.454,10.075-21.128,15.7-10.782,9.071-21.845-.682-34.653-11.983-5.724-5.052-11.647-10.272-17.851-13.97-14.4-8.508-14.351-15.325-14.272-26.62a89.145,89.145,0,0,0-1.28-18.226A89.3,89.3,0,0,0,25.372,257.226ZM34.8,284.578c-.015,10.08-.025,16.738,13.219,24.6,5.294,3.169,10.406,7.682,15.344,12.052,8.1,7.158,15.868,14.024,23.466,14.024a13.252,13.252,0,0,0,8.661-3.391c5.675-4.731,11.928-9.086,17.974-13.293,10.579-7.371,21.519-14.993,29.729-24.87,18.973-22.833,12.344-32.394,6.5-40.837-2.462-3.549-4.785-6.906-5.062-11.029-.237-3.46-.376-6.837-.5-10.1-.742-18.177-1.384-33.882-19.605-44.856C106.948,176.3,85.775,188.869,69.289,201c-9.041,6.654-18.612,17.974-25.6,26.239-2.976,3.52-5.546,6.56-7.445,8.5-9.62,9.832-8.176,14.222-5.556,22.181a77.9,77.9,0,0,1,2.991,11.108A78.475,78.475,0,0,1,34.8,284.578Zm2.467-47.837c1.933-1.977,4.518-5.037,7.514-8.582,6.94-8.206,16.447-19.452,25.355-26.007,11.928-8.779,26.348-17.806,39.863-17.806A26.2,26.2,0,0,1,123.78,188.1c17.564,10.579,18.157,25.191,18.913,43.695.133,3.273.272,6.659.514,10.139.3,4.513,2.729,8.028,5.309,11.745,5.828,8.414,11.859,17.109-6.421,39.107-8.087,9.729-18.948,17.292-29.453,24.613-6.066,4.227-12.344,8.6-18.068,13.367-9.4,7.835-19.072-.712-30.263-10.6-4.993-4.414-10.149-8.972-15.557-12.21-12.551-7.45-12.541-13.446-12.527-23.372a79.669,79.669,0,0,0-1.147-15.814,81.215,81.215,0,0,0-3.035-11.291C29.44,249.564,28.249,245.956,37.266,236.741Zm.148,90.315c7.287,4.311,14.291,10.48,21.069,16.442,10.87,9.57,21.306,18.755,31.44,18.755a17.581,17.581,0,0,0,11.671-4.671c8.043-6.866,16.951-13.085,25.572-19.1,14-9.773,28.479-19.877,39.413-32.913,26.062-31.064,16.768-43.9,8.572-55.227-3.49-4.83-6.787-9.383-7.173-15.028-.351-5.027-.529-9.911-.707-14.632-.9-24.42-1.686-45.514-26.4-60.191C117,146.317,88.187,163.975,65.754,180.94c-12.2,9.219-25.187,24.6-34.678,35.835-3.979,4.711-7.415,8.775-9.921,11.36-.119.124-.218.232-.331.351v2.091c.445-.48.87-.949,1.354-1.448,2.541-2.62,5.991-6.7,9.986-11.434,9.452-11.182,22.384-26.492,34.45-35.617,16.481-12.467,36.433-25.325,55.119-25.325a35.4,35.4,0,0,1,18.4,4.963c24.054,14.281,24.786,34.025,25.706,59.014.178,4.736.361,9.63.712,14.682.41,6.051,3.826,10.767,7.44,15.764,8.28,11.439,16.837,23.263-8.508,53.472-10.816,12.9-25.216,22.947-39.137,32.666-8.646,6.031-17.589,12.274-25.681,19.18-12.823,10.95-26-.643-41.243-14.069-6.827-6.006-13.881-12.22-21.286-16.6-17.163-10.089-17.055-18.607-16.9-31.5a129.113,129.113,0,0,0-.42-14.1v28.415C22.48,315.069,26.717,320.769,37.414,327.057Zm204,16.5v0c48.776-57.343,30.955-80.676,15.226-101.255-6.8-8.908-13.228-17.317-13.965-27.841-.712-10.025-1.018-19.719-1.315-29.092-1.414-44.456-2.635-82.846-48.188-109.293C148.66,50.015,92.666,86.818,54.439,116.76c-11.123,8.71-22.665,20.159-33.615,32.013V150.9c11.221-12.215,23.086-24.074,34.495-33.012,28.9-22.641,68-49.246,104.36-49.246a63.737,63.737,0,0,1,32.775,8.666c44.871,26.052,46.018,62.262,47.476,108.112.3,9.387.608,19.091,1.32,29.146.766,10.945,7.316,19.521,14.252,28.6,15.4,20.159,32.854,43-15.176,99.466v0c-13.115,15.483-29.052,28.662-45.637,40.931h2.407C213.191,371.567,228.619,358.66,241.412,343.553ZM37.8,282.621c.02,9.066.03,15.621,12.344,22.987,4.919,2.946,9.664,7.143,14.257,11.207,7.524,6.654,14.741,13.046,21.815,13.046a12.385,12.385,0,0,0,8.053-3.139c5.2-4.3,10.91-8.275,16.437-12.121,9.9-6.891,20.139-14.019,27.806-23.269,17.564-21.182,11.464-30.09,6.085-37.95-2.254-3.3-4.39-6.417-4.642-10.233-.213-3.149-.341-6.219-.465-9.19-.707-16.931-1.315-31.559-18.241-41.8C104.95,182.3,85.3,193.852,70,205.015c-8.419,6.145-17.307,16.654-23.792,24.326-2.773,3.282-5.171,6.115-6.941,7.924-9,9.17-7.662,13.293-5.24,20.782a74.8,74.8,0,0,1,2.719,10.238A74.367,74.367,0,0,1,37.8,282.621Zm2.482-44.357c1.809-1.844,4.222-4.7,7.01-8,6.441-7.618,15.265-18.053,23.545-24.1,11.024-8.038,24.326-16.3,36.808-16.3a24.376,24.376,0,0,1,12.868,3.52c16.269,9.837,16.832,23.427,17.549,40.63.124,2.981.252,6.061.475,9.229.277,4.2,2.516,7.474,4.884,10.94,5.339,7.806,10.866,15.878-6.006,36.235-7.544,9.1-17.7,16.17-27.525,23.006-5.551,3.866-11.286,7.855-16.531,12.2-8.715,7.207-17.658-.722-28.014-9.877-4.637-4.108-9.437-8.349-14.469-11.365-11.617-6.95-11.627-12.527-11.647-21.766a75.414,75.414,0,0,0-1.083-14.588,77.108,77.108,0,0,0-2.763-10.421C32.985,250.2,31.892,246.816,40.281,238.264Zm193.766,145.3h2.244a248.227,248.227,0,0,0,28.518-28.143c20.208-23.728,30.392-42.335,34.342-57.556v-7.682c-2.2,16.289-12,36.8-35.429,64.309A249.6,249.6,0,0,1,234.047,383.564Zm-210.791-32.7c-.865-.5-1.631-1-2.432-1.5v1.676c.578.351,1.1.7,1.71,1.053C32.619,358,42.278,366.48,51.621,374.676c3.475,3.045,6.911,6.051,10.322,8.888h2.215c-3.772-3.1-7.633-6.486-11.6-9.961C43.173,365.363,33.459,356.84,23.256,350.864Zm12.037-20.233c7.687,4.538,15.072,11.039,22.216,17.322,11.424,10.055,22.394,19.7,33.032,19.7,4.138,0,8.231-1.463,12.274-4.928,8.513-7.291,17.954-13.886,27.09-20.258,14.682-10.258,29.873-20.856,41.356-34.53,27.475-32.71,17.653-46.206,8.987-58.109-3.7-5.082-7.193-9.877-7.6-15.824-.371-5.339-.559-10.52-.741-15.527-.934-25.676-1.745-47.852-27.767-63.265-25.122-14.889-55.46,3.782-79.089,21.711-12.823,9.738-26.511,25.943-36.5,37.767-2.907,3.436-5.507,6.506-7.722,9v2.126c2.437-2.669,5.423-6.189,8.809-10.2,9.951-11.775,23.58-27.9,36.279-37.55,17.386-13.2,38.445-26.828,58.164-26.828a37.2,37.2,0,0,1,19.334,5.205c25.35,15.018,26.106,35.795,27.065,62.089.183,5.022.371,10.213.746,15.577.435,6.357,4.044,11.315,7.87,16.565,8.77,12.042,17.836,24.494-8.923,56.345C158.8,320.551,143.7,331.1,129.084,341.3c-9.16,6.392-18.632,13.011-27.2,20.347-13.505,11.568-27.372-.628-43.433-14.766-7.193-6.327-14.632-12.868-22.433-17.48-8.389-4.924-12.833-9.491-15.2-14.321V318.1C23.518,322.271,27.947,326.32,35.293,330.631ZM25.377,347.29c-1.646-.964-3.139-1.913-4.553-2.857v1.725c1.206.781,2.472,1.567,3.831,2.363,9.689,5.68,18.968,13.827,27.945,21.7,5.388,4.731,10.7,9.383,15.933,13.342h2.348c-5.576-4.108-11.33-9.145-17.336-14.415C44.513,361.23,35.185,353.039,25.377,347.29Zm112.882,7.01c16.694-11.656,33.951-23.713,47.036-39.236,31.727-37.649,20.307-53.1,10.228-66.741-4.316-5.843-8.394-11.36-8.868-18.221-.44-6.278-.648-12.358-.855-18.241-1.038-29.423-1.928-54.832-31.85-72.475-29.26-17.238-65.96,6.3-91.022,25.513C48.21,176.18,32.466,194.821,20.967,208.435l-.143.168v2.21c.415-.494.811-.954,1.236-1.458C33.514,195.79,49.2,177.223,63.8,166.031c20.115-15.418,44.485-31.351,67.314-31.351a42.738,42.738,0,0,1,22.117,5.937c29.245,17.242,30.08,41.094,31.143,71.293.208,5.9.42,11.988.865,18.29.5,7.277,4.7,12.957,9.14,18.973,10.238,13.856,20.826,28.187-10.173,64.971-12.962,15.384-30.145,27.381-46.759,38.983-10.757,7.514-21.884,15.28-31.9,23.965C89.977,390.5,74,376.485,55.512,360.237c-8.285-7.282-16.857-14.81-25.864-20.1a67.67,67.67,0,0,1-8.824-6.046v1.839a72.69,72.69,0,0,0,8.1,5.443c8.888,5.225,17.406,12.709,25.646,19.947,12.156,10.678,23.857,20.836,35.212,22.25h5.7a22.079,22.079,0,0,0,10.989-5.393C116.439,369.54,127.532,361.794,138.259,354.3Zm51.718-36.863c33.14-39.295,21.187-55.405,10.643-69.618-4.523-6.1-8.8-11.854-9.294-19.022-.46-6.59-.682-12.971-.895-19.146-1.068-30.669-1.992-57.16-33.21-75.545-30.54-17.974-68.837,6.674-95,26.778-14.375,11.053-29.66,28.77-41.4,42.647v2.21c11.83-13.995,27.564-32.419,42.271-43.724,19.591-15.058,46.053-32.71,70.69-32.71a43.917,43.917,0,0,1,22.71,6.036C187.04,153.322,187.905,178.2,189,209.7c.213,6.184.44,12.581.9,19.2.519,7.583,4.914,13.505,9.565,19.773,10.727,14.464,21.825,29.418-10.589,67.848-13.515,16.016-31.405,28.518-48.712,40.6-11.271,7.87-22.922,16.007-33.4,25.112-.588.509-1.177.9-1.765,1.33h2.358c.114-.094.227-.153.341-.247,10.426-9.061,22.047-17.178,33.289-25.028C158.369,346.148,176.343,333.6,189.977,317.437ZM40.8,280.673c.044,8.429.079,14.519,11.469,21.36,4.518,2.714,8.883,6.585,13.11,10.327,6.97,6.174,13.659,12.1,20.228,12.1a11.5,11.5,0,0,0,7.445-2.882c4.721-3.871,9.9-7.474,14.9-10.955,9.224-6.412,18.76-13.046,25.884-21.662,16.14-19.541,10.579-27.8,5.675-35.078-2.056-3.045-3.989-5.917-4.222-9.427-.193-2.838-.311-5.6-.425-8.28-.677-15.69-1.256-29.235-16.887-38.736-15.038-9.145-33.165,1.384-47.274,11.587-7.786,5.631-15.992,15.329-21.978,22.413-2.571,3.04-4.8,5.665-6.446,7.346-8.364,8.5-7.143,12.368-4.924,19.378a70.644,70.644,0,0,1,2.447,9.368A70.172,70.172,0,0,1,40.8,280.673Zm2.5-40.887c1.691-1.715,3.925-4.36,6.515-7.425,5.942-7.025,14.084-16.644,21.726-22.176,10.109-7.306,22.309-14.805,33.753-14.805a22.529,22.529,0,0,1,11.943,3.282c14.978,9.106,15.517,21.667,16.2,37.575.119,2.689.237,5.467.43,8.315.257,3.9,2.3,6.926,4.459,10.134,4.854,7.2,9.872,14.647-5.591,33.368-6.995,8.468-16.447,15.043-25.592,21.4-5.032,3.495-10.233,7.114-15,11.024-8.023,6.575-16.274-.722-25.824-9.185-4.271-3.787-8.686-7.7-13.317-10.48-10.7-6.431-10.727-11.592-10.777-20.149a71.188,71.188,0,0,0-1.018-13.387,73.679,73.679,0,0,0-2.487-9.541C36.534,250.83,35.535,247.681,43.3,239.786Zm13.228,112.62C68.5,362.936,80,373.045,91.158,373.045c4.345,0,8.636-1.532,12.878-5.166,9.027-7.781,19.062-14.791,28.77-21.568,15.315-10.688,31.148-21.741,43.131-35.993,28.894-34.357,18.538-48.5,9.4-60.981-3.905-5.334-7.593-10.376-8.023-16.625-.4-5.655-.588-11.142-.781-16.447-.974-26.917-1.809-50.17-29.126-66.325-26.4-15.626-58.263,4.083-83.069,22.982-13.456,10.258-27.826,27.268-38.321,39.69-1.859,2.2-3.584,4.237-5.2,6.11v2.19c1.9-2.19,4.009-4.681,6.288-7.38,10.45-12.373,24.766-29.314,38.094-39.473,18.3-13.945,40.462-28.34,61.214-28.34a39.079,39.079,0,0,1,20.263,5.453c26.65,15.76,27.431,37.555,28.424,65.149.193,5.314.391,10.811.791,16.491.45,6.659,4.261,11.864,8.29,17.366,9.259,12.65,18.829,25.725-9.343,59.222-11.864,14.108-27.619,25.107-42.854,35.741-9.738,6.8-19.808,13.827-28.879,21.657-14.222,12.171-28.78-.638-45.647-15.463-7.553-6.644-15.364-13.51-23.57-18.35-6.159-3.609-10.282-7.034-13.07-10.5v2.234a51.926,51.926,0,0,0,12.349,9.5C41.26,338.98,49.021,345.807,56.525,352.406Zm-.979,4.454c12.536,11.014,24.569,21.588,36.23,21.588,4.548,0,9.041-1.607,13.481-5.418,9.5-8.216,20.06-15.591,30.278-22.73,16-11.167,32.547-22.72,45.084-37.609,30.308-36,19.418-50.8,9.813-63.863-4.108-5.586-7.993-10.866-8.443-17.42-.415-5.967-.623-11.75-.821-17.346-1-28.172-1.869-52.5-30.491-69.4-27.658-16.338-61.051,4.375-87.038,24.247C49.55,179.68,34.5,197.5,23.5,210.512c-.924,1.1-1.8,2.136-2.679,3.164v2.21c1.206-1.419,2.452-2.892,3.772-4.449,10.95-12.967,25.948-30.718,39.908-41.391,19.205-14.682,42.474-29.843,64.259-29.843a40.97,40.97,0,0,1,21.192,5.69c27.945,16.5,28.756,39.325,29.784,68.219.2,5.606.405,11.4.826,17.4.48,6.965,4.479,12.408,8.715,18.172,9.748,13.248,19.828,26.951-9.758,62.094-12.413,14.746-28.879,26.244-44.8,37.362-10.248,7.158-20.846,14.553-30.4,22.814-14.889,12.784-30.16-.628-47.832-16.16-7.924-6.965-16.115-14.163-24.722-19.23a57.328,57.328,0,0,1-10.945-8.008v1.977a63.219,63.219,0,0,0,10.223,7.267C39.535,342.786,47.676,349.944,55.546,356.86ZM27.527,343.711a79.609,79.609,0,0,1-6.7-4.36v1.74c1.8,1.27,3.752,2.551,5.977,3.851,9.289,5.453,18.192,13.268,26.8,20.822,7.717,6.782,15.255,13.327,22.646,17.8h2.62c-7.722-4.306-15.759-11.35-24.321-18.869C45.882,357.093,36.93,349.233,27.527,343.711Zm27.594-79.895a51.044,51.044,0,0,1,.628,7.034c.2,5.285.341,9.1,7.128,13.317a57.206,57.206,0,0,1,7.376,5.932c4.039,3.628,8.181,7.346,12.314,7.346a7.063,7.063,0,0,0,4.36-1.557c2.254-1.7,4.676-3.357,7.015-4.958,5.927-4.059,12.057-8.255,16.516-13.822,9.056-11.3,6.164-16.279,3.614-20.673A12.515,12.515,0,0,1,111.945,251c-.069-1.172-.129-2.323-.188-3.455-.489-9.57-.91-17.831-10.114-23.689-8.715-5.556-18.735-.47-27.381,5.235-4.652,3.075-9.239,8.488-12.927,12.843-1.562,1.844-2.912,3.441-3.955,4.469-5.255,5.21-4.583,7.8-3.362,12.5C54.38,260.3,54.79,261.883,55.121,263.816Zm3.263-16.4c1.088-1.073,2.457-2.689,4.039-4.558,3.628-4.286,8.142-9.61,12.625-12.571,5.808-3.831,12.24-7.385,18.34-7.385a13.7,13.7,0,0,1,7.494,2.155c8.577,5.462,8.962,13.006,9.452,22.562.054,1.132.114,2.294.193,3.47a13.734,13.734,0,0,0,2.309,6.061c2.432,4.192,4.953,8.527-3.495,19.062-4.325,5.4-10.366,9.536-16.2,13.535-2.353,1.612-4.785,3.277-7.064,5-4.622,3.485-9.368-.781-14.865-5.715a57.476,57.476,0,0,0-7.578-6.075c-6.14-3.826-6.258-6.965-6.451-12.166a52.23,52.23,0,0,0-.648-7.222c-.346-1.987-.761-3.6-1.132-5.027C54.207,253.949,53.712,252.051,58.384,247.419Zm-32.572,43c-.109,12.062-.178,20.031,15.844,29.482,6.491,3.856,12.739,9.363,18.78,14.692,9.758,8.6,19.131,16.862,28.246,16.862a15.864,15.864,0,0,0,10.47-4.162c7.1-6.011,14.949-11.488,22.537-16.783,12.63-8.809,25.691-17.92,35.538-29.695,23.224-27.767,15-39.3,7.741-49.463-3.085-4.32-5.991-8.394-6.332-13.431-.3-4.4-.47-8.686-.628-12.823-.835-21.924-1.557-40.857-23.684-54.056-21.355-12.734-47.1,2.892-67.161,17.92-10.93,8.2-22.557,21.954-31.044,32-3.579,4.237-6.669,7.89-8.933,10.218a45.136,45.136,0,0,0-6.362,7.875V242.1c1.216-2.8,3.485-5.912,7.39-9.931,2.294-2.358,5.4-6.031,8.992-10.282,8.448-10,20.011-23.679,30.817-31.776,14.662-10.994,32.4-22.319,49.019-22.319A31.734,31.734,0,0,1,133.6,172.27c21.454,12.8,22.131,30.491,22.987,52.884.153,4.152.321,8.443.628,12.868.366,5.438,3.391,9.669,6.589,14.158,7.3,10.228,14.845,20.8-7.672,47.723-9.724,11.627-22.7,20.683-35.256,29.438-7.618,5.314-15.493,10.811-22.641,16.867-11.459,9.694-23.224-.672-36.853-12.685-6.09-5.373-12.388-10.92-19-14.845-15.315-9.036-15.25-16.269-15.142-28.246A93.667,93.667,0,0,0,25.9,271a93.005,93.005,0,0,0-3.861-13.9c-.455-1.32-.855-2.526-1.211-3.678v4.553a88.228,88.228,0,0,1,3.663,13.283A92.086,92.086,0,0,1,25.812,290.421Zm32.379-27.347a47.69,47.69,0,0,1,.544,5.8c.232,4.657.4,8.028,6.263,11.731a49.072,49.072,0,0,1,6.234,5.052c3.5,3.164,7.1,6.407,10.712,6.407a6.264,6.264,0,0,0,3.762-1.3c1.725-1.266,3.53-2.487,5.344-3.712,5.3-3.6,10.791-7.321,14.736-12.3,7.633-9.654,5.28-13.975,3.2-17.786a11.17,11.17,0,0,1-1.705-4.642c-.054-.826-.094-1.636-.138-2.437-.45-8.369-.835-15.591-8.76-20.732-7.474-4.854-16.031-.722-23.4,3.965-4.039,2.566-7.969,7.207-11.132,10.94-1.359,1.6-2.531,2.986-3.446,3.885-4.637,4.548-4.078,6.9-3.06,11.152C57.618,260.237,57.934,261.532,58.191,263.074ZM61.4,248.956c.964-.944,2.155-2.353,3.539-3.984,3.095-3.653,6.95-8.206,10.8-10.653,4.83-3.07,10.173-5.9,15.26-5.9a11.843,11.843,0,0,1,6.6,1.933c7.311,4.741,7.662,11.3,8.112,19.61.04.8.084,1.617.133,2.452a12.43,12.43,0,0,0,1.878,5.225c1.958,3.594,3.979,7.311-3.07,16.219-3.806,4.815-9.2,8.473-14.415,12.007-1.829,1.241-3.643,2.472-5.388,3.747-3.92,2.877-7.984-.781-12.67-5.013a49.641,49.641,0,0,0-6.431-5.2c-5.235-3.307-5.373-6.056-5.6-10.6a49.242,49.242,0,0,0-.568-5.957c-.262-1.592-.583-2.917-.86-4.083C57.751,254.641,57.341,252.941,61.4,248.956Zm-.148,13.382c.277,1.71.371,3.208.46,4.533.262,4.049.45,6.975,5.4,10.169a40.934,40.934,0,0,1,5.087,4.172c2.976,2.7,6.021,5.472,9.125,5.472a5.405,5.405,0,0,0,3.144-1.043c1.162-.806,2.353-1.6,3.549-2.4,4.741-3.149,9.635-6.412,13.09-10.861,6.214-8,4.395-11.666,2.793-14.9a10.021,10.021,0,0,1-1.29-3.841l-.079-1.345c-.4-7.2-.746-13.416-7.41-17.851-6.273-4.182-13.337-.989-19.423,2.689-3.416,2.056-6.7,5.927-9.338,9.041-1.152,1.354-2.145,2.526-2.936,3.292-4.029,3.9-3.579,6.011-2.758,9.852C60.86,260.2,61.073,261.191,61.256,262.338ZM64.425,250.5c.84-.816,1.859-2.012,3.03-3.4,2.571-3.03,5.774-6.8,8.987-8.74,4-2.412,8.142-4.474,12.116-4.474a10.2,10.2,0,0,1,5.779,1.75c6.066,4.039,6.382,9.645,6.777,16.743l.074,1.35a11.3,11.3,0,0,0,1.439,4.39c1.557,3.134,3.02,6.1-2.64,13.392-3.312,4.266-8.112,7.46-12.754,10.549-1.206.8-2.4,1.6-3.569,2.412-3.268,2.249-6.614-.786-10.495-4.316a42.542,42.542,0,0,0-5.275-4.316c-4.345-2.8-4.494-5.022-4.756-9.061-.089-1.354-.188-2.892-.475-4.667-.188-1.172-.405-2.185-.6-3.085C61.286,255.358,60.964,253.84,64.425,250.5ZM22.816,292.364c-.138,12.729-.227,21.138,16.719,31.114,6.891,4.083,13.515,9.921,19.922,15.567,10.317,9.091,20.218,17.811,29.843,17.811a16.72,16.72,0,0,0,11.073-4.419c7.568-6.436,15.947-12.279,24.054-17.939,13.313-9.289,27.085-18.9,37.476-31.306,24.643-29.418,15.883-41.6,8.157-52.345-3.287-4.573-6.392-8.888-6.753-14.227-.326-4.716-.5-9.3-.667-13.728-.87-23.17-1.621-43.185-25.043-57.121-22.6-13.451-49.889,3.179-71.135,19.185C54.9,193.66,42.59,208.228,33.6,218.861c-3.777,4.474-7.044,8.34-9.432,10.8-1.275,1.315-2.363,2.536-3.347,3.708v2.294a59.885,59.885,0,0,1,4.375-5.008c2.417-2.492,5.695-6.377,9.5-10.866C43.638,209.2,55.887,194.7,67.316,186.091c15.577-11.726,34.421-23.822,52.069-23.822a33.559,33.559,0,0,1,17.48,4.726c22.754,13.54,23.456,32.256,24.346,55.949.168,4.444.341,9.037.672,13.772.391,5.744,3.609,10.223,7.02,14.964,7.786,10.826,15.834,22.028-8.1,50.6-10.267,12.26-23.956,21.815-37.194,31.049-8.137,5.68-16.541,11.543-24.163,18.028-12.141,10.332-24.613-.662-39.048-13.382-6.456-5.685-13.135-11.568-20.139-15.72-16.239-9.56-16.15-17.638-16.017-29.868a98.289,98.289,0,0,0-1.414-20.634,80.955,80.955,0,0,0-2.007-8.275v5.759c.208.91.42,1.8.6,2.783A97.248,97.248,0,0,1,22.816,292.364ZM67.4,260.909c.084.6.148,1.162.2,1.681.336,2.981.578,5.131,3.762,7.361a27.5,27.5,0,0,1,2.783,2.393c1.908,1.794,3.871,3.638,5.977,3.638A3.766,3.766,0,0,0,82,275.463c3.678-2.066,7.41-4.434,9.8-7.771,3.361-4.691,2.664-6.945,1.987-9.13a8.845,8.845,0,0,1-.484-2.225c-.213-4.261-.732-8.325-4.662-11.236-3.861-2.857-7.781-1.646-11.439.1-2.2,1.053-4.192,3.391-5.784,5.265a27.413,27.413,0,0,1-1.913,2.111c-2.9,2.66-2.65,4.429-2.195,7.652Zm3.07-7.282a26.916,26.916,0,0,0,2.032-2.234c1.513-1.77,3.386-3.979,5.314-4.9a13.912,13.912,0,0,1,5.813-1.676,6.8,6.8,0,0,1,4.162,1.429c3.436,2.546,3.881,6.11,4.083,10.159a10.218,10.218,0,0,0,.549,2.58c.6,1.933,1.167,3.757-1.785,7.875-2.225,3.109-5.8,5.373-9.333,7.361-1.794,1-3.534-.43-6.179-2.917a28.216,28.216,0,0,0-2.941-2.521c-2.66-1.864-2.838-3.455-3.159-6.352-.059-.534-.124-1.1-.208-1.715l-.094-.682C68.29,256.94,68.132,255.778,70.47,253.628ZM73.481,266.5a21.159,21.159,0,0,1,1.616,1.473c1.33,1.305,2.8,2.758,4.484,2.758a3.045,3.045,0,0,0,1.147-.232,13.833,13.833,0,0,0,6.436-5.067c1.987-3.129,1.8-4.721,1.6-6.407-.045-.391-.094-.8-.109-1.231a9.584,9.584,0,0,0-3.228-7.242c-2.249-1.923-4.33-2.264-7.42-1.226-1.626.554-2.922,2.071-4.063,3.406a15.423,15.423,0,0,1-1.389,1.5c-2.091,1.814-2.343,3.46-2.071,6.051C70.742,262.748,71.108,264.637,73.481,266.5Zm.015-11.2a16.372,16.372,0,0,0,1.537-1.641c1.018-1.2,2.18-2.556,3.436-2.981a8.2,8.2,0,0,1,2.571-.5,5.11,5.11,0,0,1,3.465,1.458,8.209,8.209,0,0,1,2.724,6.209c.02.475.069.915.119,1.34.183,1.552.326,2.778-1.384,5.477a12.481,12.481,0,0,1-5.774,4.513c-1.206.489-2.4-.564-4.093-2.224a23.334,23.334,0,0,0-1.735-1.582c-1.874-1.463-2.2-2.783-2.457-5.235C71.662,257.795,71.864,256.712,73.5,255.3Zm-52.672,103.9v1.7c9.956,6.248,19.536,14.534,28.815,22.67H51.8c-.4-.351-.8-.7-1.206-1.053C41.042,374.127,31.156,365.551,20.824,359.194Zm54.787-95.6c.85,1,1.9,2.244,3.446,2.244a3.585,3.585,0,0,0,3.327-2.506,8.551,8.551,0,0,1,.578-1.231,5.411,5.411,0,0,0,.845-2.541,4.719,4.719,0,0,0-1.285-2.61c-.158-.2-.3-.381-.415-.544-.133-.2-.262-.41-.381-.6-.593-.969-1.27-2.061-2.961-2.061a3.413,3.413,0,0,0-2.5,1.557,5.736,5.736,0,0,1-.83.855,4.989,4.989,0,0,0-2.071,3.742,4.668,4.668,0,0,0,1.612,2.981Zm.682-6.3a6.906,6.906,0,0,0,1.058-1.058c.573-.667.954-1.073,1.414-1.073.855,0,1.157.425,1.745,1.389q.193.319.415.653c.129.188.3.4.47.628a3.994,3.994,0,0,1,.984,1.725,4.269,4.269,0,0,1-.677,1.869,9.138,9.138,0,0,0-.672,1.458,2.161,2.161,0,0,1-1.972,1.528c-.88,0-1.666-.929-2.358-1.745l-.672-.761c-.578-.628-1.231-1.34-1.231-2.012A3.58,3.58,0,0,1,76.294,257.3Zm-11.968,4.316c.183,1.191.272,2.249.356,3.208.3,3.465.514,5.972,4.563,8.666a33.749,33.749,0,0,1,3.935,3.287c2.442,2.244,4.943,4.548,7.544,4.548a4.6,4.6,0,0,0,2.526-.786l1.458-.934c4.286-2.734,8.72-5.561,11.745-9.57,4.785-6.347,3.515-9.358,2.388-12.012a9.212,9.212,0,0,1-.89-3.119c-.336-6.1-.633-11.37-6.07-15.142-5.037-3.49-10.4-1.384-15.438,1.4-2.8,1.552-5.433,4.647-7.544,7.133-.949,1.122-1.77,2.081-2.437,2.714-3.436,3.263-3.09,5.171-2.472,8.636C64.1,260.237,64.217,260.89,64.326,261.611Zm3.119-9.565c.722-.687,1.567-1.676,2.541-2.823,2.042-2.4,4.578-5.388,7.148-6.817,2.961-1.636,6.021-3.025,8.992-3.025a8.454,8.454,0,0,1,4.938,1.552c4.864,3.366,5.126,8.082,5.467,14.118a10.231,10.231,0,0,0,1,3.525c1.063,2.521,2.071,4.9-2.215,10.594-2.872,3.806-7.2,6.56-11.375,9.229l-1.468.934c-2.407,1.562-4.751-.326-8.33-3.614a35.038,35.038,0,0,0-4.108-3.421c-3.48-2.313-3.638-4.192-3.935-7.6-.084-.989-.178-2.071-.366-3.3-.109-.737-.227-1.4-.336-2.012C64.8,256.03,64.568,254.775,67.445,252.046ZM43.791,278.72c.074,7.8.133,13.426,10.594,19.739,4.123,2.487,8.107,6.026,11.968,9.447,6.412,5.695,12.566,11.157,18.627,11.157a10.647,10.647,0,0,0,6.842-2.625c4.241-3.441,8.873-6.659,13.362-9.773,8.547-5.937,17.391-12.077,23.975-20.075,14.721-17.89,9.694-25.493,5.255-32.2-1.844-2.788-3.589-5.423-3.8-8.631-.168-2.516-.277-4.973-.386-7.356-.638-14.445-1.186-26.922-15.517-35.681-13.787-8.438-30.382,1.088-43.3,10.317-7.158,5.116-14.667,13.995-20.154,20.485-2.378,2.808-4.424,5.23-5.957,6.782-7.741,7.84-6.624,11.444-4.607,17.984a67.666,67.666,0,0,1,2.175,8.5A65.854,65.854,0,0,1,43.791,278.72Zm2.521-37.406c1.572-1.592,3.638-4.039,6.031-6.866,5.443-6.426,12.887-15.231,19.9-20.243C81.44,207.63,92.523,200.9,102.934,200.9a20.768,20.768,0,0,1,11.034,3.045c13.683,8.364,14.192,19.912,14.84,34.529.1,2.393.213,4.859.386,7.385.232,3.584,2.165,6.505,4.034,9.328,4.365,6.594,8.883,13.421-5.171,30.5-6.461,7.85-15.221,13.93-23.689,19.813-4.508,3.129-9.165,6.362-13.446,9.832-7.356,5.962-14.889-.737-23.624-8.488-3.9-3.46-7.939-7.049-12.176-9.6-9.778-5.9-9.827-10.658-9.9-18.533a67.219,67.219,0,0,0-.949-12.171,69.153,69.153,0,0,0-2.215-8.661C40.078,251.467,39.179,248.546,46.312,241.314Zm171.7,90.36v0c41.707-49.108,26.536-69.173,13.154-86.87-5.774-7.633-11.226-14.845-11.854-23.842-.6-8.448-.865-16.625-1.127-24.529-1.261-38.183-2.348-71.165-41.376-93.993-38.2-22.359-86.128,8.908-118.854,34.366-12.423,9.664-25.424,23.328-37.135,36.581v2.16c11.938-13.579,25.29-27.718,38.01-37.614,24.663-19.185,58.015-41.712,89.06-41.712a54.908,54.908,0,0,1,28.2,7.45c38.341,22.433,39.369,53.487,40.664,92.807.262,7.919.534,16.11,1.132,24.588.658,9.417,6.234,16.788,12.136,24.6,13.06,17.272,27.866,36.848-13.1,85.08l0,0c-16.793,19.882-38.988,35.385-60.457,50.373-1.157.8-2.318,1.626-3.475,2.437h2.486c.6-.42,1.206-.85,1.8-1.266C178.824,367.256,201.1,351.7,218.015,331.674Zm-9.358-4.746h0c38.88-45.81,24.771-64.565,12.324-81.111-5.359-7.123-10.421-13.851-11-22.24-.549-7.825-.8-15.4-1.053-22.73-1.191-35.681-2.225-66.5-38.652-87.849-35.647-20.9-80.365,8.157-110.9,31.835-12.991,10.075-26.67,24.845-38.544,38.519v2.17c12.072-13.96,26.136-29.26,39.418-39.562,22.972-17.806,54.031-38.707,82.94-38.707a51.227,51.227,0,0,1,26.363,6.975c35.751,20.95,36.719,49.953,37.95,86.667.247,7.336.5,14.929,1.058,22.784.608,8.8,5.794,15.7,11.286,23C231.961,262.793,245.7,281.063,207.565,326v0c-15.69,18.612-36.462,33.111-56.552,47.13-4.884,3.406-9.818,6.891-14.731,10.426h2.442c4.375-3.129,8.76-6.224,13.1-9.254C171.992,360.237,192.844,345.683,208.658,326.928ZM46.787,276.768c.109,7.158.183,12.329,9.724,18.117a79.114,79.114,0,0,1,10.816,8.572c5.858,5.21,11.483,10.208,17.035,10.208A9.763,9.763,0,0,0,90.6,311.3c3.757-3.011,7.845-5.848,11.8-8.592,7.885-5.458,16.031-11.108,22.077-18.488,13.3-16.239,8.809-23.184,4.845-29.314-1.641-2.531-3.188-4.929-3.376-7.83-.148-2.2-.247-4.345-.346-6.431-.6-13.2-1.127-24.613-14.163-32.636-12.517-7.707-27.589.781-39.32,9.051-6.54,4.607-13.372,12.685-18.365,18.587-2.16,2.561-4.034,4.77-5.438,6.189-7.114,7.178-6.115,10.52-4.3,16.59a63.764,63.764,0,0,1,1.9,7.628A61.315,61.315,0,0,1,46.787,276.768Zm2.546-33.931c1.443-1.458,3.332-3.688,5.517-6.273,4.943-5.838,11.706-13.837,18.093-18.34,8.715-6.145,18.389-11.874,27.515-11.874a19.13,19.13,0,0,1,10.238,2.872c12.388,7.628,12.873,18.157,13.486,31.484.094,2.1.2,4.251.346,6.456.208,3.277,1.933,5.942,3.6,8.517,3.885,6,7.895,12.2-4.746,27.633-5.922,7.222-13.99,12.813-21.785,18.221-3.979,2.758-8.092,5.611-11.889,8.651-6.659,5.344-13.5-.746-21.43-7.8a80.04,80.04,0,0,0-11.024-8.725c-8.868-5.378-8.933-9.719-9.041-16.916a62.454,62.454,0,0,0-.875-10.955,65.128,65.128,0,0,0-1.948-7.776C43.623,252.105,42.817,249.416,49.332,242.836Zm187.4,98.344v0c47.362-55.7,30.071-78.372,14.81-98.378-6.594-8.651-12.823-16.822-13.54-27.04-.687-9.714-.989-19.111-1.28-28.2-1.374-43.2-2.571-80.513-46.819-106.218-43.24-25.335-97.627,10.366-134.761,39.423-11.375,8.9-23.184,20.757-34.317,32.918v2.126c11.394-12.517,23.535-24.791,35.2-33.917,28.054-21.954,66.009-47.748,101.295-47.748a61.944,61.944,0,0,1,31.86,8.428c43.571,25.31,44.693,60.492,46.117,105.037.292,9.1.588,18.5,1.28,28.251.746,10.638,7.1,18.978,13.832,27.8,14.929,19.576,31.855,41.767-14.766,96.584v0c-14,16.536-31.3,30.382-49.127,43.3h2.407C206.27,370.919,223.048,357.345,236.731,341.18Zm-42.1-21.37v0c34.633-40.877,22.122-57.669,11.083-72.48-4.741-6.362-9.219-12.373-9.738-19.843-.484-6.9-.712-13.579-.934-20.045-1.1-31.924-2.051-59.494-34.569-78.619-31.825-18.706-71.723,7.044-98.976,28.044-13.97,10.767-28.805,27.609-40.669,41.559v2.215c12-14.153,27.243-31.623,41.539-42.642,20.436-15.745,48.045-34.208,73.755-34.208a45.775,45.775,0,0,1,23.624,6.268c31.845,18.721,32.735,44.634,33.867,77.433.222,6.476.455,13.174.939,20.095.549,7.89,5.146,14.064,10.015,20.594,11.246,15.092,22.873,30.7-11.024,70.7l0,0c-14.039,16.694-32.671,29.695-50.689,42.261-10.159,7.089-20.569,14.43-30.273,22.413h2.239c9.284-7.524,19.185-14.494,28.85-21.242C161.76,349.7,180.47,336.652,194.628,319.81ZM52.056,264.557a53.285,53.285,0,0,1,.7,8.26c.168,5.907.287,10.178,7.993,14.924a63.921,63.921,0,0,1,8.532,6.812c4.746,4.246,9.3,8.325,13.846,8.325a8.073,8.073,0,0,0,5.027-1.859c2.768-2.14,5.759-4.2,8.651-6.2,6.565-4.518,13.347-9.185,18.32-15.344,10.475-12.952,7.049-18.587,4.024-23.56-1.231-2.022-2.393-3.93-2.541-6.224-.094-1.508-.168-2.986-.237-4.429-.524-10.786-.974-20.11-11.464-26.694-9.971-6.253-21.449-.218-31.366,6.515-5.28,3.579-10.747,10.035-14.736,14.751-1.765,2.086-3.287,3.885-4.449,5.047-5.873,5.863-5.092,8.705-3.673,13.861A57.79,57.79,0,0,1,52.056,264.557Zm3.312-18.666c1.206-1.2,2.749-3.02,4.533-5.131,3.935-4.652,9.328-11.019,14.445-14.494,6.777-4.6,14.3-8.878,21.4-8.878a15.473,15.473,0,0,1,8.4,2.393c9.852,6.189,10.267,14.731,10.8,25.552.069,1.453.143,2.936.237,4.449.173,2.645,1.478,4.8,2.744,6.876,2.922,4.8,5.932,9.748-3.91,21.924-4.845,5.991-11.548,10.6-18.019,15.067-2.912,2-5.922,4.073-8.725,6.248-5.294,4.1-10.747-.776-17.045-6.407a64.376,64.376,0,0,0-8.735-6.965c-7.049-4.34-7.143-7.88-7.311-13.748a55.957,55.957,0,0,0-.722-8.468c-.42-2.383-.939-4.276-1.4-5.947C50.662,253.272,50.079,251.166,55.368,245.891ZM48.991,265.3a57.38,57.38,0,0,1,.776,9.476c.138,6.54.237,11.266,8.868,16.531A71.626,71.626,0,0,1,68.3,299c5.309,4.731,10.4,9.269,15.448,9.269a8.9,8.9,0,0,0,5.631-2.111c3.268-2.58,6.812-5.037,10.243-7.405,7.217-4.988,14.677-10.149,20.184-16.906,11.9-14.6,7.934-20.9,4.434-26.447-1.434-2.274-2.788-4.429-2.961-7.025-.114-1.829-.2-3.624-.282-5.369-.559-12.022-1.043-22.408-12.823-29.72-11.212-6.975-24.153.025-35.34,7.781-5.9,4.093-12.047,11.355-16.541,16.654-1.967,2.328-3.668,4.335-4.953,5.631-6.5,6.525-5.606,9.625-3.984,15.24A61.46,61.46,0,0,1,48.991,265.3Zm3.357-20.94c1.33-1.335,3.05-3.361,5.037-5.714,4.434-5.245,10.515-12.423,16.264-16.407,7.746-5.369,16.338-10.371,24.455-10.371a17.3,17.3,0,0,1,9.318,2.63c11.142,6.921,11.587,16.476,12.151,28.573.079,1.755.163,3.559.287,5.4.193,2.956,1.705,5.359,3.174,7.687,3.4,5.4,6.916,10.974-4.33,24.781-5.383,6.6-12.759,11.7-19.892,16.634-3.45,2.388-7.015,4.849-10.317,7.46-5.972,4.721-12.126-.761-19.24-7.1a72.116,72.116,0,0,0-9.877-7.845c-7.964-4.864-8.048-8.809-8.181-15.344a59.524,59.524,0,0,0-.8-9.7,63.271,63.271,0,0,0-1.671-6.852C47.157,252.773,46.446,250.291,52.348,244.364ZM199.31,322.182l0,0c36.052-42.523,23.006-59.968,11.5-75.357-4.943-6.619-9.62-12.868-10.159-20.644-.509-7.207-.742-14.192-.974-20.94-1.132-33.18-2.111-61.832-35.933-81.694-33.1-19.427-74.6,7.42-102.946,29.3-13.639,10.534-28.039,26.6-39.967,40.536v2.195c12.087-14.168,26.9-30.827,40.837-41.594,21.281-16.437,50.037-35.711,76.815-35.711a47.611,47.611,0,0,1,24.539,6.5c33.14,19.467,34.065,46.4,35.227,80.508.232,6.763.47,13.757.984,20.995.564,8.2,5.359,14.608,10.435,21.395,11.736,15.7,23.872,31.924-11.444,73.582h0c-14.588,17.332-33.936,30.832-52.642,43.882-8.463,5.907-17.1,11.978-25.4,18.419h2.358c7.825-6,15.918-11.7,23.862-17.248C165.176,353.212,184.6,339.662,199.31,322.182Zm28.064,14.237v0c44.535-52.4,28.3-73.77,13.98-92.629-6.184-8.137-12.022-15.829-12.695-25.434-.638-9.071-.924-17.841-1.2-26.323-1.325-40.689-2.472-75.836-44.1-100.148-40.753-23.807-91.892,9.654-126.8,36.892-11.894,9.279-24.277,21.988-35.731,34.722v2.126c11.7-13.07,24.43-26.22,36.606-35.721,26.348-20.56,62-44.713,95.18-44.713a58.525,58.525,0,0,1,30.026,7.924c40.946,23.921,42.029,57.037,43.393,98.966.277,8.493.564,17.277,1.206,26.373.7,10.03,6.664,17.885,12.981,26.2,14,18.429,29.863,39.31-13.93,90.835v0c-15.829,18.721-36.146,33.788-56.443,48.065h2.467C192.132,369.58,211.866,354.764,227.373,336.419ZM280.559,12.465a113.266,113.266,0,0,1,18.592,24.89V34.414a114.255,114.255,0,0,0-16.575-21.949Zm-161.119,0h-3.149c-26.081,13.708-50.8,31.761-71.723,48.341-7.82,6.2-15.794,13.352-23.743,21.054v2A327.143,327.143,0,0,1,45.452,61.928C66.975,44.864,92.547,26.262,119.439,12.465Zm9.659,0h-3.49C96.374,26.257,68.444,46.47,45.269,64.825A322.853,322.853,0,0,0,20.824,86.611v2A324.835,324.835,0,0,1,46.159,65.947C70.02,47.049,98.949,26.2,129.1,12.465Zm135.335,0H262.17c19.3,15.666,30.431,33.462,36.981,53.344V61.375C292.557,43.317,281.913,27,264.434,12.465Zm24.5,0a115.318,115.318,0,0,1,10.218,13.466V23.222a116.089,116.089,0,0,0-8.28-10.757Zm-178.135,0h-2.976c-23.2,13.214-45.093,29.359-63.957,44.317C36.277,62.8,28.541,69.714,20.824,77.139v1.972C28.837,71.355,36.875,64.148,44.75,57.9,64.177,42.5,86.838,25.862,110.8,12.465Zm132.606,0h-2.6c47.57,30.085,55.816,69.524,58.347,117.919V111.071C295.132,71.543,283.569,38.615,243.4,12.465Zm-103.04,0H136.41C103.556,25.674,71.756,48.443,45.971,68.849A320.436,320.436,0,0,0,20.824,91.361v2.007a323.046,323.046,0,0,1,26.037-23.4C73.451,48.922,106.468,25.357,140.365,12.465ZM296.946,159.219c-1.883-61.936-3.371-110.855-64.526-146.23-.321-.188-.653-.341-.979-.524h-3.015c1.092.573,2.195,1.127,3.282,1.755,60.467,34.979,61.941,83.548,63.809,145.039.391,12.843.8,26.121,1.775,39.888a40.853,40.853,0,0,0,1.859,9.427v-6.412c-.158-1.033-.361-2.052-.435-3.114C297.737,185.305,297.332,172.042,296.946,159.219Zm-4.637,2.215c-1.844-60.631-3.3-108.522-63.162-143.16a84.1,84.1,0,0,0-12.2-5.808H212.78a82.3,82.3,0,0,1,15.651,7.044c59.172,34.238,60.621,81.778,62.45,141.969.385,12.551.781,25.528,1.735,38.983.514,7.252,3.011,13.708,6.535,19.862v-3.08a42.9,42.9,0,0,1-5.111-16.882C293.085,186.937,292.695,173.97,292.309,161.434ZM102.835,12.465h-2.813C79.472,24.922,60.114,39.308,43.163,52.758,35.8,58.6,28.308,65.28,20.824,72.428V74.4C28.61,66.916,36.4,59.946,44.048,53.881,61.528,40.009,81.578,25.165,102.835,12.465Zm151.514,0h-2.457C280.747,33.2,293.338,57.979,299.151,86.71V80.026C292.868,54.2,280.356,31.655,254.349,12.465Zm-98.779,0h-5.354C112.835,23.706,75.829,49.812,46.678,72.873A318.007,318.007,0,0,0,20.824,96.112v2.007A319.575,319.575,0,0,1,47.563,74C77.89,50,116.76,22.708,155.571,12.465ZM287.677,163.638c-1.814-59.326-3.248-106.189-61.8-140.076a82.506,82.506,0,0,0-38.217-11.1h-8.745C132.7,14.482,83.783,48.122,47.38,76.9a316.382,316.382,0,0,0-26.556,23.97v2.017A318.058,318.058,0,0,1,48.27,78.019C85.612,48.5,136.188,13.765,183.224,13.765A81.98,81.98,0,0,1,225.159,24.8c57.867,33.491,59.291,80,61.09,138.884.376,12.265.766,24.944,1.7,38.094.712,10.07,5.334,18.572,11.207,26.882v-2.516c-5.181-7.6-9.14-15.418-9.783-24.465C288.439,188.553,288.048,175.888,287.677,163.638ZM298.731,12.465h-1.864c.776.979,1.547,1.953,2.284,2.941V12.989C299.013,12.816,298.869,12.643,298.731,12.465Zm-254.391,0H42.006c-1.74,1.369-3.475,2.739-5.176,4.093-5.289,4.212-10.638,8.809-16.007,13.649V32.14c5.67-5.141,11.32-10.02,16.9-14.464C39.881,15.955,42.115,14.21,44.34,12.465Zm11.849,0H53.826c-5.359,4.078-10.574,8.147-15.591,12.141C32.49,29.179,26.667,34.231,20.824,39.56v1.933c6.14-5.64,12.265-10.964,18.3-15.774C44.592,21.363,50.311,16.919,56.189,12.465Zm-5.972,0H47.869c-3.515,2.724-6.975,5.438-10.337,8.117-5.517,4.395-11.1,9.219-16.709,14.3v1.933c5.907-5.388,11.79-10.495,17.6-15.122C42.239,18.654,46.2,15.564,50.217,12.465Zm-29.393,0v1.018c.391-.346.781-.677,1.172-1.018Zm4.325,0q-2.158,1.854-4.325,3.762V18.12q3.263-2.9,6.5-5.655Zm5.472,0c-3.253,2.7-6.515,5.482-9.8,8.4v1.918q6.058-5.42,12.047-10.322Zm57.59,0H85.651c-15.7,10.445-30.52,21.627-43.9,32.251C34.853,50.2,27.844,56.387,20.824,63v1.967c7.316-6.936,14.627-13.426,21.815-19.136C56.49,34.829,71.889,23.222,88.212,12.465Zm7.128,0H92.656a603.51,603.51,0,0,0-50.2,36.275c-7.128,5.66-14.38,12.1-21.632,18.973V69.68c7.549-7.2,15.1-13.935,22.517-19.823A595.226,595.226,0,0,1,95.34,12.465Zm-13.881,0H78.914c-13.456,9.279-26.2,18.963-37.861,28.227-6.669,5.3-13.446,11.241-20.228,17.593v1.967c7.084-6.669,14.158-12.912,21.113-18.444C54.073,32.164,67.4,22.08,81.459,12.465Zm-19.165,0H59.887c-7.267,5.423-14.281,10.861-20.945,16.16-5.977,4.76-12.037,10.03-18.117,15.611v1.928C27.2,40.276,33.563,34.73,39.831,29.742,46.95,24.077,54.488,18.259,62.294,12.465Zm12.6,0H72.4C61.093,20.5,50.331,28.739,40.35,36.673c-6.441,5.121-12.976,10.821-19.526,16.911v1.958c6.847-6.412,13.683-12.4,20.411-17.757C51.681,29.485,63,20.854,74.895,12.465Zm-6.426,0h-2.4c-9.249,6.748-18.1,13.57-26.422,20.184-6.209,4.938-12.507,10.426-18.819,16.259V50.84c6.614-6.15,13.209-11.909,19.709-17.079C49.3,26.786,58.666,19.574,68.468,12.465ZM20.824,365.847a219.508,219.508,0,0,1,22.725,17.717h2.17c-8.048-7.02-16.318-13.881-24.895-19.418ZM250.775,348.3c51.6-60.631,32.715-85.273,16.051-107.009-7.212-9.412-14.029-18.305-14.81-29.438-.756-10.643-1.078-20.93-1.389-30.876-1.542-48.895-2.758-87.518-50.912-115.458-47.091-27.5-106.268,11.488-146.685,43.22-10.643,8.354-21.627,19.1-32.206,30.357v2.076c10.851-11.617,22.166-22.735,33.086-31.311,30.595-24.015,72-52.242,110.485-52.242A67.365,67.365,0,0,1,199,66.753c47.471,27.54,48.672,65.811,50.2,114.266.311,9.961.638,20.263,1.394,30.931.811,11.563,7.751,20.619,15.1,30.209,16.333,21.306,34.846,45.459-16.007,105.215-11.394,13.441-24.811,25.216-38.944,36.191h2.333C226.74,372.862,239.7,361.369,250.775,348.3Zm-4.686-2.368c50.2-58.989,31.84-82.975,15.646-104.137-7.01-9.16-13.629-17.811-14.39-28.637-.732-10.337-1.048-20.322-1.354-29.982C244.546,137.463,243.3,97.99,196.447,70.8,150.637,44.014,93.062,81.91,53.732,112.751c-10.875,8.532-22.141,19.625-32.908,31.183v2.076c11.039-11.914,22.631-23.382,33.793-32.137C84.361,90.546,124.61,63.13,162.037,63.13a65.572,65.572,0,0,1,33.689,8.9c46.171,26.8,47.348,64.041,48.841,111.191.3,9.674.623,19.675,1.354,30.041.791,11.251,7.534,20.065,14.677,29.4,15.868,20.733,33.852,44.233-15.6,102.348h0c-12.235,14.445-26.862,26.941-42.2,38.558h2.333C220,372.214,234.16,360.009,246.089,345.93Zm-14.039-7.118c45.954-54.051,29.191-76.074,14.4-95.506-6.392-8.394-12.428-16.323-13.12-26.235-.662-9.407-.959-18.5-1.241-27.3-1.345-41.95-2.506-78.184-45.459-103.144-41.964-24.608-94.74,10-130.787,38.158-11.627,9.091-23.718,21.365-35.019,33.818v2.126c11.558-12.8,23.985-25.5,35.9-34.816,27.213-21.266,64.022-46.245,98.24-46.245a60.109,60.109,0,0,1,30.941,8.191c42.271,24.564,43.368,58.722,44.757,101.957.282,8.814.573,17.925,1.241,27.357.722,10.332,6.886,18.424,13.406,27,14.464,19,30.857,40.536-14.351,93.707v0c-14.9,17.618-33.674,32.087-52.751,45.677h2.462C199.26,370.262,217.467,356.05,232.05,338.812Zm23.4,11.859c53.023-62.282,33.6-87.572,16.471-109.886-7.425-9.669-14.43-18.8-15.235-30.239-.776-10.955-1.107-21.538-1.429-31.776-1.572-50.2-2.818-89.851-52.271-118.532C154.617,31.991,93.838,72.107,52.328,104.723c-10.4,8.176-21.123,18.577-31.5,29.532v2.076c10.658-11.315,21.7-22.087,32.384-30.486C84.643,81.143,127.191,52.1,166.753,52.1a69.219,69.219,0,0,1,35.518,9.373c48.771,28.286,50,67.586,51.559,117.341.321,10.253.653,20.851,1.434,31.835.83,11.864,7.969,21.163,15.527,31,16.8,21.884,35.844,46.69-16.427,108.092-10.544,12.433-22.754,23.506-35.686,33.818h2.244C233.4,373.514,245.209,362.748,255.452,350.671Zm27.594-184.818C281.261,107.828,279.857,62,222.6,28.847,166.525-3.774,96.151,42.946,48.082,80.916a315.773,315.773,0,0,0-27.258,24.8v2.022a318.041,318.041,0,0,1,28.148-25.7c36.5-28.83,85.926-62.751,131.9-62.751a80.134,80.134,0,0,1,41.015,10.8c56.567,32.75,57.966,78.234,59.731,135.809.366,11.978.746,24.361,1.661,37.2.88,12.546,7.934,22.616,15.873,32.953V233.7c-7.331-9.654-13.639-19.161-14.454-30.713C283.787,190.179,283.411,177.811,283.045,165.853Zm-60.354,168.2c43.121-50.759,27.421-71.471,13.57-89.752-5.977-7.885-11.627-15.334-12.274-24.638-.618-8.76-.895-17.238-1.167-25.429-1.3-39.438-2.412-73.493-42.736-97.068C140.592,74.084,91.069,106.448,57.257,132.8c-12.146,9.467-24.85,22.631-36.433,35.622v2.15c11.825-13.332,24.87-26.956,37.308-36.645,25.508-19.872,60.008-43.21,92.12-43.21A56.666,56.666,0,0,1,179.363,98.4c39.646,23.18,40.7,55.262,42.034,95.887.267,8.206.544,16.689,1.167,25.483.677,9.724,6.451,17.336,12.561,25.4,13.525,17.846,28.859,38.079-13.52,87.958v0c-16.763,19.838-38.731,35.444-60.2,50.437H163.9C184.9,368.873,206.25,353.509,222.692,334.051Zm37.441,19c54.432-63.933,34.48-89.876,16.882-112.773-7.628-9.921-14.83-19.289-15.661-31.035-.8-11.261-1.137-22.146-1.463-32.671-1.607-51.5-2.877-92.184-53.631-121.607C156.6,26,94.228,67.2,51.621,100.714c-10.159,7.988-20.624,18.053-30.8,28.7v2.076c10.46-11.009,21.237-21.444,31.682-29.66,32.275-25.389,75.97-55.242,116.6-55.242a71.072,71.072,0,0,1,36.438,9.6c50.066,29.032,51.327,69.361,52.919,120.421.331,10.539.672,21.434,1.473,32.725.855,12.171,8.186,21.711,15.947,31.811,17.272,22.463,36.843,47.921-16.837,110.969a252,252,0,0,1-32.681,31.445h2.244A250.143,250.143,0,0,0,260.133,353.049Zm-239,1.389c-.109-.064-.2-.129-.311-.193v1.691c10.337,6.125,20.243,14.791,29.823,23.194q2.551,2.239,5.082,4.434h2.185c-2.086-1.794-4.187-3.633-6.328-5.507C41.828,369.5,31.739,360.642,21.135,354.438Zm-.311,21.306c3.446,2.437,6.842,5.087,10.208,7.82h2.234c-4.088-3.362-8.226-6.585-12.442-9.521Zm0-4.948a204.359,204.359,0,0,1,16.531,12.769h2.234A210.307,210.307,0,0,0,20.824,369.1Zm183.162-46.24c37.466-44.164,23.886-62.267,11.909-78.234-5.151-6.871-10.02-13.357-10.579-21.439-.529-7.514-.776-14.791-1.013-21.83-1.167-34.431-2.17-64.165-37.293-84.774-34.371-20.169-77.482,7.786-106.925,30.57-13.308,10.3-27.332,25.671-39.26,39.512v2.19c12.116-14.1,26.521-30.036,40.135-40.575,22.122-17.119,52.029-37.209,79.875-37.209a49.391,49.391,0,0,1,25.448,6.743c34.45,20.209,35.395,48.178,36.591,83.593.237,7.049.484,14.341,1.018,21.884.588,8.5,5.576,15.151,10.861,22.2,12.23,16.3,24.87,33.155-11.854,76.449l0,0C187.757,341.6,167.7,355.6,148.3,369.145c-6.7,4.676-13.52,9.457-20.2,14.42h2.388c6.174-4.548,12.452-8.938,18.632-13.248C168.587,356.722,188.726,342.668,203.986,324.555Zm9.348,4.746c40.293-47.461,25.656-66.869,12.739-83.988-5.566-7.38-10.821-14.351-11.429-23.041-.568-8.137-.83-16.012-1.088-23.629-1.231-36.937-2.289-68.832-40.017-90.924C136.613,86.1,90.293,116.251,58.666,140.825c-12.709,9.867-26.032,24.064-37.842,37.545v2.165c12.027-13.792,25.715-28.489,38.717-38.588,23.812-18.493,56.018-40.209,86-40.209a53.06,53.06,0,0,1,27.287,7.217c37.041,21.692,38.044,51.718,39.3,89.732.257,7.633.519,15.522,1.093,23.689.638,9.111,6.016,16.244,11.711,23.8,12.6,16.694,26.867,35.617-12.685,82.2l0,0c-16.239,19.245-37.723,34.243-58.5,48.747q-4.56,3.188-9.17,6.436h2.486q3.759-2.647,7.5-5.265C175.408,363.741,196.976,348.689,213.334,329.3ZM20.824,380.885c1.191.865,2.363,1.775,3.544,2.679h2.368c-1.963-1.528-3.925-3.04-5.912-4.469Zm220.781,2.679h2.145a247.462,247.462,0,0,0,25.74-25.775c14.43-16.936,23.877-31.336,29.66-43.784v-3.633c-5.527,13.016-15.206,28.251-30.748,46.492A248.056,248.056,0,0,1,241.605,383.564Zm43.68,0h2.032q5.294-5.5,10.243-11.3c.554-.648,1.048-1.271,1.592-1.913v-2.234c-.9,1.078-1.75,2.126-2.684,3.223C292.893,375.546,289.141,379.6,285.285,383.564Zm13.866,0v-.134l-.119.134Zm-42.449,0h2.145a245.715,245.715,0,0,0,19.986-20.747A267.372,267.372,0,0,0,299.151,336v-2.635a259.16,259.16,0,0,1-21.4,28.523A247.186,247.186,0,0,1,256.7,383.564Zm18.671-178.234c-.865-12.2-1.226-23.965-1.582-35.355-1.71-55.415-3.065-99.184-57.714-130.846C162.585,7.986,95.395,52.482,49.505,88.672a311.836,311.836,0,0,0-28.681,26.309V117A314.518,314.518,0,0,1,50.4,89.794C85.2,62.339,132.337,30.044,176.175,30.044a76.547,76.547,0,0,1,39.186,10.322c53.967,31.262,55.306,74.68,57.007,129.655.351,11.4.717,23.189,1.582,35.409.919,13.085,8.839,23.343,17.223,34.2,2.689,3.49,5.428,7.049,7.979,10.781V247.9c-2.224-3.134-4.553-6.159-6.852-9.135C284.054,228.075,276.263,217.986,275.373,205.331Zm2.8,178.234h2.037c4.375-4.419,8.641-8.933,12.66-13.659,2.2-2.58,4.281-5.1,6.278-7.578v-2.3c-2.328,2.922-4.746,5.888-7.366,8.957C287.485,374.038,282.887,378.853,278.176,383.564Zm1.849-179.257c-.89-12.5-1.261-24.578-1.616-36.25-1.745-56.72-3.124-101.522-59.078-133.926C164.558,2.257,95.766,47.865,48.789,84.94a313.617,313.617,0,0,0-27.965,25.547V112.5a315.674,315.674,0,0,1,28.85-26.442C85.33,57.914,133.612,24.809,178.513,24.809a78.328,78.328,0,0,1,40.1,10.559C273.885,67.376,275.25,111.827,276.98,168.1c.361,11.686.732,23.773,1.621,36.3.944,13.4,9.056,23.891,17.643,35q1.453,1.876,2.907,3.782v-2.353q-.89-1.157-1.775-2.3C288.923,227.6,280.94,217.269,280.025,204.308Zm-31.02,179.257h2.145a246.6,246.6,0,0,0,23.021-23.4c10.935-12.838,19.081-24.247,24.979-34.48v-3c-5.922,10.742-14.356,22.809-26.066,36.556A247.941,247.941,0,0,1,249.005,383.564Zm21.7-176.928c-.84-11.884-1.2-23.362-1.542-34.46-1.676-54.115-3-96.856-56.354-127.767C160.588,14,95,57.385,50.217,92.686a308.569,308.569,0,0,0-29.393,27.055v2.066a312.347,312.347,0,0,1,30.273-28C85.063,67.04,131.051,35.556,173.817,35.556a74.65,74.65,0,0,1,38.272,10.089c52.667,30.515,53.982,72.9,55.643,126.575.346,11.113.7,22.606,1.547,34.515.9,12.784,8.621,22.8,16.8,33.407,4.642,6.021,9.437,12.255,13.075,19.289v-3.045A149.684,149.684,0,0,0,287.2,239.267C279.165,228.837,271.572,218.984,270.7,206.636Zm-4.672,1.305c-.821-11.572-1.167-22.754-1.5-33.566-1.641-52.81-2.941-94.522-55-124.687C158.586,19.989,94.609,62.3,50.919,96.7a307.648,307.648,0,0,0-30.1,27.871v2.076C31.077,115.95,41.6,105.855,51.8,97.822c33.126-26.081,77.957-56.75,119.659-56.75a72.888,72.888,0,0,1,37.357,9.847c51.367,29.774,52.657,71.135,54.283,123.5.336,10.826.687,22.018,1.508,33.62.875,12.477,8.4,22.255,16.372,32.6,7.8,10.134,16.051,20.866,18.172,35.207v-6.94c-3.361-11.345-10.361-20.456-17.04-29.136C274.281,229.6,266.876,219.988,266.03,207.941Zm-2.056,175.623h2.037a246.576,246.576,0,0,0,17.5-18.384c5.991-7.03,11.162-13.639,15.636-19.887v-2.506c-4.711,6.708-10.213,13.832-16.723,21.469A247.17,247.17,0,0,1,263.974,383.564Zm30.165,0c1.7-1.814,3.366-3.668,5.013-5.532v-2.121c-2.264,2.59-4.568,5.151-6.94,7.652Zm-23.066,0h2.037c5.245-5.156,10.342-10.441,15.087-16.022q5.984-7.029,10.954-13.53v-2.4c-3.619,4.8-7.588,9.773-12.042,15C282.077,372.531,276.664,378.127,271.073,383.564Z" transform="translate(-12.465 299.151) rotate(-90)" fill-rule="evenodd" opacity="0.5" fill="url(#linear-gradient)"/>
</svg>
