<svg xmlns="http://www.w3.org/2000/svg" xmlns:xlink="http://www.w3.org/1999/xlink" width="406.047" height="541.391" viewBox="0 0 406.047 541.391">
  <defs>
    <linearGradient id="linear-gradient" x1="-0.079" y1="0.066" x2="1.083" y2="0.937" gradientUnits="objectBoundingBox">
      <stop offset="0" stop-color="#d30000"/>
      <stop offset="1" stop-color="#c600c6"/>
    </linearGradient>
  </defs>
  <path id="Path_69508" data-name="Path 69508" d="M365.978,541.391a162.869,162.869,0,0,0,40.069-55.25v5.135a164.378,164.378,0,0,1-37,50.115Zm-340.153,0H22.45l-.13-.1C14.943,535.406,7.486,529.037,0,522.331v-2.82c7.926,7.147,15.823,13.933,23.626,20.15C24.34,540.23,25.1,540.822,25.826,541.391Zm-9.8-399.823c-.079-15.664-.123-26.02,20.561-38.266,8.3-4.955,16.306-12.029,24.044-18.866C73.258,73.294,85.373,62.591,97.194,62.591c4.543,0,9.044,1.587,13.515,5.33,8.979,7.522,18.873,14.424,28.451,21.095,16.429,11.452,33.412,23.294,46.184,38.619,29.749,35.713,19.306,50.62,10.082,63.774-3.894,5.553-7.565,10.8-8,17.258-.382,5.51-.6,10.883-.8,16.075-1.132,28.335-2.106,52.805-30.578,69.9C128.58,311.111,95.463,291.3,69.673,272.2c-14.114-10.464-29.071-28.162-40-41.079-4.637-5.488-8.64-10.226-11.582-13.241-14.957-15.318-12.686-22.1-8.568-34.408a119.652,119.652,0,0,0,4.76-17.46A121.636,121.636,0,0,0,16.025,141.568ZM19.58,216.42c3,3.072,7.024,7.832,11.683,13.349,10.861,12.844,25.732,30.434,39.643,40.747,18.736,13.89,41.389,28.169,62.613,28.169a40.909,40.909,0,0,0,21.455-5.834c27.513-16.508,28.422-39.319,29.568-68.195.209-5.207.418-10.594.808-16.133.469-7.031,4.305-12.512,8.373-18.311,9.217-13.154,18.751-26.756-9.981-61.243-12.592-15.109-29.46-26.871-45.781-38.244-9.606-6.7-19.544-13.623-28.588-21.2-14.719-12.34-29.843,1-47.36,16.479C54.2,92.9,46.12,100.035,37.646,105.091c-19.652,11.64-19.609,20.986-19.544,36.47a123.878,123.878,0,0,1-1.767,24.83A123.859,123.859,0,0,1,11.5,184.125C7.392,196.414,5.517,202.01,19.58,216.42Zm13.9-118.339c8.885-5.286,17.445-12.837,25.725-20.143C72.645,66.089,85.539,54.716,98.1,54.716c4.839,0,9.635,1.695,14.395,5.7,9.664,8.149,20.345,15.592,30.665,22.789,17.431,12.152,35.446,24.715,49.019,40.963,31.811,38.115,20.59,53.98,10.688,67.979-4.2,5.921-8.157,11.517-8.618,18.419-.418,5.971-.642,11.777-.858,17.395-1.175,30.16-2.192,56.2-32.569,74.375-29.28,17.525-64.647-3.779-92.174-24.3-15.037-11.207-31-30.095-42.651-43.877-4.926-5.834-9.181-10.868-12.3-14.07C-2.178,203.806.252,196.645,4.666,183.642A127,127,0,0,0,9.815,164.92c1.94-10.327,1.882-18.758,1.832-26.193C11.532,122.089,11.46,111.105,33.484,98.081ZM6.635,184.312C2.221,197.323.2,203.265,15.181,218.641c3.173,3.26,7.45,8.322,12.4,14.178,11.589,13.71,27.455,32.489,42.3,43.559,20.063,14.95,44.331,30.362,67.063,30.362a43.616,43.616,0,0,0,22.8-6.188c29.4-17.59,30.355-41.893,31.552-72.666.216-5.64.447-11.46.865-17.46.5-7.479,4.623-13.306,8.993-19.479,9.931-14.034,20.2-28.552-10.594-65.44-13.385-16.032-31.285-28.515-48.593-40.588-10.371-7.226-21.087-14.7-30.823-22.9C95.42,48.781,79.28,63.01,60.594,79.5,52.242,86.866,43.6,94.482,34.552,99.876c-21,12.412-20.936,22.357-20.821,38.836.05,7.529.108,16.068-1.868,26.59A130.283,130.283,0,0,1,6.635,184.312Zm13.753-39.9c-.022-14.705-.036-24.419,19.284-35.893,7.724-4.623,15.181-11.207,22.385-17.582,11.813-10.443,23.15-20.46,34.234-20.46a19.333,19.333,0,0,1,12.635,4.947c8.279,6.9,17.4,13.255,26.222,19.393,15.433,10.753,31.393,21.873,43.372,36.283,27.679,33.311,18.008,47.259,9.476,59.577-3.591,5.178-6.981,10.075-7.385,16.09-.346,5.048-.548,9.974-.736,14.734-1.082,26.518-2.019,49.43-28.6,65.44-25.631,15.433-56.519-2.9-80.57-20.6-13.19-9.707-27.152-26.222-37.35-38.28-4.342-5.135-8.092-9.57-10.861-12.4C8.459,201.311,10.565,194.907,14.388,183.3a113.647,113.647,0,0,0,4.363-16.2A114.486,114.486,0,0,0,20.388,144.41Zm3.6,69.789c2.82,2.885,6.592,7.349,10.962,12.52C45.074,238.69,58.942,255.1,71.938,264.659c17.4,12.808,38.439,25.977,58.156,25.977a38.221,38.221,0,0,0,20.107-5.481c25.624-15.433,26.489-36.751,27.592-63.745.195-4.774.4-9.714.75-14.791.433-6.584,3.981-11.712,7.745-17.135,8.5-12.275,17.3-24.96-9.368-57.053-11.8-14.193-27.643-25.227-42.968-35.908-8.849-6.166-18.008-12.541-26.359-19.5C93.876,65.591,79.77,78.061,63.442,92.492c-7.284,6.44-14.806,13.089-22.7,17.813-18.311,10.868-18.3,19.616-18.275,34.1A116.228,116.228,0,0,1,20.8,167.473a118.484,118.484,0,0,1-4.428,16.472C12.57,195.491,10.832,200.755,23.987,214.2ZM24.2,82.438C34.833,76.15,45.052,67.149,54.94,58.452,70.8,44.49,86.023,31.09,100.807,31.09c5.741,0,11.416,2.019,17.027,6.815C129.568,47.923,142.563,57,155.141,65.772c20.424,14.258,41.547,29,57.5,48.016,38.021,45.319,24.463,64.048,12.505,80.571-5.091,7.046-9.9,13.688-10.464,21.924-.512,7.334-.772,14.46-1.031,21.347-1.32,35.626-2.459,66.4-38.518,87.811-34.826,20.676-76.856-5.084-109.584-29.835-17.792-13.45-36.744-35.893-50.591-52.278C9.152,236.454,4.14,230.526.483,226.754c-.173-.18-.317-.339-.483-.512v-3.051c.649.7,1.269,1.385,1.976,2.113,3.707,3.822,8.741,9.779,14.568,16.681C30.333,258.3,49.2,280.634,66.8,293.947c24.044,18.188,53.151,36.946,80.412,36.946a51.64,51.64,0,0,0,26.85-7.241c35.093-20.835,36.16-49.639,37.5-86.095.26-6.909.526-14.049,1.038-21.419.6-8.827,5.582-15.707,10.854-23,12.08-16.688,24.563-33.939-12.412-78.01-15.779-18.816-36.787-33.477-57.1-47.656-12.613-8.8-25.66-17.907-37.465-27.982-18.707-15.974-37.927.938-60.168,20.525-9.96,8.762-20.251,17.828-31.054,24.217C.224,98.953.382,111.379.613,130.188A188.362,188.362,0,0,1,0,150.763V109.31C2.416,99.927,8.6,91.612,24.2,82.438Zm297.61-24.066v-.007c71.159,83.657,45.16,117.7,22.212,147.72-9.923,13-19.3,25.263-20.373,40.617-1.039,14.626-1.486,28.768-1.918,42.442-2.062,64.856-3.844,120.863-70.3,159.446C186.5,486.61,104.809,432.918,49.04,389.236c-16.227-12.707-33.066-29.41-49.04-46.7v-3.1c16.371,17.82,33.679,35.122,50.324,48.16,42.167,33.03,99.206,71.844,152.249,71.844a92.984,92.984,0,0,0,47.814-12.642c65.462-38.006,67.135-90.833,69.262-157.722.44-13.7.887-27.852,1.926-42.521,1.118-15.967,10.673-28.479,20.792-41.72,22.472-29.41,47.93-62.736-22.14-145.109v-.007C301.093,37.126,277.842,17.9,253.647,0h3.512C280.641,17.5,303.149,36.333,321.813,58.372ZM24.765,147.265c.029-13.227.043-22.789,18.008-33.535,7.176-4.3,14.1-10.421,20.8-16.349C74.549,87.674,85.078,78.349,95.4,78.349a18.069,18.069,0,0,1,11.748,4.579C114.733,89.2,123.062,95,131.125,100.612c14.445,10.053,29.381,20.453,40.566,33.946,25.624,30.9,16.724,43.9,8.878,55.365-3.289,4.817-6.4,9.361-6.772,14.928-.31,4.594-.5,9.072-.678,13.407-1.031,24.7-1.918,46.04-26.612,60.976-23.777,14.38-52.452-2.466-74.772-18.751-12.282-8.964-25.249-24.3-34.71-35.489-4.046-4.789-7.544-8.921-10.125-11.56-13.126-13.378-11.178-19.393-7.645-30.318a109.117,109.117,0,0,0,3.967-14.936A108.493,108.493,0,0,0,24.765,147.265Zm3.62,64.712c2.64,2.69,6.159,6.851,10.226,11.669,9.4,11.113,22.27,26.338,34.35,35.158,16.082,11.726,35.489,23.777,53.7,23.777a35.561,35.561,0,0,0,18.772-5.135c23.734-14.352,24.556-34.177,25.6-59.274.18-4.349.368-8.842.692-13.464.4-6.13,3.671-10.9,7.125-15.96,7.789-11.387,15.852-23.164-8.762-52.863-11.005-13.277-25.825-23.59-40.155-33.564-8.1-5.64-16.465-11.46-24.116-17.792C93.1,74.015,80.058,85.583,64.95,98.939c-6.765,5.993-13.767,12.181-21.109,16.58-16.948,10.14-16.962,18.275-16.991,31.754a110.02,110.02,0,0,1-1.579,21.282,112.488,112.488,0,0,1-4.031,15.2C17.741,194.568,16.147,199.5,28.386,211.977ZM311.067,0h3.274a362.123,362.123,0,0,1,41.605,41.057c29.482,34.617,44.338,61.762,50.1,83.967v11.207c-3.209-23.763-17.51-53.692-51.687-93.819C341.342,27.073,326.63,13.118,311.067,0ZM3.548,47.706c-1.262.736-2.38,1.457-3.548,2.185V47.447c.844-.512,1.608-1.017,2.5-1.536C17.207,37.292,31.3,24.924,44.93,12.967,50,8.524,55.012,4.14,59.988,0h3.231C57.716,4.529,52.084,9.462,46.3,14.532,32.6,26.554,18.433,38.987,3.548,47.706ZM21.109,77.224c11.214-6.62,21.989-16.1,32.41-25.27,16.667-14.669,32.67-28.746,48.189-28.746,6.036,0,12.008,2.135,17.907,7.19,12.419,10.637,26.193,20.258,39.521,29.554,21.419,14.965,43.581,30.427,60.334,50.375,40.083,47.721,25.753,67.409,13.111,84.775-5.4,7.414-10.493,14.409-11.092,23.085-.541,7.789-.815,15.347-1.082,22.652-1.363,37.458-2.546,69.81-40.509,92.3-36.65,21.722-80.909-5.517-115.382-31.674-18.707-14.207-38.677-37.848-53.252-55.1C7.024,241.351,3.231,236.872,0,233.237v-3.1c3.555,3.894,7.911,9.029,12.851,14.885,14.517,17.179,34.4,40.7,52.928,54.781,25.364,19.263,56.086,39.139,84.854,39.139a54.27,54.27,0,0,0,28.205-7.594c36.982-21.909,38.086-52.221,39.485-90.58.267-7.327.541-14.9,1.089-22.724.635-9.274,5.9-16.508,11.481-24.167,12.794-17.568,26.02-35.735-13.017-82.2-16.58-19.746-38.619-35.129-59.937-50.014-13.364-9.325-27.181-18.981-39.679-29.684C98.557,15.1,78.328,32.893,54.9,53.519,44.4,62.75,33.549,72.291,22.169,79.02,9.931,86.2,3.447,92.867,0,99.913V95.5C3.93,89.419,10.392,83.513,21.109,77.224ZM6.642,52.92c-2.4,1.406-4.58,2.791-6.642,4.168V54.572c1.76-1.139,3.606-2.286,5.589-3.447,14.135-8.286,27.672-20.171,40.768-31.66C54.218,12.563,61.964,5.777,69.6,0h3.426C64.892,5.993,56.5,13.342,47.735,21.03,34.559,32.583,20.95,44.533,6.642,52.92ZM171.324,42.694c24.354,17.005,49.531,34.6,68.62,57.24,46.285,54.925,29.626,77.469,14.921,97.367-6.3,8.524-12.246,16.573-12.938,26.583-.642,9.159-.945,18.03-1.248,26.612-1.514,42.925-2.813,79.993-46.466,105.733-42.687,25.148-96.227-9.188-132.791-37.22C39.953,302.55,16.984,275.354.209,255.493L0,255.248v-3.224c.606.721,1.183,1.392,1.8,2.128,16.71,19.789,39.6,46.877,60.889,63.2,29.345,22.494,64.9,45.737,98.2,45.737a62.35,62.35,0,0,0,32.266-8.661c42.665-25.155,43.884-59.952,45.434-104.009.3-8.6.613-17.489,1.262-26.684.728-10.616,6.851-18.9,13.335-27.679,14.936-20.215,30.383-41.122-14.842-94.785C219.441,78.832,194.373,61.329,170.134,44.4,154.441,33.441,138.207,22.111,123.6,9.44c-22.71-19.566-46.011.887-72.991,24.592C38.518,44.656,26.013,55.639,12.873,63.363A98.731,98.731,0,0,0,0,72.183V69.5a106.049,106.049,0,0,1,11.82-7.94c12.967-7.623,25.393-18.542,37.415-29.1C66.969,16.883,84.039,2.063,100.6,0h8.322a32.21,32.21,0,0,1,16.032,7.868C139.491,20.46,155.674,31.761,171.324,42.694Zm75.45,53.779c48.348,57.327,30.91,80.83,15.527,101.564-6.6,8.892-12.837,17.294-13.558,27.751-.671,9.613-1,18.924-1.305,27.931-1.558,44.742-2.906,83.39-48.449,110.211-44.555,26.222-100.425-9.736-138.59-39.066C39.427,308.738,17.128,282.891,0,262.647v-3.224c17.258,20.417,40.213,47.3,61.668,63.789,28.58,21.967,67.185,47.721,103.129,47.721a64.069,64.069,0,0,0,33.131-8.806c44.562-26.229,45.824-62.526,47.425-108.48.31-9.022.642-18.354,1.32-28,.757-11.063,7.169-19.7,13.955-28.847,15.65-21.1,31.84-42.917-15.448-98.982-19.717-23.366-45.817-41.6-71.065-59.238-16.443-11.481-33.441-23.352-48.73-36.636C124.526,1.2,123.668.627,122.81,0h3.44c.166.137.332.224.5.361,15.21,13.219,32.165,25.061,48.564,36.513C200.662,54.586,226.884,72.9,246.774,96.473ZM29.136,150.107c.065-12.3.115-21.181,16.731-31.162,6.592-3.959,12.96-9.606,19.126-15.065C75.162,94.872,84.919,86.224,94.5,86.224a16.772,16.772,0,0,1,10.861,4.2c6.887,5.647,14.445,10.9,21.744,15.981,13.457,9.354,27.369,19.032,37.761,31.6,23.547,28.508,15.433,40.552,8.279,51.175-3,4.442-5.82,8.633-6.159,13.753-.281,4.14-.454,8.171-.62,12.08-.988,22.89-1.832,42.651-24.636,56.512-21.938,13.342-48.384-2.019-68.967-16.9-11.359-8.214-23.33-22.364-32.064-32.7-3.75-4.435-7-8.265-9.4-10.717-12.2-12.4-10.421-18.044-7.183-28.27a103.057,103.057,0,0,0,3.57-13.666A102.373,102.373,0,0,0,29.136,150.107Zm3.649,59.649c2.466,2.5,5.726,6.361,9.505,10.832,8.669,10.248,20.546,24.282,31.7,32.352,14.748,10.659,32.547,21.6,49.242,21.6a32.867,32.867,0,0,0,17.424-4.789c21.852-13.284,22.638-31.609,23.633-54.817.173-3.923.346-7.976.627-12.13.375-5.683,3.353-10.1,6.5-14.784,7.082-10.508,14.4-21.369-8.157-48.68-10.2-12.354-23.994-21.946-37.336-31.22-7.342-5.1-14.928-10.378-21.881-16.082-11.7-9.592-23.741,1.053-37.675,13.4-6.231,5.524-12.671,11.236-19.429,15.289-15.614,9.383-15.65,16.912-15.722,29.4a103.856,103.856,0,0,1-1.486,19.53,107.493,107.493,0,0,1-3.628,13.919C22.919,193.645,21.462,198.238,32.785,209.756Zm19.3-164.3C69.558,30.095,86.333,15.347,102.61,15.347c6.339,0,12.6,2.236,18.787,7.536,13.169,11.351,27.809,21.578,41.973,31.465,22.342,15.592,45.442,31.718,62.923,52.509,42.153,50.122,27.044,70.762,13.717,88.965-5.7,7.782-11.077,15.138-11.7,24.253-.577,8.25-.858,16.255-1.139,23.994-1.421,39.268-2.64,73.193-42.492,96.761-38.511,22.8-85-5.957-121.187-33.528-19.631-14.964-40.6-39.78-55.906-57.9-2.712-3.209-5.229-6.181-7.58-8.914v-3.195c2.769,3.195,5.849,6.83,9.173,10.767,15.246,18.051,36.131,42.766,55.574,57.586,26.7,20.345,59.029,41.345,89.3,41.345a57.011,57.011,0,0,0,29.561-7.955c38.879-22.991,40.018-54.788,41.468-95.045.281-7.753.57-15.772,1.154-24.059.656-9.714,6.217-17.308,12.094-25.335,13.508-18.455,27.47-37.53-13.63-86.4C207.39,87.616,184.406,71.57,162.179,56.057c-14.207-9.923-28.9-20.171-42.132-31.595C99.3,6.707,78.061,25.393,53.454,47.021c-11.02,9.693-22.414,19.71-34.386,26.77C10.082,79.056,4.067,84.054,0,89.109V85.85C4.154,81.292,9.9,76.748,18.015,72,29.814,65.043,41.136,55.084,52.084,45.456Zm-1.428-6.5C68.945,22.89,86.5,7.464,103.511,7.464c6.635,0,13.19,2.344,19.667,7.9,13.854,11.986,29.266,22.746,44.172,33.16,23.345,16.291,47.483,33.145,65.772,54.867,44.216,52.524,28.328,74.116,14.315,93.17-5.993,8.149-11.661,15.852-12.318,25.414-.606,8.7-.909,17.143-1.2,25.306-1.464,41.1-2.726,76.59-44.482,101.239-40.35,23.835-89.066-6.382-126.978-35.374-20.554-15.707-42.514-41.706-58.553-60.688-1.349-1.6-2.632-3.115-3.909-4.616v-3.224c1.76,2.07,3.577,4.219,5.5,6.491C21.477,270.032,43.357,295.93,63.724,311.5c28.018,21.419,61.964,43.538,93.746,43.538a59.771,59.771,0,0,0,30.917-8.3c40.768-24.073,41.951-57.37,43.451-99.523.289-8.178.591-16.638,1.2-25.378.7-10.161,6.534-18.1,12.714-26.511,14.222-19.328,28.927-39.319-14.236-90.588C213.412,83.224,189.39,66.45,166.16,50.23,151.21,39.788,135.748,29,121.815,16.948c-21.722-18.65-44,.916-69.782,23.575C40.473,50.685,28.523,61.185,15.967,68.577A83.637,83.637,0,0,0,0,80.26V77.376a92.231,92.231,0,0,1,14.914-10.6C27.3,59.49,39.175,49.048,50.656,38.958ZM9.779,58.142A116.156,116.156,0,0,0,0,64.5V61.964c2.632-1.853,5.474-3.721,8.719-5.618,13.551-7.955,26.539-19.357,39.1-30.376C59.072,16.075,70.07,6.527,80.852,0h3.822C73.409,6.281,61.683,16.558,49.192,27.528,36.557,38.619,23.5,50.086,9.779,58.142ZM50.036,174.7a74.468,74.468,0,0,0,.916-10.262c.288-7.709.5-13.27,10.4-19.429a83.443,83.443,0,0,0,10.76-8.654C78,131.06,84.047,125.637,90.076,125.637a10.3,10.3,0,0,1,6.361,2.272c3.289,2.481,6.822,4.9,10.234,7.234,8.647,5.921,17.59,12.044,24.095,20.164,13.212,16.486,8.993,23.749,5.272,30.16-1.5,2.582-2.914,5.019-3.1,7.926-.1,1.709-.188,3.39-.274,5.041-.714,13.962-1.327,26.013-14.755,34.559-12.714,8.106-27.333.685-39.946-7.637-6.786-4.486-13.479-12.383-18.859-18.736-2.279-2.69-4.248-5.019-5.769-6.519-7.666-7.6-6.685-11.38-4.9-18.239C48.954,179.827,49.552,177.519,50.036,174.7Zm4.76,23.922c1.587,1.565,3.584,3.923,5.892,6.649,5.293,6.253,11.878,14.02,18.419,18.34,8.474,5.589,17.856,10.774,26.756,10.774A19.981,19.981,0,0,0,116.8,231.24c12.513-7.969,13.075-18.974,13.789-32.915.079-1.652.166-3.346.281-5.063.209-3.4,1.817-6.166,3.368-8.842,3.548-6.116,7.226-12.44-5.1-27.809-6.31-7.883-15.123-13.912-23.64-19.746-3.433-2.351-6.981-4.781-10.306-7.3-6.743-5.084-13.666,1.139-21.686,8.337a83.856,83.856,0,0,1-11.056,8.863c-8.957,5.582-9.13,10.161-9.411,17.748a76.2,76.2,0,0,1-.945,10.536c-.5,2.9-1.111,5.257-1.651,7.334C48.7,189.094,47.98,191.863,54.8,198.621ZM7.277,135.885c-.159-17.6-.26-29.222,23.114-43.011,9.469-5.625,18.585-13.659,27.4-21.434C72.024,58.892,85.7,46.841,99,46.841c5.142,0,10.234,1.8,15.275,6.072,10.356,8.769,21.809,16.76,32.879,24.484C165.576,90.249,184.63,103.54,199,120.719c33.881,40.509,21.881,57.334,11.294,72.162-4.5,6.3-8.741,12.246-9.238,19.594-.44,6.419-.685,12.671-.916,18.707-1.219,31.984-2.272,59.606-34.552,78.861-31.155,18.578-68.714-4.219-97.98-26.143-15.945-11.957-32.908-32.028-45.29-46.682-5.221-6.181-9.729-11.51-13.032-14.907A65.849,65.849,0,0,1,0,210.823v-4.443c1.774,4.082,5.084,8.625,10.782,14.489,3.346,3.44,7.875,8.8,13.118,15,12.325,14.582,29.193,34.545,44.958,46.358,21.39,16.039,47.266,32.561,71.512,32.561a46.3,46.3,0,0,0,24.152-6.534c31.3-18.679,32.287-44.482,33.535-77.152.224-6.058.469-12.318.916-18.772.534-7.933,4.947-14.106,9.613-20.655,10.652-14.921,21.657-30.347-11.193-69.623-14.186-16.962-33.124-30.174-51.435-42.946-11.113-7.753-22.6-15.772-33.03-24.607-16.717-14.142-33.881.981-53.764,18.506-8.885,7.839-18.073,15.931-27.715,21.657C9.109,107.846,9.2,118.4,9.361,135.871c.072,8.027.151,17.114-1.962,28.343a135.682,135.682,0,0,1-5.632,20.272C1.1,186.411.519,188.171,0,189.851v-6.642a128.717,128.717,0,0,0,5.344-19.378C7.428,152.8,7.349,143.818,7.277,135.885Zm47.237,39.9a69.575,69.575,0,0,0,.793-8.459c.339-6.794.577-11.712,9.137-17.114a71.589,71.589,0,0,0,9.094-7.37c5.113-4.616,10.356-9.347,15.628-9.347a9.138,9.138,0,0,1,5.488,1.9c2.517,1.846,5.149,3.628,7.8,5.416,7.738,5.25,15.743,10.681,21.5,17.95,11.135,14.085,7.7,20.388,4.673,25.948-1.2,2.214-2.337,4.3-2.488,6.772-.079,1.2-.137,2.387-.2,3.555-.656,12.21-1.219,22.746-12.779,30.246-10.9,7.082-23.388,1.053-34.141-5.784-5.892-3.743-11.625-10.515-16.241-15.96-1.983-2.337-3.692-4.356-5.027-5.669-6.765-6.635-5.95-10.06-4.464-16.27C53.678,179.92,54.139,178.031,54.514,175.781Zm4.688,20.6c1.406,1.377,3.144,3.433,5.164,5.813,4.515,5.329,10.14,11.972,15.758,15.541,7.046,4.479,14.842,8.611,22.263,8.611a17.277,17.277,0,0,0,9.635-2.82c10.666-6.916,11.178-16.486,11.835-28.609.058-1.168.123-2.358.195-3.577.187-2.928,1.478-5.315,2.74-7.623,2.856-5.243,5.805-10.666-4.479-23.662-5.553-7.024-13.421-12.361-21.03-17.518-2.668-1.81-5.315-3.606-7.861-5.467-5.719-4.2-11.647,1.139-18.484,7.313a72.418,72.418,0,0,1-9.383,7.587c-7.637,4.825-7.839,8.834-8.164,15.462a71.838,71.838,0,0,1-.829,8.69c-.382,2.322-.851,4.255-1.255,5.957C53.872,188.084,53.274,190.565,59.2,196.378Zm-.216-19.522c.4-2.5.541-4.68.671-6.613.382-5.906.656-10.176,7.883-14.835a59.725,59.725,0,0,0,7.421-6.087c4.342-3.945,8.784-7.983,13.313-7.983a7.886,7.886,0,0,1,4.587,1.522c1.695,1.175,3.433,2.329,5.178,3.5,6.916,4.594,14.056,9.354,19.1,15.844,9.065,11.669,6.411,17.02,4.075,21.736a14.62,14.62,0,0,0-1.882,5.6l-.115,1.962c-.584,10.508-1.089,19.573-10.811,26.042-9.152,6.1-19.457,1.442-28.335-3.923-4.983-3-9.772-8.647-13.623-13.19-1.68-1.976-3.13-3.685-4.284-4.8-5.878-5.69-5.221-8.77-4.024-14.373C58.409,179.971,58.719,178.529,58.985,176.855Zm4.623,17.272c1.226,1.19,2.712,2.935,4.421,4.962,3.75,4.421,8.423,9.923,13.111,12.75,5.834,3.519,11.878,6.527,17.676,6.527a14.886,14.886,0,0,0,8.431-2.553c8.849-5.892,9.31-14.07,9.887-24.426l.108-1.969a16.493,16.493,0,0,1,2.1-6.4c2.272-4.572,4.406-8.9-3.851-19.537-4.832-6.224-11.835-10.883-18.606-15.39-1.76-1.168-3.5-2.337-5.207-3.519-4.767-3.281-9.649,1.147-15.311,6.3a62.062,62.062,0,0,1-7.7,6.3c-6.339,4.089-6.556,7.327-6.938,13.219-.13,1.976-.274,4.219-.692,6.808-.274,1.709-.591,3.188-.873,4.5C59.029,187.039,58.56,189.253,63.608,194.128Zm-60.7-61.077c-.2-18.57-.332-30.838,24.39-45.391C37.35,81.7,47.014,73.186,56.36,64.95,71.411,51.687,85.857,38.965,99.9,38.965c5.445,0,10.825,1.911,16.154,6.447,11.041,9.39,23.265,17.914,35.093,26.172,19.421,13.551,39.514,27.571,54.673,45.672,35.951,42.918,23.172,60.687,11.9,76.366-4.8,6.671-9.325,12.967-9.851,20.756-.476,6.88-.728,13.565-.974,20.027-1.269,33.8-2.365,63-36.535,83.333C137.392,337.362,97.576,313.1,66.58,289.749c-16.868-12.7-34.826-33.953-47.937-49.466-5.51-6.527-10.277-12.166-13.76-15.751-1.861-1.918-3.447-3.7-4.882-5.409v-3.346a87.37,87.37,0,0,0,6.382,7.305c3.527,3.635,8.308,9.3,13.854,15.852,13.046,15.441,30.917,36.593,47.591,49.156,22.724,17.106,50.216,34.754,75.962,34.754a48.959,48.959,0,0,0,25.5-6.895c33.2-19.753,34.22-47.057,35.518-81.623.245-6.483.5-13.183.981-20.092.57-8.38,5.265-14.914,10.241-21.83,11.359-15.794,23.1-32.136-11.813-73.813-14.979-17.885-34.948-31.826-54.262-45.3-11.871-8.286-24.131-16.84-35.251-26.3C96.992,31.92,78.8,47.959,57.738,66.515,48.319,74.808,38.576,83.39,28.357,89.448,4.666,103.4,4.8,115.18,4.991,133.022c.087,8.524.195,18.174-2.063,30.1A118.1,118.1,0,0,1,0,175.2v-8.4c.3-1.327.613-2.625.88-4.06C3.094,151.008,2.993,141.467,2.906,133.051ZM67.95,178.94c.123-.88.216-1.695.3-2.452.49-4.349.844-7.486,5.488-10.738a40.115,40.115,0,0,0,4.06-3.491c2.784-2.618,5.647-5.308,8.719-5.308a5.5,5.5,0,0,1,2.74.757c5.366,3.014,10.811,6.469,14.294,11.337,4.9,6.844,3.887,10.133,2.9,13.32a12.9,12.9,0,0,0-.707,3.245c-.31,6.217-1.067,12.145-6.8,16.392-5.632,4.168-11.351,2.4-16.688-.152-3.216-1.536-6.116-4.947-8.438-7.68a39.968,39.968,0,0,0-2.791-3.079c-4.226-3.88-3.866-6.462-3.2-11.164Zm4.479,10.623a39.261,39.261,0,0,1,2.964,3.26c2.207,2.582,4.94,5.805,7.753,7.147,3.065,1.464,5.842,2.445,8.481,2.445A9.925,9.925,0,0,0,97.7,200.33c5.012-3.714,5.661-8.914,5.957-14.82a14.905,14.905,0,0,1,.8-3.765c.88-2.82,1.7-5.481-2.6-11.488-3.245-4.536-8.467-7.839-13.616-10.738-2.618-1.464-5.156.627-9.015,4.255a41.169,41.169,0,0,1-4.291,3.678c-3.88,2.719-4.14,5.041-4.608,9.267-.087.779-.18,1.608-.3,2.5l-.137,1C69.248,184.731,69.017,186.426,72.428,189.563ZM76.82,170.79a30.863,30.863,0,0,0,2.358-2.149c1.94-1.9,4.089-4.024,6.541-4.024a4.445,4.445,0,0,1,1.673.339,20.181,20.181,0,0,1,9.39,7.392c2.9,4.565,2.625,6.887,2.337,9.347-.065.57-.137,1.161-.159,1.8-.18,4.5-1.767,8.056-4.709,10.565-3.281,2.805-6.318,3.3-10.825,1.788-2.373-.808-4.262-3.022-5.928-4.969a22.5,22.5,0,0,0-2.026-2.185c-3.051-2.647-3.418-5.048-3.022-8.827C72.825,176.257,73.359,173.5,76.82,170.79Zm.022,16.335a23.894,23.894,0,0,1,2.243,2.394c1.486,1.745,3.18,3.729,5.012,4.349a11.963,11.963,0,0,0,3.75.728,7.455,7.455,0,0,0,5.055-2.128c2.481-2.12,3.822-5.171,3.974-9.058.029-.692.1-1.334.173-1.954.267-2.265.476-4.053-2.019-7.991a18.208,18.208,0,0,0-8.423-6.584c-1.76-.714-3.5.822-5.971,3.245a34.038,34.038,0,0,1-2.531,2.308c-2.733,2.135-3.209,4.06-3.584,7.637C74.166,183.483,74.462,185.063,76.842,187.125ZM0,35.554V33.073C14.525,23.958,28.5,11.871,42.038,0H45.2c-.584.512-1.168,1.017-1.76,1.536C29.5,13.767,15.073,26.28,0,35.554ZM79.929,175.024c1.24-1.457,2.777-3.274,5.027-3.274a5.229,5.229,0,0,1,4.854,3.656,12.474,12.474,0,0,0,.844,1.8,7.9,7.9,0,0,1,1.233,3.707c0,1.4-1.038,2.733-1.875,3.808-.231.288-.44.555-.606.793-.195.3-.382.6-.555.88C87.984,187.8,87,189.4,84.53,189.4c-1.673,0-2.719-1.212-3.642-2.272a8.37,8.37,0,0,0-1.212-1.248,7.278,7.278,0,0,1-3.022-5.459c0-1.8,1.3-3.209,2.351-4.349Zm1,9.188a10.074,10.074,0,0,1,1.543,1.543c.837.974,1.392,1.565,2.063,1.565,1.248,0,1.688-.62,2.546-2.027q.281-.465.606-.952c.187-.274.433-.584.685-.916a5.827,5.827,0,0,0,1.435-2.517,6.229,6.229,0,0,0-.988-2.726,13.326,13.326,0,0,1-.981-2.127,3.153,3.153,0,0,0-2.877-2.228c-1.284,0-2.43,1.356-3.44,2.546l-.981,1.111c-.844.916-1.8,1.954-1.8,2.935A5.223,5.223,0,0,0,80.924,184.212Zm-17.46-6.3c.267-1.738.4-3.281.519-4.68.433-5.055.75-8.712,6.657-12.642a49.236,49.236,0,0,0,5.741-4.8c3.563-3.274,7.212-6.635,11.005-6.635a6.712,6.712,0,0,1,3.685,1.147l2.128,1.363c6.253,3.988,12.722,8.113,17.135,13.962,6.981,9.26,5.128,13.652,3.483,17.525a13.439,13.439,0,0,0-1.3,4.551c-.49,8.9-.923,16.587-8.856,22.09-7.349,5.092-15.166,2.019-22.523-2.048-4.082-2.264-7.926-6.779-11.005-10.407-1.385-1.637-2.582-3.036-3.555-3.959-5.012-4.76-4.507-7.544-3.606-12.6C63.132,179.92,63.305,178.968,63.464,177.916Zm4.551,13.955c1.053,1,2.286,2.445,3.707,4.118,2.978,3.5,6.678,7.861,10.428,9.945,4.32,2.387,8.784,4.414,13.118,4.414a12.334,12.334,0,0,0,7.2-2.265c7.1-4.911,7.479-11.791,7.976-20.6a14.926,14.926,0,0,1,1.457-5.142c1.551-3.678,3.022-7.154-3.231-15.455-4.19-5.553-10.5-9.57-16.594-13.464l-2.142-1.363c-3.512-2.279-6.931.476-12.152,5.272a51.117,51.117,0,0,1-5.993,4.991c-5.077,3.375-5.308,6.116-5.741,11.092-.123,1.442-.26,3.022-.534,4.81-.159,1.075-.332,2.041-.49,2.935C64.149,186.058,63.817,187.89,68.015,191.87ZM33.506,152.956c.108-11.373.195-19.587,15.455-28.8,6.015-3.628,11.827-8.791,17.46-13.782C75.775,102.069,84.753,94.1,93.595,94.1a15.532,15.532,0,0,1,9.981,3.829c6.188,5.019,12.945,9.714,19.494,14.258,12.469,8.661,25.371,17.618,34.977,29.287,21.477,26.1,14.142,37.191,7.666,46.971-2.69,4.067-5.236,7.911-5.539,12.592-.245,3.671-.4,7.255-.562,10.731-.93,21.073-1.731,39.276-22.638,52.055C116.86,276.133,92.65,262.236,73.8,248.772c-10.443-7.464-21.4-20.417-29.4-29.886-3.469-4.1-6.455-7.63-8.69-9.895-11.294-11.438-9.664-16.7-6.721-26.237a98.718,98.718,0,0,0,3.173-12.4A96.073,96.073,0,0,0,33.506,152.956Zm3.678,54.572c2.293,2.322,5.308,5.892,8.8,10.017,7.94,9.375,18.8,22.22,29.035,29.532,13.414,9.592,29.583,19.414,44.771,19.414a30.3,30.3,0,0,0,16.1-4.443c19.962-12.2,20.705-29.049,21.65-50.374.152-3.491.31-7.089.563-10.775.339-5.229,3.159-9.491,5.885-13.609,6.368-9.621,12.96-19.58-7.544-44.49-9.426-11.452-22.205-20.323-34.559-28.9-6.577-4.565-13.371-9.282-19.616-14.344-10.731-8.7-21.722,1.075-34.465,12.383-5.69,5.048-11.582,10.284-17.763,14.005C35.771,134.551,35.7,141.489,35.59,152.977a98.065,98.065,0,0,1-1.385,17.755,100.886,100.886,0,0,1-3.231,12.635C28.09,192.714,26.777,196.976,37.184,207.527ZM287.679,75.7V75.7c60.846,71.642,38.713,100.915,19.191,126.733-8.423,11.135-16.378,21.657-17.294,34.783-.873,12.325-1.262,24.253-1.644,35.785-1.839,55.7-3.426,103.821-60.363,137.126-55.733,32.619-125.652-13-173.394-50.137C36.052,345.886,17.085,325.953,0,306.618v-3.152c17.417,19.811,36.9,40.437,55.452,54.875,35.98,27.989,84.638,60.853,129.928,60.853a80.1,80.1,0,0,0,41.143-10.868c55.935-32.727,57.435-78.032,59.324-135.395.382-11.553.779-23.5,1.651-35.872.959-13.738,9.094-24.491,17.705-35.886,19.054-25.2,40.653-53.757-19.111-124.123l-.007-.007c-24.5-29.006-56.88-51.622-88.2-73.488C196.2,2.387,194.5,1.183,192.815,0h3.627c.873.613,1.76,1.24,2.632,1.846C230.5,23.792,263.008,46.48,287.679,75.7Zm-13.652,6.923h-.007c56.721,66.832,36.138,94.194,17.979,118.332-7.818,10.392-15.2,20.207-16.054,32.446-.8,11.416-1.168,22.472-1.536,33.16-1.738,52.055-3.245,97.013-56.389,128.161-52,30.492-117.243-11.9-161.79-46.444C37.278,333.583,17.323,312.034,0,292.086V288.92c17.611,20.366,38.129,42.687,57.507,57.716,33.513,25.977,78.825,56.469,121,56.469a74.734,74.734,0,0,0,38.461-10.176c52.156-30.564,53.569-72.875,55.365-126.438.361-10.7.728-21.78,1.543-33.239.887-12.844,8.452-22.9,16.465-33.549,17.683-23.511,37.732-50.165-17.907-115.728v-.007c-22.89-27.153-53.194-48.3-82.5-68.757C182.805,10.241,175.608,5.156,168.439,0H172c6.382,4.565,12.779,9.08,19.119,13.5C220.537,34.033,250.957,55.264,274.027,82.626ZM37.876,155.8c.159-10.443.267-17.986,14.186-26.431,5.423-3.3,10.688-7.976,15.779-12.505,8.546-7.6,16.753-14.892,24.852-14.892a14.242,14.242,0,0,1,9.1,3.454c5.481,4.392,11.445,8.532,17.222,12.534,11.5,7.962,23.388,16.2,32.208,26.972,19.407,23.691,12.852,33.823,7.068,42.766-2.394,3.692-4.652,7.19-4.926,11.423-.216,3.209-.361,6.339-.5,9.383-.88,19.263-1.644,35.908-20.662,47.612-18.26,11.243-40.249-1.139-57.363-13.2C65.3,236.194,55.329,224.41,48.045,215.8c-3.152-3.736-5.885-6.959-7.933-9.029-10.378-10.472-8.921-15.347-6.267-24.2a93.026,93.026,0,0,0,2.777-11.128A89.451,89.451,0,0,0,37.876,155.8Zm3.714,49.5c2.106,2.127,4.861,5.38,8.048,9.152,7.212,8.517,17.078,20.186,26.4,26.756,12.714,8.964,26.828,17.323,40.141,17.323a27.909,27.909,0,0,0,14.936-4.19c18.073-11.128,18.78-26.489,19.674-45.932.137-3.058.289-6.2.5-9.419.3-4.781,2.82-8.669,5.25-12.426,5.669-8.755,11.517-17.8-6.923-40.314-8.64-10.537-20.409-18.693-31.783-26.583-5.806-4.024-11.806-8.185-17.344-12.621-9.714-7.8-19.7,1.089-31.263,11.373-5.156,4.587-10.5,9.339-16.082,12.729C40.206,139,40.112,145.333,39.953,155.833a91.113,91.113,0,0,1-1.276,15.981,95.018,95.018,0,0,1-2.841,11.344C33.261,191.784,32.085,195.707,41.591,205.306ZM314.983,61.834v-.007c69.1,81.256,43.869,114.336,21.607,143.522-9.621,12.621-18.707,24.542-19.753,39.449-1,14.171-1.442,27.881-1.868,41.136-2,63.024-3.75,117.459-68.3,154.96-63.082,36.961-142.426-15.123-196.6-57.514C33.47,370.392,16.241,353.1,0,335.357v-3.1c16.623,18.26,34.335,36.167,51.355,49.48,40.927,32.028,96.3,69.659,147.777,69.659a90.369,90.369,0,0,0,46.48-12.3c63.565-36.924,65.2-88.251,67.279-153.237.425-13.27.858-26.994,1.868-41.216,1.089-15.52,10.356-27.686,20.179-40.559,21.78-28.559,46.473-60.933-21.542-140.9v-.007C292.973,39.052,267.739,18.852,241.726,0h3.512C270.544,18.448,295.021,38.251,314.983,61.834ZM253.56,93.011V93c50.526,59.635,32.273,84.133,16.169,105.74-6.916,9.282-13.45,18.051-14.207,28.948-.707,10.068-1.039,19.811-1.363,29.244-1.608,46.574-2.993,86.794-50.432,114.7-46.43,27.29-104.636-10.277-144.4-40.913C38.951,315.012,17.308,290.442,0,270.09v-3.231c17.5,20.647,39.744,46.134,60.6,62.209,29.814,22.97,70.092,49.906,107.6,49.906a66.781,66.781,0,0,0,34.465-9.145c46.459-27.311,47.757-65.115,49.408-112.966.324-9.447.664-19.219,1.37-29.316.8-11.51,7.507-20.518,14.611-30.044,16.407-22.018,33.369-44.785-16.082-103.143l-.007-.007C231.485,70,204.3,51.031,178.017,32.7,163.2,22.357,148.008,11.647,133.851,0h3.267c13.544,10.976,27.989,21.145,42.088,30.989C205.609,49.4,232.906,68.44,253.56,93.011Zm-208,80.607a77.735,77.735,0,0,0,1.024-12.051c.245-8.618.418-14.849,11.661-21.772,4.269-2.625,8.423-6.346,12.448-9.938,6.923-6.195,13.573-12.145,20.2-12.145a11.777,11.777,0,0,1,7.334,2.712c4.039,3.123,8.4,6.13,12.621,9.044,9.577,6.592,19.472,13.4,26.727,22.386,15.282,18.895,10.284,27.116,5.87,34.372-1.8,2.95-3.491,5.733-3.707,9.08-.137,2.2-.245,4.356-.346,6.462-.764,15.736-1.421,29.338-16.724,38.944-14.546,9.123-31.292.317-45.759-9.505-7.7-5.221-15.678-14.64-21.5-21.52-2.575-3.043-4.8-5.669-6.491-7.363-8.568-8.553-7.428-12.7-5.358-20.222A84.309,84.309,0,0,0,45.564,173.617ZM50.4,200.849c1.76,1.752,4.01,4.406,6.613,7.486,5.741,6.786,13.609,16.075,21.073,21.145,9.887,6.714,20.857,12.952,31.227,12.952a22.573,22.573,0,0,0,12.26-3.491c14.373-9.029,14.979-21.491,15.751-37.278.1-2.12.209-4.284.346-6.491.252-3.858,2.156-7,4-10.032,4.262-7,8.654-14.222-5.7-31.984-7.068-8.741-16.847-15.469-26.287-21.982-4.248-2.921-8.64-5.943-12.729-9.116-7.724-5.979-15.678,1.132-24.866,9.346-4.089,3.656-8.315,7.443-12.743,10.162-10.284,6.332-10.421,11.5-10.666,20.056a81.633,81.633,0,0,1-1.053,12.354c-.613,3.476-1.37,6.238-2.041,8.676C43.531,190.082,42.68,193.154,50.4,200.849Zm-9.3-28.321A83.712,83.712,0,0,0,42.225,158.7c.2-9.541.346-16.436,12.938-24.116,4.839-2.964,9.548-7.161,14.1-11.222,7.746-6.9,15.166-13.522,22.537-13.522a12.992,12.992,0,0,1,8.214,3.079c4.767,3.765,9.938,7.349,14.943,10.8C125.486,131,136.368,138.532,144.4,148.39c17.359,21.3,11.575,30.484,6.469,38.583-2.091,3.317-4.067,6.462-4.32,10.248-.166,2.668-.288,5.286-.411,7.832-.815,17.539-1.522,32.691-18.707,43.357-16.356,10.176-35.237-.036-51.557-11.351-8.611-5.971-17.575-16.566-24.131-24.3-2.87-3.4-5.351-6.325-7.226-8.214-9.484-9.52-8.178-14.041-5.813-22.234A89.665,89.665,0,0,0,41.093,172.528Zm4.9,30.549c1.94,1.947,4.45,4.9,7.349,8.337,6.469,7.652,15.34,18.123,23.727,23.936,11.3,7.832,23.835,15.13,35.677,15.13a25.236,25.236,0,0,0,13.594-3.837c16.255-10.1,16.9-24.037,17.727-41.684.115-2.56.238-5.193.418-7.883.281-4.313,2.488-7.818,4.63-11.214,4.955-7.875,10.089-16.01-6.318-36.153-7.854-9.635-18.614-17.07-29.02-24.268-5.034-3.483-10.234-7.075-15.051-10.883-8.712-6.887-17.691,1.111-28.068,10.356-4.63,4.132-9.4,8.387-14.409,11.445-11.618,7.1-11.741,12.852-11.936,22.386a86.839,86.839,0,0,1-1.161,14.15,92.3,92.3,0,0,1-2.438,10C38.417,190.81,37.379,194.431,45.99,203.078ZM260.39,89.549l-.007-.007c52.6,62.036,33.564,87.487,16.775,109.937-7.212,9.657-14.034,18.772-14.82,30.117-.743,10.515-1.082,20.705-1.421,30.549-1.652,48.406-3.079,90.205-52.423,119.183C160.211,407.67,99.66,368.5,58.308,336.576,38.41,321.207,17.4,297.776,0,277.439v-3.2c17.633,20.669,39.24,44.973,59.577,60.68,31.047,23.979,73,52.1,112.064,52.1a69.459,69.459,0,0,0,35.8-9.484c48.348-28.4,49.7-67.7,51.391-117.452.339-9.866.685-20.071,1.435-30.629.822-11.957,7.818-21.311,15.224-31.213,17.121-22.9,34.826-46.574-16.7-107.348h0C237.514,65.606,209.287,45.91,182,26.871,169.651,18.253,157.045,9.4,144.936,0h3.44c11.416,8.748,23.222,17.07,34.811,25.162C210.592,44.281,238.928,64.048,260.39,89.549Zm40.941-20.77v-.007c64.971,76.453,41.288,107.622,20.395,135.135-9.022,11.871-17.539,23.092-18.52,37.1-.93,13.234-1.349,26.028-1.752,38.4-1.933,59.361-3.606,110.637-64.337,146.1-59.454,34.732-134.06-14.085-184.99-53.822C34.775,358.161,16.71,339.619,0,321.041v-3.1c17.063,19.068,35.641,38.252,53.4,52.113,38.439,29.994,90.451,65.231,138.856,65.231a85.381,85.381,0,0,0,43.8-11.561c59.736-34.9,61.315-83.21,63.305-144.381.4-12.39.822-25.205,1.76-38.475,1.024-14.633,9.722-26.092,18.938-38.223,20.424-26.886,43.567-57.348-20.323-132.517v-.007C276.653,42.809,247.012,20.828,217.4,0H221C249.918,20.4,278.708,42.016,301.331,68.779Zm77.592,472.612a165.24,165.24,0,0,0,27.124-36.311v4.291a166.677,166.677,0,0,1-24.181,32.021Zm-235.055,0h-4.594c-38.05-20-74.116-46.336-104.636-70.524C23.229,461.823,11.6,451.388,0,440.152v-2.921a477.266,477.266,0,0,0,35.929,32C67.33,494.125,104.636,521.263,143.869,541.391Zm14.092,0h-5.092C110.218,521.27,69.471,491.781,35.662,465A470.982,470.982,0,0,1,0,433.221V430.3a473.892,473.892,0,0,0,36.961,33.066C71.772,490.937,113.976,521.35,157.96,541.391Zm197.438,0h-3.3c28.162-22.854,44.4-48.817,53.952-77.823v6.469C396.426,496.382,380.9,520.181,355.4,541.391Zm35.742,0a168.231,168.231,0,0,0,14.907-19.645V525.7a169.362,169.362,0,0,1-12.08,15.693Zm-259.878,0h-4.342c-33.852-19.277-65.786-42.831-93.306-64.654-11.07-8.777-22.357-18.866-33.614-29.7v-2.878c11.69,11.315,23.417,21.83,34.905,30.939C63.248,497.579,96.307,521.847,131.262,541.391Zm193.457,0h-3.793c69.4-43.891,81.429-101.427,85.121-172.031v28.177C400.184,455.2,383.315,503.241,324.719,541.391Zm-150.323,0h-5.769C120.7,522.121,74.3,488.9,36.687,459.133A467.479,467.479,0,0,1,0,426.291v-2.928A471.262,471.262,0,0,0,37.985,457.5C76.777,488.2,124.945,522.583,174.4,541.391Zm228.434-214.1c-2.748,90.357-4.919,161.725-94.136,213.333-.469.274-.952.5-1.428.764h-4.4c1.594-.837,3.2-1.644,4.789-2.56,88.215-51.031,90.364-121.887,93.09-211.595.57-18.736,1.161-38.107,2.589-58.192a59.6,59.6,0,0,1,2.712-13.753v9.354c-.231,1.507-.526,2.993-.635,4.544C403.984,289.237,403.393,308.587,402.831,327.294Zm-6.765-3.231c-2.69,88.453-4.818,158.321-92.145,208.854a122.7,122.7,0,0,1-17.8,8.474h-6.08a120.053,120.053,0,0,0,22.833-10.277C389.2,481.165,391.313,411.809,393.982,324c.562-18.311,1.139-37.242,2.531-56.872.75-10.58,4.392-20,9.534-28.977v4.493c-4,7.709-6.83,15.765-7.457,24.628C397.2,286.857,396.628,305.774,396.066,324.063ZM119.644,541.391h-4.1c-29.98-18.174-58.221-39.16-82.95-58.783C21.852,474.083,10.919,464.34,0,453.912v-2.87c11.359,10.912,22.724,21.08,33.881,29.929C59.382,501.207,88.633,522.864,119.644,541.391Zm221.042,0H337.1c42.1-30.246,60.464-66.4,68.945-108.314v9.75C396.881,480.5,378.628,513.4,340.686,541.391Zm-144.106,0h-7.81c-54.536-16.4-108.523-54.485-151.052-88.128A463.95,463.95,0,0,1,0,419.36v-2.928a466.237,466.237,0,0,0,39.009,35.194C83.253,486.632,139.96,526.448,196.58,541.391ZM389.308,320.847C386.662,407.4,384.57,475.764,299.146,525.2a120.365,120.365,0,0,1-55.754,16.19H230.634c-67.423-2.942-138.784-52.019-191.892-94A461.565,461.565,0,0,1,0,412.422V409.48a464.025,464.025,0,0,0,40.04,36.275c54.478,43.069,128.262,93.739,196.883,93.739,21.123,0,41.749-4.8,61.178-16.1,84.421-48.86,86.5-116.709,89.124-202.616.548-17.892,1.118-36.391,2.474-55.574,1.039-14.691,7.782-27.095,16.349-39.218v3.671c-7.558,11.092-13.335,22.494-14.272,35.691C390.419,284.5,389.849,302.976,389.308,320.847Zm16.126,220.545h-2.719c1.132-1.428,2.257-2.849,3.332-4.291v3.526C405.845,540.879,405.636,541.132,405.434,541.391Zm-371.127,0H30.9c-2.539-2-5.07-4-7.551-5.971C15.635,529.275,7.832,522.569,0,515.508v-2.82c8.272,7.5,16.515,14.618,24.65,21.1C27.8,536.3,31.061,538.846,34.307,541.391Zm17.287,0H48.146c-7.818-5.95-15.426-11.885-22.746-17.712C17.02,517.008,8.524,509.638,0,501.863v-2.82c8.957,8.229,17.893,16,26.7,23.013C34.674,528.41,43.018,534.893,51.593,541.391Zm-8.712,0H39.456c-5.128-3.974-10.176-7.933-15.08-11.842C16.328,523.138,8.178,516.1,0,508.686v-2.82c8.618,7.861,17.2,15.311,25.674,22.061C31.242,532.362,37.018,536.87,42.881,541.391ZM0,541.391v-1.486c.57.5,1.139.988,1.709,1.486Zm6.31,0Q3.162,538.687,0,535.9v-2.762q4.76,4.23,9.484,8.25Zm7.983,0c-4.745-3.938-9.505-8-14.294-12.26v-2.8q8.838,7.908,17.575,15.058Zm84.018,0H94.576c-22.9-15.239-44.526-31.552-64.041-47.05-10.068-8-20.294-17.027-30.535-26.676v-2.87c10.673,10.118,21.34,19.587,31.826,27.917C52.033,508.765,74.5,525.7,98.311,541.391Zm10.4,0h-3.916C78.45,524.588,53.634,506,31.559,488.471,21.159,480.213,10.58,470.824,0,460.792v-2.87c11.012,10.508,22.032,20.33,32.85,28.919C55.654,504.943,81.4,524.177,108.711,541.391Zm-20.251,0H84.746c-19.631-13.537-38.223-27.664-55.235-41.179C19.782,492.481,9.895,483.812,0,474.545v-2.87c10.335,9.729,20.655,18.837,30.8,26.907C48.507,512.652,67.943,527.364,88.46,541.391Zm-27.96,0H56.988c-10.6-7.911-20.835-15.844-30.556-23.575C17.712,510.871,8.871,503.183,0,495.041v-2.813c9.3,8.589,18.585,16.681,27.729,23.958C38.114,524.451,49.112,532.939,60.5,541.391Zm18.383,0H75.248c-16.5-11.726-32.2-23.741-46.761-35.316C19.09,498.6,9.556,490.288,0,481.4v-2.856c9.988,9.354,19.962,18.094,29.778,25.9C45.016,516.561,61.531,529.153,78.883,541.391Zm-9.375,0H66c-13.493-9.844-26.41-19.8-38.547-29.446C18.4,504.741,9.209,496.736,0,488.226v-2.82c9.649,8.972,19.27,17.373,28.754,24.917C41.547,520.5,55.206,531.021,69.508,541.391ZM0,25.847C11.359,18.376,22.393,9.339,33.153,0h3.166C24.578,10.241,12.513,20.251,0,28.328Zm335.472,25.6c75.277,88.453,47.728,124.4,23.417,156.114-10.522,13.731-20.467,26.705-21.606,42.946-1.1,15.527-1.572,30.535-2.027,45.045-2.25,71.332-4.024,127.678-74.274,168.439-68.7,40.119-155.032-16.76-214-63.053C31.458,388.753,15.433,373.075,0,356.653v-3.029c15.83,16.948,32.338,33.167,48.269,45.68C92.9,434.339,153.3,475.518,209.453,475.518a98.277,98.277,0,0,0,50.483-13.327c69.255-40.177,71.007-96.011,73.236-166.7.454-14.532.93-29.561,2.034-45.124,1.183-16.868,11.308-30.08,22.032-44.071,23.828-31.083,50.836-66.32-23.352-153.5C317.262,33.189,297.689,16.01,277.071,0h3.4C300.408,15.614,319.31,32.381,335.472,51.449ZM328.635,54.9c73.229,86.059,46.451,121.05,22.825,151.924-10.226,13.364-19.883,25.984-20.994,41.778-1.067,15.08-1.529,29.648-1.976,43.74-2.106,66.688-3.923,124.274-72.277,163.946-66.832,39.074-150.828-16.212-208.205-61.207C32.143,382.638,15.707,366.454,0,349.593v-3.029c16.1,17.38,33.016,34.112,49.3,46.884,43.393,34.033,102.112,74.029,156.713,74.029A95.662,95.662,0,0,0,255.161,454.5c67.358-39.1,69.075-93.429,71.253-162.215.44-14.114.909-28.7,1.976-43.826,1.154-16.414,10.991-29.273,21.412-42.889,23.15-30.246,49.387-64.531-22.753-149.314h0C309.2,35.179,287.86,16.948,265.481,0h3.4C290.579,16.558,311.233,34.364,328.635,54.9ZM308.154,65.289c67.041,78.854,42.586,110.983,21.008,139.332-9.325,12.246-18.131,23.813-19.14,38.273-.966,13.724-1.4,26.987-1.81,39.824-1.962,61.2-3.656,114.062-66.32,150.475-61.221,35.9-138.215-14.582-190.8-55.668C34.126,364.262,16.486,346.355,0,328.188v-3.1c16.861,18.679,34.992,37.206,52.379,50.793,39.7,31.025,93.4,67.467,143.32,67.467a87.692,87.692,0,0,0,45.139-11.95c61.668-35.836,63.269-85.669,65.3-148.744.411-12.859.837-26.15,1.81-39.91C309,227.67,317.991,215.864,327.5,203.352c21.1-27.715,45.016-59.137-20.936-136.707v-.007C284.823,40.934,257.44,19.825,229.61,0H233.2C260.318,19.407,286.879,40.141,308.154,65.289Zm34.141-17.3c77.354,90.862,49.019,127.757,24.03,160.311-10.832,14.106-21.051,27.427-22.227,44.115-1.132,15.981-1.615,31.422-2.084,46.358C339.72,372.007,337.9,429.853,265.755,471.7,195.188,512.9,106.519,454.381,45.961,406.8,30.787,394.869,15.145,379.7,0,363.714v-3.029c15.549,16.508,31.66,32.222,47.245,44.475C93.1,441.2,155.177,483.567,212.893,483.567a100.982,100.982,0,0,0,51.817-13.674c71.152-41.266,72.948-98.6,75.219-171.187.469-14.957.952-30.419,2.091-46.444,1.212-17.308,11.625-30.874,22.652-45.232,24.513-31.927,52.293-68.116-23.965-157.694C325.325,31.2,307.512,15.044,288.646,0h3.274C310.13,14.662,327.352,30.369,342.294,47.987Zm40.256,269.628c-2.6,84.652-4.652,151.513-88.179,199.876-81.811,47.591-184.478-20.568-254.606-75.962C26.669,431.18,13.263,418.675,0,405.348V402.4c13.688,13.84,27.549,26.821,41.064,37.494,53.245,42.059,125.356,91.547,192.426,91.547,20.655,0,40.833-4.695,59.837-15.751,82.525-47.778,84.566-114.134,87.14-198.13.534-17.474,1.089-35.54,2.423-54.269,1.284-18.3,11.575-32.994,23.157-48.074v3.418c-10.7,14.085-19.9,27.953-21.087,44.807C383.633,282.126,383.085,300.17,382.551,317.616ZM294.5,72.234c62.909,74.051,40,104.268,19.8,130.938-8.719,11.5-16.962,22.371-17.907,35.944-.9,12.779-1.305,25.148-1.7,37.1-1.89,57.536-3.519,107.218-62.346,141.611C174.728,451.5,102.48,404.28,53.151,365.841,35.432,352.031,16.9,332.826,0,313.873v-3.137c17.251,19.45,36.283,39.326,54.428,53.461,37.213,28.992,87.544,63.039,134.392,63.039a82.669,82.669,0,0,0,42.47-11.207c57.839-33.816,59.375-80.621,61.322-139.888.389-11.972.793-24.347,1.7-37.177.988-14.186,9.411-25.292,18.325-37.054,19.732-26.035,42.1-55.553-19.724-128.32v-.007C268.46,44.641,236.411,21.874,205.1,0h3.635C239.375,21.433,270.515,43.848,294.5,72.234Zm54.622-27.715c79.409,93.27,50.3,131.118,24.628,164.523-11.128,14.474-21.635,28.141-22.847,45.276-1.161,16.429-1.659,32.309-2.135,47.663-2.344,75.133-4.2,134.486-78.241,177.411-72.443,42.254-163.441-17.849-225.6-66.745C30.109,400.992,14.842,386.308,0,370.774v-3.029c15.26,16.061,30.982,31.285,46.221,43.271,47.086,37.04,110.831,80.592,170.105,80.592A103.685,103.685,0,0,0,269.484,477.6c73.041-42.355,74.88-101.189,77.2-175.68.483-15.376.981-31.27,2.149-47.742,1.248-17.755,11.943-31.674,23.265-46.408,25.2-32.77,53.75-69.911-24.563-161.891C333.33,29.136,317.06,14.1,299.86,0h3.274C319.693,13.7,335.364,28.306,349.124,44.519ZM.454,42.492c-.159.094-.3.188-.454.281V40.307C15.08,31.371,29.532,18.729,43.509,6.469Q47.23,3.2,50.923,0H54.11C51.067,2.618,48,5.3,44.879,8.034,30.643,20.525,15.924,33.441.454,42.492ZM0,11.409C5.027,7.854,9.981,3.988,14.892,0h3.26C12.188,4.9,6.152,9.606,0,13.89Zm0,7.219A298.141,298.141,0,0,0,24.116,0h3.26A306.807,306.807,0,0,1,0,21.109ZM267.212,86.088c54.658,64.43,34.848,90.84,17.373,114.134-7.515,10.024-14.618,19.486-15.433,31.278-.772,10.962-1.132,21.578-1.478,31.847-1.7,50.23-3.166,93.609-54.406,123.676-50.144,29.424-113.038-11.359-155.992-44.6C37.862,327.4,17.4,304.973,0,284.78v-3.195C17.676,302.161,38.691,325.4,58.553,340.78c32.273,24.975,75.9,54.283,116.529,54.283a72.056,72.056,0,0,0,37.126-9.837c50.259-29.482,51.637-70.286,53.382-121.952.346-10.284.707-20.922,1.486-31.927.858-12.4,8.135-22.1,15.844-32.381C300.762,175.19,319.2,150.6,265.626,87.436l-.007-.007C243.536,61.214,214.27,40.79,185.971,21.037,176.192,14.214,166.247,7.241,156.5,0h3.483c9.008,6.635,18.167,13.039,27.181,19.328C215.568,39.16,244.949,59.663,267.212,86.088Zm13.638-6.923c58.783,69.241,37.429,97.554,18.585,122.529-8.12,10.767-15.787,20.936-16.674,33.614-.829,11.871-1.212,23.359-1.587,34.473-1.8,53.887-3.339,100.417-58.38,132.647-53.872,31.537-121.447-12.448-167.588-48.3C36.665,339.734,17.229,319.022,0,299.355V296.2c17.546,20.121,37.516,41.562,56.483,56.3,34.739,26.979,81.724,58.661,125.457,58.661a77.408,77.408,0,0,0,39.809-10.529c54.038-31.645,55.5-75.45,57.341-130.909.375-11.135.757-22.645,1.594-34.559.93-13.291,8.777-23.7,17.085-34.718,18.376-24.354,39.2-51.961-18.505-119.925l-.007-.007C255.565,52.43,224.223,30.549,193.9,9.39Q187.251,4.738,180.526,0h3.628q5.485,3.862,10.948,7.681C225.521,28.919,256.986,50.879,280.85,79.164ZM0,3.909C1.738,2.647,3.447,1.32,5.171,0H8.625C5.762,2.229,2.9,4.435,0,6.52ZM322.094,0h3.13a361.021,361.021,0,0,1,37.552,37.6c21.051,24.708,34.833,45.716,43.271,63.875v5.3c-8.063-18.989-22.184-41.216-44.858-67.827A361.879,361.879,0,0,0,322.094,0Zm63.724,0h2.964q7.724,8.027,14.943,16.479c.808.945,1.529,1.853,2.322,2.791v3.26c-1.312-1.572-2.553-3.1-3.916-4.7C396.917,11.7,391.443,5.784,385.818,0Zm20.229,0V.195L405.874,0ZM344.119,0h3.13a358.465,358.465,0,0,1,29.157,30.268,390.054,390.054,0,0,1,29.641,39.117v3.844A378.076,378.076,0,0,0,374.82,31.617,360.61,360.61,0,0,0,344.119,0Zm27.239,260.022c-1.262,17.792-1.788,34.963-2.308,51.579-2.5,80.844-4.471,144.7-84.2,190.89-78.039,45.434-176.062-19.479-243.009-72.277C28.061,419.338,13.912,406.033,0,391.833v-2.95c14.33,14.712,28.941,28.494,43.141,39.694,50.778,40.055,119.543,87.169,183.5,87.169,19.731,0,39.016-4.493,57.168-15.058,78.731-45.608,80.686-108.949,83.167-189.152.512-16.63,1.046-33.831,2.308-51.658,1.341-19.09,12.895-34.054,25.126-49.9,3.923-5.092,7.919-10.284,11.64-15.729v3.671c-3.245,4.572-6.642,8.986-10,13.327C384.022,226.841,372.656,241.56,371.358,260.022ZM375.447,0h2.971c6.382,6.447,12.606,13.032,18.469,19.926,3.209,3.765,6.245,7.435,9.159,11.056v3.361c-3.4-4.262-6.923-8.589-10.746-13.068C389.027,13.9,382.32,6.873,375.447,0Zm2.7,261.515c-1.3,18.239-1.839,35.857-2.358,52.884-2.546,82.748-4.558,148.109-86.188,195.383-79.907,46.5-180.267-20.034-248.8-74.123C27.362,425.05,13.587,412.148,0,398.388v-2.942c14.005,14.272,28.234,27.643,42.088,38.576,52.019,41.064,122.457,89.362,187.962,89.362,20.2,0,39.925-4.594,58.5-15.4,80.635-46.7,82.626-111.545,85.15-193.645.526-17.049,1.067-34.682,2.365-52.964,1.378-19.544,13.212-34.855,25.739-51.067q2.12-2.737,4.241-5.517v3.433q-1.3,1.688-2.589,3.361C391.126,227.533,379.479,242.606,378.144,261.515ZM332.89,0h3.13a359.755,359.755,0,0,1,33.585,34.141c15.953,18.729,27.838,35.374,36.441,50.3v4.378c-8.64-15.671-20.943-33.275-38.028-53.331A361.718,361.718,0,0,0,332.89,0Zm31.653,258.118c-1.226,17.337-1.753,34.083-2.25,50.273-2.445,78.948-4.378,141.3-82.215,186.4-76.178,44.367-171.858-18.931-237.2-70.431C28.754,413.23,14.222,399.52,0,384.888v-3.015c14.64,15.159,29.626,29.388,44.165,40.848C93.718,461.773,160.809,507.7,223.2,507.7c19.277,0,38.107-4.385,55.834-14.719,76.835-44.519,78.753-106.36,81.176-184.659.5-16.212,1.024-32.98,2.257-50.353,1.312-18.65,12.577-33.261,24.506-48.737,6.772-8.784,13.767-17.878,19.075-28.141v4.443c-5.106,8.964-11.351,17.092-17.431,24.974C376.89,225.73,365.812,240.1,364.543,258.118Zm-6.815-1.9c-1.2,16.883-1.7,33.2-2.192,48.968-2.394,77.044-4.291,137.9-80.231,181.9-74.325,43.329-167.66-18.4-231.4-68.584C29.431,407.107,14.539,392.922,0,377.842v-3.029c14.957,15.606,30.3,30.333,45.189,42.052,48.326,38.05,113.73,82.792,174.569,82.792a106.335,106.335,0,0,0,54.5-14.366c74.938-43.437,76.82-103.778,79.193-180.173.49-15.794,1-32.121,2.2-49.048,1.277-18.2,12.26-32.468,23.886-47.562,11.38-14.784,23.417-30.441,26.511-51.363v10.125c-4.9,16.551-15.116,29.843-24.859,42.507C369.764,224.619,358.961,238.639,357.728,256.214ZM354.728,0H357.7a359.725,359.725,0,0,1,25.537,26.821c8.741,10.255,16.284,19.9,22.811,29.013V59.49c-6.873-9.786-14.9-20.179-24.4-31.321A360.578,360.578,0,0,0,354.728,0Zm44.007,0c2.481,2.647,4.911,5.351,7.313,8.07v3.094c-3.3-3.779-6.664-7.515-10.125-11.164Zm-33.65,0h2.971c7.652,7.522,15.087,15.231,22.01,23.374q8.73,10.255,15.981,19.739v3.5c-5.279-7-11.07-14.258-17.568-21.888C381.137,16.1,373.24,7.933,365.084,0Z" transform="translate(406.047 541.391) rotate(180)" fill-rule="evenodd" fill="url(#linear-gradient)"/>
</svg>
