<svg xmlns="http://www.w3.org/2000/svg" width="683.288" height="906.882" viewBox="0 0 683.288 906.882">
  <g id="Group_162613" data-name="Group 162613" transform="translate(-1344.952 17.591)">
    <path id="Path_69826" data-name="Path 69826" d="M669.655,4023.19s-69.788,40.832-144.1,34.564-202.2-96.417-184.783-134.444S301.8,3881.043,266,3883.261s337.576-49.489,337.576-49.489l56.805-10.94" transform="translate(1306 -3457)" fill="none" stroke="#707070" stroke-width="1" opacity="0.382"/>
    <path id="Path_69827" data-name="Path 69827" d="M648.512,4306.378s-166.675,79.938-211.588,11.648-86.682-110.638-90.267-110.638-96.867,87.675-96.867,87.675S-179.7,3894.6,188.83,3988.118s215.044,227.687,347.307,249.53,127.851,25.308,127.851,25.308l-10.153,43.422" transform="translate(1306 -3457)" fill="none" stroke="#707070" stroke-width="1" opacity="0.382"/>
    <path id="Path_69828" data-name="Path 69828" d="M229.279,3638.136c-55.024-2.438,41.276,43.877,8.527,47.231S58.424,3788.411,130.986,3831.294s159.662,40.013,184.826-52.158,30.905-187.237,133.327-171.873S635.02,3675.7,635.02,3675.7L403.841,3505.84s-111.135-124.242-118-31.615S284.3,3640.574,229.279,3638.136Z" transform="translate(1306 -3457)" fill="none" stroke="#707070" stroke-width="1" opacity="0.382"/>
    <path id="Path_69829" data-name="Path 69829" d="M339.019,4108s166.726-87.063,209.069-24.787,82.1-65.367,82.1-65.367,264.755-112.994-106.2-104.988S368.317,4075.023,285.952,4069.8,339.019,4108,339.019,4108Z" transform="translate(1306 -3457)" fill="none" stroke="#707070" stroke-width="1" opacity="0.382"/>
  </g>
</svg>