<svg xmlns="http://www.w3.org/2000/svg" width="158.101" height="84.679" viewBox="0 0 158.101 84.679">
  <g id="Group_163959" data-name="Group 163959" transform="translate(-632.537 714.957)">
    <path id="Path_76260" data-name="Path 76260" d="M638.3-702.27s-3.82-1.652-3.2-4.646c0,0,.774-3.344,3.2-4.382a11.873,11.873,0,0,1,5.833-1.451,11.542,11.542,0,0,0,4.13-1.136,4.569,4.569,0,0,1,4.214,0,72.614,72.614,0,0,1,12.2,8.259,28.526,28.526,0,0,0,3.2,2.374,3.678,3.678,0,0,1,1.342,3.923,3.615,3.615,0,0,1,4.542-.723s13.524,5.678,14.969,6.3c0,0,14.144,6.3,13.628,8.466,0,0,9.188-1.858,15.382-2.478,0,0,11.666-1.652,34.895-1.652,0,0,16.105-1.342,14.763,18.583,0,0-.413,20.338-4.955,28.7,0,0-41.362.413-53.46,0,0,0-11.477.413-12.1-2.168,0,0-37.984-20.886-63.849-54.268C633.037-698.569,634.84-702.838,638.3-702.27Z" transform="translate(0 0)" fill="none" stroke="#ffd00a" stroke-linecap="round" stroke-linejoin="round" stroke-miterlimit="10" stroke-width="1"/>
    <path id="Path_76261" data-name="Path 76261" d="M734.742-561.331c-2.056-1.219-8.719-3.167-12.073-4.106a17.037,17.037,0,0,1-4.124-1.757,117.847,117.847,0,0,1-15.187-11.274L684-597s16.57,15.95,20.286,11.821c0,0,2.684-4.336,4.336-5.472a5.934,5.934,0,0,1,2.891-1.032,6.991,6.991,0,0,0,3.407-2.375" transform="translate(-45.702 -105.27)" fill="none" stroke="#ffd00a" stroke-linecap="round" stroke-linejoin="round" stroke-miterlimit="10" stroke-width="1"/>
    <path id="Path_76262" data-name="Path 76262" d="M677.865-684.256s2.182-1.227,5.073.837c0,0,10.3,6.917,12.12,7.846,0,0,6.876,2.891,6.773,5.265a22.311,22.311,0,0,1-3.046,6.556,3.487,3.487,0,0,0-.413,2.168s3.3,4.955,11.253,10.53a138.721,138.721,0,0,0,12.389,7.64s5.265,2.375,7.227,3.51" transform="translate(-40.2 -26.697)" fill="none" stroke="#ffd00a" stroke-linecap="round" stroke-linejoin="round" stroke-miterlimit="10" stroke-width="1"/>
    <path id="Path_76263" data-name="Path 76263" d="M900.493-529.205l2-1.332a4.083,4.083,0,0,1,3.748-.406l1.152.45a11.861,11.861,0,0,1,2.067,1.049c1.58,1.007,4.633,2.927,5.538,3.3,0,0,9.756,4.388,10.169,4.594,0,0,4.749,2.271,5.781,2.684,0,0,9.395-1.858,11.253-2.168" transform="translate(-239.844 -164.256)" fill="none" stroke="#ffd00a" stroke-linecap="round" stroke-linejoin="round" stroke-miterlimit="10" stroke-width="1"/>
    <path id="Path_76264" data-name="Path 76264" d="M1260.912-519.864a179.1,179.1,0,0,1,22.928-4.437s12.647-1.187,19.461-1.187c0,0,11.769-.619,15.279,1.032,0,0,4.4,2.128,5.711,6.587,0,0-1.478-5.555-11.389-5.864,0,0-17.433.242-23.325.844,0,0-12.135,1.787-18.515,2.333-.2.017-.406.041-.608.07-1.14.165-5.041.748-8.207,1.424" transform="translate(-563.054 -169.297)" fill="none" stroke="#ffd00a" stroke-linecap="round" stroke-linejoin="round" stroke-miterlimit="10" stroke-width="1"/>
    <path id="Path_76265" data-name="Path 76265" d="M1901.9-432.95s3.371-.428,5.867-.7a5.087,5.087,0,0,1,4.414,1.7,1.934,1.934,0,0,1,.312.451,20.217,20.217,0,0,0,2.478,2.168s2.271,1.755,2.271,2.374a1.5,1.5,0,0,1-.413,1.239s-9.239.032-11.743.532" transform="translate(-1137.865 -251.723)" fill="none" stroke="#ffd00a" stroke-linecap="round" stroke-linejoin="round" stroke-miterlimit="10" stroke-width="1"/>
    <path id="Path_76266" data-name="Path 76266" d="M1998.318-432.294a7.1,7.1,0,0,1,3.789-1.393l4.2.093a4.446,4.446,0,0,1,2.461.81,17.666,17.666,0,0,1,2.471,1.989,3.079,3.079,0,0,0,.336.329,4.732,4.732,0,0,0,.855.565,4.139,4.139,0,0,1,.916.642c.479.437,1.093,1.059,1.093,1.373a4.4,4.4,0,0,1,.014.763.5.5,0,0,1-.39.442,6.642,6.642,0,0,1-2.848.008,3.034,3.034,0,0,0-.652-.083c-1.318-.017-5.877-.048-6.853.309" transform="translate(-1224.332 -251.723)" fill="none" stroke="#ffd00a" stroke-linecap="round" stroke-linejoin="round" stroke-miterlimit="10" stroke-width="1"/>
    <path id="Path_76267" data-name="Path 76267" d="M1934.368-330.471l1.985-.029,1.755.516-2.787,4.233h-1.057" transform="translate(-1166.89 -344.257)" fill="none" stroke="#ffd00a" stroke-linecap="round" stroke-linejoin="round" stroke-miterlimit="10" stroke-width="1"/>
    <path id="Path_76268" data-name="Path 76268" d="M1933.569-355.649h1.994l3.78-5.532h3.211l.081.17a.425.425,0,0,0,.384.243h.483a.425.425,0,0,0,.3-.126l1.845-1.867h.739l3.383-2.24h3.48v-.748" transform="translate(-1166.267 -312.647)" fill="none" stroke="#ffd00a" stroke-linecap="round" stroke-linejoin="round" stroke-miterlimit="10" stroke-width="1"/>
    <path id="Path_76269" data-name="Path 76269" d="M2012.586-356.392l.911.793a.58.58,0,0,0,.381.143h0a.58.58,0,0,0,.4-.164l.831-.809" transform="translate(-1237.127 -321.004)" fill="none" stroke="#ffd00a" stroke-linecap="round" stroke-linejoin="round" stroke-miterlimit="10" stroke-width="1"/>
    <path id="Path_76270" data-name="Path 76270" d="M1963-351.587v.58a.575.575,0,0,0,.562.574l3.775.085v-.407l-1.053-.213-.805-1.032-2.122.029Z" transform="translate(-1192.66 -324.976)" fill="none" stroke="#ffd00a" stroke-linecap="round" stroke-linejoin="round" stroke-width="1"/>
    <path id="Path_76271" data-name="Path 76271" d="M1151.166-448s-.929,4.646,2.994,16.621c0,0,5.046,15.981,7.866,20.973l.032,2.308.922.465-3.916,9.55a23.456,23.456,0,0,0,3.82.31l5.988-9.5c2.271.206,8.41.309,8.41.309l21.839.517,19.615-.413,1.56,8.053a12.366,12.366,0,0,0,4.118,0l1.375-8.362h1.206v-1.962c6.5-26.739,3.1-38.2,3.1-38.2-.826-4.852-7.536-6.71-7.536-6.71-3.717-.619-18.067-.516-18.067-.516-10.53.31-20.545,1.239-20.545,1.239-16.415,1.342-26,4.259-26,4.259a45.466,45.466,0,0,1-6.777,1.058c.206-1.136,4.491-2.116,4.491-2.116" transform="translate(-464.552 -233.002)" fill="none" stroke="#ffd00a" stroke-linecap="round" stroke-linejoin="round" stroke-miterlimit="10" stroke-width="1"/>
    <path id="Path_76272" data-name="Path 76272" d="M1379.183,50.342" transform="translate(-669.115 -685.781)" fill="none" stroke="#ffd00a" stroke-linecap="round" stroke-miterlimit="10" stroke-width="1"/>
  </g>
</svg>
