<svg xmlns="http://www.w3.org/2000/svg" xmlns:xlink="http://www.w3.org/1999/xlink" width="693.308" height="1848.565" viewBox="0 0 693.308 1848.565">
  <defs>
    <linearGradient id="linear-gradient" x1="-0.083" y1="0.938" x2="1.083" y2="0.062" gradientUnits="objectBoundingBox">
      <stop offset="0" stop-color="#ff00a9"/>
      <stop offset="1" stop-color="#ff8900"/>
    </linearGradient>
    <linearGradient id="linear-gradient-2" x1="-0.079" y1="0.934" x2="1.083" y2="0.063" gradientUnits="objectBoundingBox">
      <stop offset="0" stop-color="#d30000"/>
      <stop offset="1" stop-color="#c600c6"/>
    </linearGradient>
    <linearGradient id="linear-gradient-3" x1="-0.079" y1="0.066" x2="1.083" y2="0.937" xlink:href="#linear-gradient-2"/>
  </defs>
  <g id="Group_162519" data-name="Group 162519" transform="translate(-20.824 -12.466)">
    <rect id="Rectangle_251333" data-name="Rectangle 251333" width="693.304" height="816.629" transform="translate(20.826 434.465)" fill="url(#linear-gradient)"/>
    <path id="Path_69507" data-name="Path 69507" d="M645.321,12.465C676.862,41.243,698.594,72.7,713.694,106.8V98.034c-14.607-30.686-34.888-59.205-63.13-85.569Zm-580.429,0H59.133l-.221.172C46.322,22.686,33.6,33.559,20.824,45.011v4.815c13.524-12.2,27-23.79,40.315-34.4C62.357,14.448,63.662,13.438,64.892,12.465ZM48.168,695.146c-.135,26.746-.209,44.429,35.085,65.337,14.164,8.46,27.824,20.539,41.029,32.213C145.829,811.721,166.5,830,186.673,830c7.753,0,15.432-2.709,23.062-9.1,15.321-12.843,32.205-24.628,48.548-36.018,28.033-19.554,57.014-39.774,78.808-65.941,50.763-60.978,32.943-86.431,17.2-108.892-6.645-9.482-12.909-18.446-13.647-29.467-.652-9.408-1.021-18.582-1.366-27.448-1.932-48.381-3.593-90.162-52.178-119.346-46.874-28.125-103.384,5.7-147.39,38.321-24.083,17.867-49.606,48.086-68.25,70.14-7.913,9.371-14.743,17.461-19.764,22.608-25.523,26.155-21.646,37.73-14.62,58.75A204.4,204.4,0,0,1,45.2,653.414C48.279,669.841,48.217,683.288,48.168,695.146ZM54.235,567.34c5.119-5.246,11.986-13.373,19.936-22.793,18.533-21.931,43.908-51.964,67.647-69.573,31.971-23.717,70.625-48.1,106.842-48.1a69.773,69.773,0,0,1,36.611,9.962c46.948,28.186,48.5,67.135,50.455,116.44.357,8.891.714,18.089,1.378,27.546.8,12.006,7.347,21.365,14.287,31.265,15.727,22.461,32,45.685-17.032,104.569-21.486,25.8-50.27,45.882-78.119,65.3-16.392,11.44-33.35,23.261-48.781,36.2-25.117,21.069-50.923-1.712-80.814-28.137-13.328-11.772-27.123-23.963-41.582-32.595C51.528,737.555,51.6,721.6,51.712,695.158c.049-12.018.111-25.637-3.015-42.4a211.59,211.59,0,0,0-8.245-30.28C33.438,601.5,30.238,591.943,54.235,567.34ZM77.961,769.4c15.161,9.026,29.768,21.919,43.9,34.393,22.926,20.232,44.93,39.651,66.354,39.651,8.257,0,16.441-2.894,24.563-9.74,16.49-13.915,34.716-26.623,52.326-38.912,29.744-20.749,60.484-42.2,83.645-69.943,54.282-65.079,35.134-92.169,18.238-116.071-7.162-10.11-13.918-19.665-14.706-31.45-.714-10.2-1.1-20.109-1.464-29.7-2.006-51.5-3.741-95.962-55.574-126.993-49.963-29.923-110.312,6.452-157.284,41.485C112.3,481.254,85.062,513.5,65.175,537.036,56.77,547,49.51,555.593,44.181,561.06,17.108,588.877,21.255,601.1,28.786,623.307a216.945,216.945,0,0,1,8.787,31.967C40.883,672.907,40.784,687.3,40.7,700,40.5,728.406,40.378,747.16,77.961,769.4ZM32.146,622.162c-7.531-22.214-10.977-32.361,14.583-58.614,5.415-5.566,12.712-14.21,21.166-24.209,19.776-23.409,46.849-55.474,72.175-74.376,34.236-25.527,75.646-51.841,114.434-51.841a74.388,74.388,0,0,1,38.912,10.565c50.172,30.034,51.8,71.531,53.839,124.075.369,9.629.763,19.567,1.477,29.812.849,12.77,7.888,22.719,15.346,33.26C381.023,634.8,398.547,659.583,346,722.569c-22.84,27.374-53.384,48.689-82.919,69.3-17.7,12.339-35.983,25.1-52.6,39.109-26.84,22.6-54.381-1.7-86.266-29.849-14.25-12.585-28.993-25.588-44.437-34.8-35.835-21.192-35.725-38.173-35.528-66.31.086-12.856.185-27.435-3.187-45.4A222.563,222.563,0,0,0,32.146,622.162Zm23.468,68.133c-.037,25.108-.062,41.695,32.907,61.286,13.18,7.893,25.9,19.136,38.2,30.021,20.157,17.831,39.5,34.934,58.417,34.934,7.236,0,14.423-2.5,21.56-8.447,14.127-11.784,29.695-22.633,44.745-33.112,26.335-18.36,53.568-37.348,74.009-61.951,47.231-56.878,30.728-80.693,16.17-101.725-6.128-8.841-11.912-17.2-12.6-27.472-.591-8.62-.935-17.03-1.255-25.157-1.846-45.278-3.446-84.4-48.806-111.736-43.736-26.352-96.443,4.95-137.484,35.168-22.508,16.574-46.332,44.773-63.733,65.362-7.408,8.768-13.807,16.34-18.533,21.18C35.259,593.138,38.852,604.073,45.375,623.9a194.148,194.148,0,0,1,7.445,27.669C55.663,666.787,55.638,679.286,55.613,690.294Zm6.141-119.161c4.812-4.926,11.248-12.548,18.705-21.377,17.278-20.441,40.942-48.455,63.118-64.783,29.695-21.869,65.592-44.355,99.236-44.355a65.189,65.189,0,0,1,34.309,9.359c43.724,26.352,45.2,62.752,47.083,108.842.332,8.152.677,16.587,1.28,25.256.738,11.243,6.793,20,13.217,29.258,14.509,20.958,29.522,42.618-15.986,97.415-20.133,24.234-47.169,43.074-73.32,61.311-15.1,10.528-30.728,21.414-44.979,33.3-23.406,19.517-47.477-1.773-75.338-26.413-12.429-11-25.264-22.35-38.727-30.415-31.245-18.557-31.221-33.494-31.184-58.22.025-11.181.049-23.84-2.855-39.392a202.4,202.4,0,0,0-7.556-28.125C42.274,603.075,39.308,594.086,61.754,571.133Zm.369,224.974c18.139,10.738,35.577,26.105,52.449,40.956,27.061,23.84,53.039,46.719,78.267,46.719,9.8,0,19.481-3.448,29.055-11.637,20.022-17.1,42.2-32.595,63.659-47.581,34.851-24.344,70.9-49.514,98.116-81.986,64.878-77.38,41.742-109.36,21.339-137.571-8.688-12.031-16.9-23.372-17.856-37.434-.874-12.523-1.317-24.689-1.76-36.449-2.252-60.831-4.2-113.374-65.727-149.934-59.426-35.3-131.146,8.681-186.991,50.942C102.315,455.1,69.975,493.42,46.347,521.4c-9.906,11.735-18.459,21.857-24.7,28.3-.3.308-.541.579-.825.874v5.209c1.108-1.195,2.166-2.364,3.372-3.608,6.325-6.526,14.915-16.7,24.858-28.482,23.529-27.854,55.722-65.99,85.761-88.721,41.029-31.056,90.7-63.084,137.213-63.084a88.076,88.076,0,0,1,45.816,12.363c59.881,35.575,61.7,84.756,63.992,147,.443,11.8.9,23.987,1.772,36.572,1.021,15.072,9.525,26.82,18.521,39.269,20.613,28.494,41.915,57.949-21.179,133.2-26.926,32.127-62.773,57.161-97.427,81.37-21.523,15.023-43.785,30.575-63.93,47.778-31.922,27.275-64.718-1.6-102.67-35.045-16.995-14.961-34.555-30.44-52.99-41.35-42.727-25.133-42.456-46.349-42.062-78.464a321.819,321.819,0,0,0-1.046-35.132v70.78C24.947,766.246,35.493,780.444,62.123,796.107ZM569.959,837.2v.012c121.424-142.841,77.061-200.962,37.9-252.225-16.933-22.19-32.931-43.135-34.765-69.352-1.772-24.973-2.535-49.12-3.273-72.467C566.3,332.429,563.264,236.8,449.864,170.92,339.06,106,199.668,197.678,104.505,272.263c-27.689,21.7-56.423,50.216-83.681,79.745V357.3c27.935-30.428,57.469-59.969,85.872-82.232C178.65,218.673,275.979,152.4,366.49,152.4c28.181,0,55.71,6.428,81.589,21.586,111.7,64.894,114.557,155.093,118.188,269.3.751,23.384,1.514,47.556,3.286,72.6,1.907,27.263,18.213,48.628,35.478,71.236,38.346,50.216,81.786,107.118-37.78,247.767v.012c-32.648,38.567-72.323,71.4-113.61,101.959h5.993C499.7,906.982,538.111,874.83,569.959,837.2ZM63.083,685.418c.049,22.584.074,38.912,30.728,57.26,12.245,7.339,24.058,17.794,35.491,27.916,18.73,16.574,36.7,32.5,54.307,32.5,6.731,0,13.4-2.327,20.047-7.819,12.946-10.7,27.16-20.613,40.918-30.194,24.649-17.166,50.135-34.922,69.222-57.961,43.724-52.765,28.538-74.954,15.149-94.534-5.612-8.226-10.928-15.983-11.555-25.49-.529-7.844-.849-15.491-1.157-22.891-1.76-42.175-3.273-78.612-45.41-104.114-40.573-24.554-89.5,4.211-127.59,32.016C122.275,507.409,100.149,533.588,84,552.7c-6.9,8.176-12.872,15.232-17.278,19.739-22.4,22.842-19.074,33.112-13.044,51.767a186.412,186.412,0,0,1,6.768,25.5C63.046,663.721,63.071,675.247,63.083,685.418Zm6.178-110.492c4.5-4.593,10.509-11.7,17.45-19.924,16.035-18.976,38-44.97,58.614-60.03,27.443-20.022,60.558-40.6,91.631-40.6a60.652,60.652,0,0,1,32.033,8.767c40.5,24.5,41.9,58.355,43.687,101.208.308,7.425.628,15.1,1.181,22.99.689,10.467,6.264,18.619,12.158,27.251,13.291,19.444,27.049,39.552-14.952,90.261-18.779,22.67-44.068,40.279-68.52,57.309-13.82,9.629-28.095,19.567-41.152,30.378-21.7,17.954-43.957-1.8-69.739-24.6-11.543-10.233-23.492-20.8-36.02-28.31-28.919-17.313-28.944-31.2-28.993-54.218-.012-10.319-.037-22.017-2.7-36.338a192.164,192.164,0,0,0-6.879-25.958C51.1,604.651,48.377,596.229,69.261,574.926ZM551.623,936.867h5.587c25.486-21.709,49.544-44.823,70.994-70.1,50.307-59.107,75.658-105.456,85.49-143.371V704.258c-5.476,40.574-29.879,91.677-88.2,160.191C603.284,890.641,578.179,914.468,551.623,936.867ZM26.879,855.411c-2.154-1.256-4.061-2.487-6.055-3.731v4.174c1.44.874,2.744,1.736,4.258,2.623,25.1,14.715,49.151,35.833,72.409,56.25,8.651,7.585,17.2,15.072,25.7,22.14H128.7c-9.39-7.733-19-16.156-28.87-24.813C76.46,891.527,52.278,870.3,26.879,855.411Zm29.965-50.4c19.136,11.3,37.521,27.5,55.3,43.148,28.439,25.046,55.747,49.083,82.229,49.083,10.3,0,20.49-3.645,30.556-12.277,21.191-18.163,44.7-34.59,67.437-50.462,36.549-25.551,74.366-51.952,102.953-86.012,68.4-81.481,43.945-115.1,22.373-144.75-9.217-12.659-17.905-24.6-18.927-39.417-.923-13.3-1.391-26.2-1.846-38.678-2.326-63.958-4.344-119.2-69.123-157.593-62.54-37.089-138.062,9.42-196.885,54.083-31.922,24.258-66,64.623-90.868,94.078-7.236,8.558-13.709,16.205-19.222,22.411v5.295c6.067-6.649,13.5-15.417,21.929-25.416,24.772-29.332,58.7-69.5,90.314-93.536,43.281-32.89,95.7-66.827,144.793-66.827a92.56,92.56,0,0,1,48.129,12.967c63.106,37.409,64.988,89.165,67.376,154.662.455,12.511.923,25.44,1.858,38.8,1.083,15.836,10.066,28.186,19.591,41.264,21.831,30,44.4,61.015-22.212,140.354-28.292,33.715-65.9,59.981-102.276,85.4-22.8,15.922-46.382,32.41-67.708,50.684C189,911.082,154.48,880.7,114.5,845.486c-17.905-15.762-36.426-32.053-55.845-43.542C37.769,789.68,26.706,778.3,20.824,766.271v7.536C27.531,784.188,38.557,794.273,56.844,805.01Zm-24.686,41.5c-4.1-2.4-7.814-4.766-11.334-7.117v4.3c3,1.946,6.153,3.9,9.537,5.886,24.12,14.149,47.218,34.442,69.566,54.058,13.414,11.784,26.63,23.372,39.663,33.235h5.845c-13.881-10.233-28.206-22.781-43.157-35.907C79.795,881.233,56.573,860.829,32.158,846.508Zm281.01,17.461c41.558-29.036,84.518-59.07,117.093-97.735,78.98-93.783,50.553-132.276,25.461-166.25-10.743-14.555-20.9-28.3-22.077-45.389-1.1-15.639-1.612-30.785-2.129-45.438-2.584-73.292-4.8-136.585-79.288-180.534-72.84-42.938-164.2,15.688-226.592,63.552C89,420.276,49.8,466.711,21.181,500.624l-.357.419v5.5c1.034-1.231,2.018-2.377,3.077-3.633C52.414,469.125,91.473,422.874,127.8,395,177.874,356.588,238.543,316.9,295.373,316.9a106.342,106.342,0,0,1,55.057,14.789c72.8,42.951,74.883,102.365,77.528,177.591.517,14.69,1.046,29.861,2.154,45.561,1.243,18.126,11.691,32.275,22.754,47.261,25.486,34.516,51.846,70.214-25.326,161.841-32.267,38.321-75.043,68.206-116.4,97.107-26.778,18.717-54.479,38.062-79.411,59.7-38.752,33.408-78.513-1.515-124.55-41.99-20.625-18.138-41.964-36.892-64.385-50.08a168.467,168.467,0,0,1-21.966-15.06V818.2a180.945,180.945,0,0,0,20.17,13.557c22.126,13.016,43.33,31.659,63.844,49.686,30.261,26.6,59.389,51.9,87.656,55.425h14.2c9.2-1.49,18.324-5.652,27.356-13.435C258.849,901.933,286.463,882.637,313.168,863.969Zm128.746-91.825c82.5-97.883,52.744-138.014,26.5-173.416-11.26-15.183-21.9-29.529-23.135-47.384-1.144-16.414-1.7-32.312-2.227-47.692-2.658-76.4-4.959-142.385-82.672-188.181-76.027-44.773-171.362,16.624-236.486,66.7C88.1,409.71,50.051,453.843,20.824,488.408v5.5C50.272,459.052,89.443,413.158,126.053,385c48.769-37.508,114.644-81.481,175.977-81.481,19.542,0,38.629,4.47,56.534,15.035,76.039,44.786,78.193,106.761,80.925,185.225.529,15.4,1.1,31.339,2.252,47.815,1.292,18.889,12.232,33.641,23.812,49.255,26.7,36.03,54.331,73.28-26.36,169.008C405.549,809.751,361.014,840.893,317.93,871c-28.058,19.6-57.063,39.872-83.152,62.555-1.464,1.268-2.929,2.241-4.393,3.312h5.87c.283-.234.566-.382.849-.616,25.954-22.571,54.885-42.791,82.869-62.345C363.229,843.664,407.974,812.4,441.914,772.145ZM70.541,680.566c.111,21,.2,36.166,28.55,53.208,11.248,6.76,22.114,16.4,32.636,25.724,17.352,15.38,34,30.144,50.357,30.144,6.215,0,12.38-2.13,18.533-7.179,11.752-9.642,24.649-18.619,37.1-27.288,22.963-15.971,46.7-32.5,64.435-53.959,40.179-48.677,26.335-69.241,14.127-87.379-5.119-7.585-9.931-14.74-10.509-23.483-.48-7.068-.775-13.952-1.058-20.626-1.686-39.084-3.126-72.824-42.038-96.492-37.435-22.781-82.562,3.448-117.683,28.864-19.382,14.026-39.81,38.185-54.713,55.831-6.4,7.573-11.937,14.112-16.047,18.3C53.411,597.411,56.45,607.04,61.976,624.5a176.056,176.056,0,0,1,6.092,23.335C70.43,660.667,70.491,671.232,70.541,680.566Zm6.227-101.848c4.209-4.273,9.771-10.861,16.219-18.5,14.792-17.5,35.06-41.461,54.085-55.24,25.166-18.2,55.537-36.88,84.026-36.88a56.056,56.056,0,0,1,29.732,8.176c37.288,22.682,38.629,53.972,40.327,93.6.3,6.7.591,13.619,1.071,20.712.64,9.7,5.722,17.252,11.1,25.243,12.085,17.941,24.575,36.486-13.918,83.119C282,720.045,258.467,736.422,235.7,752.258c-12.528,8.706-25.474,17.72-37.337,27.46-19.973,16.377-40.512-1.8-64.287-22.879-10.632-9.432-21.622-19.185-33.153-26.105-26.643-16.02-26.7-28.876-26.827-50.191-.049-9.469-.111-20.207-2.535-33.346a183.626,183.626,0,0,0-6.19-23.766C59.933,606.228,57.447,598.384,76.768,578.718ZM109.7,859.253c29.818,26.229,58.442,51.41,86.216,51.41,10.817,0,21.5-3.817,32.057-12.868,22.471-19.382,47.452-36.843,71.622-53.725,38.124-26.623,77.541-54.156,107.371-89.657,71.929-85.581,46.148-120.824,23.406-151.9-9.722-13.287-18.9-25.847-19.973-41.412-.984-14.087-1.464-27.755-1.944-40.968-2.424-67.049-4.5-124.974-72.508-165.215-65.715-38.924-145.04,10.171-206.792,57.247-33.5,25.551-69.271,67.923-95.4,98.868-4.627,5.48-8.922,10.553-12.934,15.22V531.7c4.726-5.455,9.98-11.661,15.653-18.385C62.492,482.5,98.131,440.3,131.308,414.993c45.557-34.737,100.725-70.6,152.386-70.6a97.237,97.237,0,0,1,50.443,13.582c66.342,39.257,68.287,93.549,70.76,162.285.48,13.237.972,26.93,1.969,41.079,1.12,16.587,10.608,29.553,20.637,43.259,23.049,31.511,46.874,64.081-23.259,147.52-29.535,35.144-68.754,62.542-106.681,89.029C273.32,858.1,248.253,875.593,225.671,895.1c-35.4,30.317-71.646-1.589-113.634-38.518-18.8-16.55-38.247-33.654-58.675-45.709-15.333-8.989-25.6-17.523-32.537-26.155v5.566c7.088,7.782,16.9,15.54,30.741,23.655C71.7,825.808,91.018,842.814,109.7,859.253Zm-2.437,11.095c31.208,27.435,61.161,53.775,90.191,53.775,11.322,0,22.508-4,33.559-13.5,23.64-20.466,49.938-38.838,75.375-56.619,39.835-27.817,81.023-56.594,112.232-93.684,75.449-89.682,48.338-126.55,24.428-159.083-10.226-13.915-19.9-27.066-21.019-43.394-1.034-14.863-1.551-29.27-2.043-43.209-2.5-70.177-4.652-130.773-75.9-172.862-68.853-40.7-151.98,10.9-216.673,60.4C92.335,428.994,54.863,473.385,27.494,505.8c-2.3,2.734-4.492,5.32-6.67,7.881v5.5c3-3.534,6.1-7.2,9.39-11.083,27.258-32.3,64.595-76.518,99.347-103.1,47.809-36.572,105.734-74.339,159.967-74.339a101.941,101.941,0,0,1,52.756,14.173c69.566,41.1,71.585,97.957,74.144,169.931.492,13.964,1.009,28.408,2.055,43.332,1.194,17.35,11.149,30.908,21.7,45.266,24.268,33,49.36,67.135-24.292,154.675-30.9,36.732-71.892,65.374-111.53,93.068-25.511,17.831-51.895,36.252-75.67,56.828-37.066,31.844-75.08-1.564-119.074-40.254-19.727-17.35-40.118-35.279-61.543-47.9-11.654-6.834-20.465-13.4-27.246-19.948v4.926a157.38,157.38,0,0,0,25.449,18.1C67.4,835.29,87.671,853.121,107.262,870.348ZM37.511,837.593a198.192,198.192,0,0,1-16.687-10.861v4.335c4.492,3.165,9.34,6.354,14.878,9.592,23.123,13.582,45.286,33.05,66.711,51.866,19.21,16.895,37.977,33.2,56.374,44.342h6.522c-19.222-10.725-39.232-28.273-60.546-47C83.2,870.926,60.917,851.347,37.511,837.593ZM106.2,638.576a127.226,127.226,0,0,1,1.563,17.523c.492,13.164.849,22.658,17.745,33.174,6.276,3.928,12.417,9.445,18.361,14.777,10.054,9.038,20.367,18.3,30.654,18.3a17.577,17.577,0,0,0,10.854-3.879c5.612-4.236,11.642-8.361,17.462-12.351,14.755-10.11,30.015-20.564,41.115-34.43,22.545-28.15,15.346-40.55,9-51.5-2.56-4.408-4.972-8.57-5.292-13.533-.172-2.918-.32-5.788-.468-8.607-1.218-23.84-2.264-44.416-25.178-59.008-21.7-13.841-46.64-1.17-68.163,13.04-11.58,7.659-23,21.143-32.18,31.992-3.889,4.593-7.248,8.57-9.845,11.132-13.081,12.979-11.408,19.431-8.368,31.142C104.358,629.821,105.379,633.761,106.2,638.576Zm8.122-40.845c2.707-2.672,6.116-6.7,10.054-11.353,9.033-10.676,20.268-23.938,31.43-31.314,14.46-9.543,30.47-18.4,45.656-18.4a34.079,34.079,0,0,1,18.656,5.369c21.351,13.607,22.311,32.4,23.529,56.2.135,2.82.283,5.714.48,8.644.357,5.8,3.1,10.528,5.747,15.1,6.055,10.442,12.331,21.241-8.7,47.482-10.768,13.459-25.806,23.753-40.339,33.715-5.858,4.014-11.912,8.164-17.585,12.462-11.506,8.681-23.32-1.946-37-14.235-6.055-5.43-12.318-11.058-18.865-15.134-15.284-9.531-15.58-17.35-16.059-30.3a130.183,130.183,0,0,0-1.612-17.991c-.861-4.95-1.9-8.977-2.818-12.523C103.927,614,102.7,609.269,114.326,597.731ZM33.241,704.849c-.271,30.046-.443,49.9,39.441,73.44,16.158,9.6,31.713,23.323,46.751,36.6,24.292,21.426,47.625,42,70.317,42,8.774,0,17.462-3.079,26.064-10.368,17.672-14.974,37.214-28.617,56.1-41.805,31.442-21.943,63.955-44.638,88.469-73.97,57.814-69.167,37.337-97.9,19.271-123.213-7.679-10.762-14.915-20.909-15.764-33.457-.751-10.959-1.169-21.635-1.563-31.942-2.08-54.612-3.876-101.774-58.959-134.652-53.162-31.721-117.252,7.2-167.191,44.638-27.209,20.416-56.153,54.686-77.282,79.708-8.91,10.553-16.6,19.653-22.237,25.453-7.248,7.45-12.343,13.841-15.838,19.616v7.585c3.027-6.97,8.676-14.727,18.4-24.739,5.71-5.874,13.438-15.023,22.385-25.613,21.031-24.9,49.815-58.983,76.716-79.154,36.5-27.386,80.654-55.6,122.027-55.6a78.961,78.961,0,0,1,41.213,11.156c53.408,31.893,55.094,75.952,57.223,131.734.382,10.344.8,21.032,1.563,32.053.911,13.545,8.442,24.086,16.4,35.267,18.176,25.477,36.955,51.817-19.1,118.878-24.206,28.962-56.522,51.521-87.767,73.329-18.964,13.237-38.567,26.93-56.362,42.015-28.526,24.148-57.814-1.675-91.742-31.6-15.161-13.385-30.839-27.2-47.292-36.979C36.367,752.726,36.527,734.71,36.8,704.874c.123-13.705.258-29.221-3.347-48.394a231.787,231.787,0,0,0-9.611-34.614c-1.132-3.288-2.129-6.292-3.015-9.162v11.341a219.885,219.885,0,0,1,9.119,33.087C33.5,675.961,33.364,691.3,33.241,704.849Zm80.6-68.12a118.871,118.871,0,0,1,1.354,14.444c.578,11.6.984,20,15.592,29.221,5.292,3.349,10.485,8.041,15.518,12.585,8.725,7.881,17.672,15.959,26.667,15.959a15.587,15.587,0,0,0,9.365-3.239c4.295-3.152,8.787-6.194,13.3-9.248,13.2-8.965,26.864-18.237,36.685-30.649,19-24.049,13.143-34.811,7.974-44.305-2.055-3.78-3.987-7.339-4.246-11.563-.135-2.056-.234-4.076-.345-6.071-1.12-20.847-2.08-38.838-21.806-51.644-18.607-12.092-39.909-1.8-58.257,9.876-10.054,6.391-19.837,17.954-27.713,27.251-3.384,3.99-6.3,7.438-8.577,9.679-11.543,11.329-10.153,17.178-7.617,27.78C112.418,629.661,113.206,632.887,113.846,636.729Zm8-35.169c2.4-2.352,5.365-5.861,8.811-9.925,7.7-9.1,17.3-20.441,26.889-26.536,12.023-7.647,25.326-14.7,37.989-14.7a29.468,29.468,0,0,1,16.441,4.815c18.2,11.809,19.075,28.149,20.194,48.849.1,1.995.209,4.027.332,6.108.32,5,2.523,9.075,4.676,13.016,4.873,8.952,9.906,18.212-7.642,40.4-9.476,11.994-22.9,21.106-35.885,29.91-4.553,3.091-9.07,6.157-13.414,9.334-9.759,7.167-19.874-1.946-31.541-12.486-5.144-4.642-10.46-9.457-16.01-12.954-13.032-8.238-13.377-15.084-13.931-26.4a122.736,122.736,0,0,0-1.415-14.838c-.652-3.965-1.452-7.265-2.141-10.171C112.751,615.722,111.729,611.486,121.845,601.56Zm-.369,33.334c.689,4.261.923,7.992,1.144,11.292.652,10.085,1.12,17.375,13.451,25.33a101.926,101.926,0,0,1,12.663,10.393c7.408,6.736,14.989,13.631,22.717,13.631a13.451,13.451,0,0,0,7.827-2.6c2.892-2.007,5.858-3.977,8.836-5.972,11.8-7.844,23.985-15.971,32.587-27.054,15.469-19.924,10.94-29.061,6.953-37.114-1.538-3.14-3.015-6.108-3.212-9.568l-.2-3.349c-1-17.941-1.858-33.42-18.447-44.465-15.616-10.418-33.2-2.463-48.351,6.7-8.5,5.123-16.675,14.764-23.246,22.522-2.867,3.374-5.341,6.292-7.31,8.2-10.029,9.716-8.91,14.974-6.867,24.542C120.491,629.575,121.02,632.037,121.476,634.894Zm7.888-29.492c2.092-2.032,4.627-5.012,7.544-8.472,6.4-7.548,14.374-16.944,22.372-21.771,9.956-6.009,20.268-11.144,30.162-11.144a25.389,25.389,0,0,1,14.386,4.359c15.1,10.06,15.887,24.024,16.872,41.707l.185,3.362c.258,4.187,1.944,7.622,3.581,10.935,3.876,7.807,7.519,15.2-6.572,33.358-8.245,10.627-20.194,18.582-31.75,26.278-3,1.995-5.981,3.99-8.885,6.009-8.134,5.6-16.465-1.958-26.126-10.75A105.909,105.909,0,0,0,138,668.523c-10.817-6.982-11.186-12.511-11.838-22.571-.222-3.374-.468-7.2-1.181-11.624-.468-2.918-1.009-5.443-1.489-7.684C121.549,617.507,120.749,613.727,129.364,605.4ZM25.783,709.689c-.345,31.708-.566,52.654,41.619,77.5,17.155,10.171,33.645,24.714,49.594,38.776,25.683,22.645,50.332,44.367,74.292,44.367,9.291,0,18.471-3.263,27.566-11.009,18.841-16.033,39.7-30.588,59.881-44.687,33.14-23.138,67.425-47.076,93.293-77.984,61.346-73.28,39.54-103.621,20.305-130.392-8.184-11.39-15.912-22.14-16.81-35.439-.812-11.747-1.243-23.162-1.661-34.2-2.166-57.715-4.036-107.574-62.343-142.287-56.251-33.506-124.193,7.918-177.085,47.79-28.784,21.685-59.426,57.974-81.8,84.461-9.4,11.144-17.536,20.774-23.48,26.893-3.175,3.275-5.882,6.317-8.331,9.235v5.714a149.162,149.162,0,0,1,10.891-12.474c6.018-6.206,14.177-15.885,23.64-27.066,22.262-26.364,52.756-62.481,81.208-83.931,38.776-29.208,85.687-59.341,129.62-59.341A83.5,83.5,0,0,1,309.7,397.4c56.645,33.728,58.392,80.348,60.608,139.368.418,11.07.849,22.51,1.674,34.306.972,14.309,8.984,25.465,17.475,37.274,19.382,26.967,39.416,54.87-20.157,126.032-25.56,30.538-59.635,54.341-92.591,77.343-20.256,14.149-41.176,28.753-60.152,44.909-30.224,25.736-61.272-1.65-97.206-33.334-16.072-14.161-32.7-28.814-50.135-39.158-40.426-23.815-40.2-43.936-39.872-74.4.148-14.555.332-31.031-3.52-51.4a201.754,201.754,0,0,0-5-20.613v14.346c.517,2.266,1.046,4.482,1.5,6.933C26.1,679.027,25.931,695.318,25.783,709.689Zm110.989-78.353c.209,1.5.369,2.894.5,4.187.837,7.425,1.44,12.782,9.365,18.335a68.467,68.467,0,0,1,6.928,5.96c4.75,4.47,9.636,9.063,14.878,9.063a9.372,9.372,0,0,0,4.676-1.293c9.156-5.147,18.447-11.046,24.391-19.357,8.368-11.686,6.633-17.3,4.947-22.744a22.044,22.044,0,0,1-1.206-5.541c-.529-10.615-1.821-20.737-11.6-27.989-9.611-7.117-19.37-4.1-28.476.259-5.488,2.623-10.436,8.447-14.4,13.114a68.25,68.25,0,0,1-4.762,5.258c-7.211,6.625-6.6,11.033-5.464,19.062Zm7.642-18.138a67.03,67.03,0,0,0,5.058-5.566c3.766-4.408,8.43-9.913,13.229-12.2,5.23-2.5,9.968-4.174,14.472-4.174a16.929,16.929,0,0,1,10.362,3.559c8.553,6.342,9.66,15.22,10.165,25.3a25.463,25.463,0,0,0,1.366,6.428c1.5,4.815,2.9,9.359-4.442,19.616-5.538,7.745-14.447,13.385-23.234,18.335-4.467,2.5-8.8-1.071-15.383-7.265a70.254,70.254,0,0,0-7.322-6.28c-6.621-4.642-7.064-8.607-7.864-15.823-.148-1.33-.308-2.746-.517-4.273l-.234-1.7C138.987,621.447,138.593,618.554,144.414,613.2Zm7.494,32.053a52.671,52.671,0,0,1,4.024,3.669c3.31,3.251,6.978,6.871,11.162,6.871a7.579,7.579,0,0,0,2.855-.579c6.854-2.783,12.7-7.388,16.023-12.622,4.947-7.795,4.479-11.76,3.987-15.959-.111-.973-.234-1.983-.271-3.066-.308-7.684-3.015-13.755-8.036-18.04-5.6-4.79-10.78-5.64-18.471-3.054-4.049,1.379-7.273,5.159-10.116,8.484a38.416,38.416,0,0,1-3.458,3.731c-5.206,4.519-5.833,8.62-5.156,15.072C145.091,635.916,146,640.62,151.909,645.25Zm.037-27.891a40.78,40.78,0,0,0,3.827-4.088c2.535-2.98,5.427-6.366,8.553-7.425a20.4,20.4,0,0,1,6.4-1.244c3.126,0,5.735,1.158,8.627,3.633,4.233,3.62,6.522,8.829,6.781,15.466.049,1.182.172,2.278.3,3.337.455,3.867.812,6.92-3.446,13.644-2.953,4.618-8.184,8.718-14.374,11.243-3,1.219-5.981-1.4-10.189-5.541a58.125,58.125,0,0,0-4.319-3.94c-4.664-3.645-5.476-6.933-6.116-13.04C147.38,623.578,147.884,620.881,151.945,617.359ZM20.824,876.16V880.4c24.784,15.565,48.634,36.2,71.732,56.471h5.39c-1-.874-1.994-1.736-3-2.623C71.156,913.36,46.544,892,20.824,876.16ZM157.212,638.022c2.117,2.487,4.738,5.591,8.577,5.591a8.924,8.924,0,0,0,8.282-6.243,21.312,21.312,0,0,1,1.44-3.066c1.034-1.945,2.1-3.953,2.1-6.329s-1.772-4.667-3.2-6.5c-.394-.493-.751-.948-1.034-1.355-.332-.5-.652-1.022-.948-1.5-1.477-2.413-3.163-5.135-7.371-5.135-2.855,0-4.639,2.069-6.215,3.879a14.287,14.287,0,0,1-2.067,2.13c-2.375,1.761-5.156,5.27-5.156,9.322,0,3.066,2.215,5.48,4.012,7.425Zm1.7-15.688a17.192,17.192,0,0,0,2.634-2.635c1.428-1.662,2.375-2.672,3.52-2.672,2.129,0,2.88,1.059,4.344,3.46q.48.794,1.034,1.625c.32.468.738,1,1.169,1.564,1.034,1.318,2.449,3.128,2.449,4.3a10.639,10.639,0,0,1-1.686,4.655,22.767,22.767,0,0,0-1.674,3.633,5.381,5.381,0,0,1-4.91,3.805c-2.191,0-4.147-2.315-5.87-4.347l-1.674-1.9c-1.44-1.564-3.064-3.337-3.064-5.012C155.182,626.262,157.052,623.725,158.911,622.334Zm-29.793,10.75c.455,2.968.677,5.6.886,7.992.738,8.632,1.28,14.875,11.359,21.586a84.022,84.022,0,0,1,9.8,8.189c6.079,5.591,12.306,11.329,18.779,11.329a11.448,11.448,0,0,0,6.288-1.958l3.63-2.327c10.669-6.81,21.708-13.853,29.239-23.84,11.912-15.811,8.75-23.31,5.944-29.923a22.958,22.958,0,0,1-2.215-7.77c-.837-15.2-1.575-28.322-15.112-37.717-12.54-8.694-25.88-3.448-38.432,3.5-6.965,3.867-13.524,11.575-18.779,17.769-2.363,2.8-4.406,5.184-6.067,6.76-8.553,8.127-7.691,12.88-6.153,21.512C128.552,629.661,128.847,631.286,129.118,633.084Zm7.765-23.827c1.8-1.712,3.9-4.174,6.325-7.031,5.082-5.985,11.4-13.422,17.795-16.981,7.371-4.076,14.989-7.536,22.385-7.536a21.038,21.038,0,0,1,12.294,3.867c12.109,8.386,12.761,20.133,13.611,35.168a25.5,25.5,0,0,0,2.486,8.78c2.646,6.28,5.156,12.215-5.513,26.389-7.15,9.482-17.918,16.341-28.316,22.99l-3.655,2.327c-5.993,3.891-11.826-.813-20.736-9a87.237,87.237,0,0,0-10.226-8.521c-8.663-5.763-9.057-10.442-9.8-18.939-.209-2.463-.443-5.16-.911-8.213-.271-1.835-.566-3.485-.837-5.012C130.287,619.182,129.721,616.054,136.883,609.257ZM78,675.7c.185,19.419.332,33.445,26.372,49.169,10.263,6.194,20.182,15.011,29.793,23.532,15.961,14.186,31.282,27.792,46.369,27.792,5.7,0,11.371-1.945,17.032-6.539,10.559-8.57,22.089-16.587,33.263-24.345,21.277-14.789,43.293-30.083,59.685-50.007,36.648-44.564,24.132-63.5,13.081-80.2-4.59-6.945-8.934-13.508-9.451-21.5-.418-6.268-.689-12.388-.96-18.323-1.588-35.981-2.954-67.061-38.629-88.882-34.322-21.02-75.633,2.709-107.8,25.7-17.819,12.745-36.512,34.861-50.172,51.029-5.919,6.994-11.014,13.028-14.829,16.895-19.271,19.53-16.49,28.507-11.469,44.8A168.641,168.641,0,0,1,75.7,645.989C77.826,657.6,77.912,667.218,78,675.7Zm6.276-93.179c3.913-3.965,9.057-10.06,15.013-17.1,13.549-16.008,32.082-37.939,49.544-50.425,22.889-16.378,50.48-33.149,76.4-33.149A51.676,51.676,0,0,1,252.7,489.43c34.063,20.835,35.331,49.6,36.943,86.012.258,5.96.529,12.1.96,18.4.578,8.927,5.39,16.205,10.042,23.236,10.866,16.427,22.114,33.432-12.872,75.964-16.084,19.554-37.89,34.7-58.971,49.354-11.223,7.795-22.816,15.848-33.473,24.492-18.312,14.85-37.066-1.835-58.811-21.143-9.71-8.62-19.764-17.56-30.31-23.914-24.341-14.7-24.465-26.549-24.649-46.165-.086-8.62-.185-18.409-2.363-30.317a172.346,172.346,0,0,0-5.513-21.574C68.756,607.816,66.517,600.539,84.274,582.523Zm427.44,225.085v.012c103.826-122.326,66.059-172.308,32.747-216.392-14.374-19.013-27.947-36.978-29.51-59.39-1.489-21.044-2.154-41.412-2.806-61.1-3.138-95.112-5.845-177.27-103-234.136-95.1-55.7-214.409,22.19-295.876,85.606-30.925,24.074-63.29,58.109-92.443,91.123v5.381c29.719-33.826,62.958-69.044,94.622-93.7,61.4-47.79,144.424-103.9,221.707-103.9,24.243,0,47.932,5.529,70.206,18.557,95.446,55.88,98.006,133.236,101.23,231.181.652,19.727,1.329,40.131,2.818,61.249,1.637,23.458,15.518,41.818,30.211,61.274,32.513,43.025,69.369,91.788-32.611,211.934l-.012.012c-41.8,49.526-97.058,88.143-150.5,125.478-2.88,1.995-5.772,4.051-8.651,6.071h6.19c1.489-1.047,3-2.118,4.492-3.152C414.151,896.244,469.615,857.5,511.714,807.609Zm-23.3-11.821h-.012c96.787-114.113,61.666-160.831,30.679-202.046-13.34-17.744-25.941-34.5-27.393-55.4-1.366-19.493-1.994-38.37-2.621-56.619-2.966-88.882-5.538-165.646-96.221-218.83-88.739-52.063-200.06,20.318-276.075,79.3-32.34,25.1-66.391,61.889-95.951,95.95v5.406C50.876,408.775,85.886,370.663,118.953,345c57.186-44.355,134.506-96.418,206.472-96.418,22.668,0,44.819,5.172,65.628,17.375,89,52.186,91.41,124.432,94.474,215.887.615,18.274,1.243,37.188,2.634,56.755,1.514,21.931,14.423,39.1,28.095,57.284,30.174,40.143,64.385,85.655-30.556,197.6v.012c-39.06,46.362-90.77,82.478-140.782,117.4-12.158,8.484-24.44,17.166-36.672,25.97h6.079c10.891-7.795,21.806-15.5,32.623-23.052C397.144,878.758,449.052,842.506,488.419,795.787ZM85.456,670.838c.271,17.83.455,30.711,24.206,45.13,9.254,5.627,18.238,13.619,26.926,21.352,14.583,12.979,28.587,25.428,42.407,25.428,5.193,0,10.362-1.749,15.53-5.9,9.353-7.5,19.53-14.567,29.387-21.4,19.628-13.595,39.909-27.669,54.959-46.054,33.116-40.451,21.93-57.752,12.06-73.021-4.086-6.3-7.937-12.277-8.405-19.505-.369-5.48-.615-10.824-.861-16.02-1.5-32.89-2.806-61.311-35.257-81.3-31.159-19.2-68.68,1.946-97.883,22.547-16.281,11.476-33.288,31.6-45.717,46.3-5.378,6.379-10.042,11.883-13.537,15.417-17.708,17.88-15.223,26.2-10.694,41.325a158.916,158.916,0,0,1,4.738,19A152.826,152.826,0,0,1,85.456,670.838Zm6.338-84.522c3.593-3.633,8.294-9.186,13.734-15.626,12.306-14.543,29.141-34.467,45.04-45.684,21.7-15.306,45.779-29.578,68.5-29.578a47.6,47.6,0,0,1,25.486,7.154c30.839,19,32.045,45.229,33.571,78.427.234,5.221.492,10.59.861,16.082.517,8.164,4.812,14.8,8.959,21.217,9.673,14.949,19.653,30.391-11.814,68.834-14.743,17.991-34.826,31.918-54.233,45.389-9.906,6.871-20.145,13.976-29.6,21.549-16.576,13.311-33.608-1.859-53.347-19.419-8.8-7.832-17.918-15.946-27.443-21.734C89.43,699.53,89.271,688.718,89,670.789A155.669,155.669,0,0,0,86.822,643.5a162.322,162.322,0,0,0-4.849-19.37C77.58,609.4,75.574,602.706,91.793,586.316ZM558.305,831.288v.012c117.9-138.74,74.858-195.224,36.869-245.058-16.416-21.549-31.922-41.9-33.706-67.357-1.711-24.2-2.461-47.605-3.187-70.238-3.421-107.611-6.4-200.556-116.551-264.588-107.641-63.109-243.033,25.822-335.477,98.2-28.316,22.177-57.716,51.706-85.429,82v5.3c28.366-31.179,58.589-61.754,87.632-84.486,69.837-54.686,164.323-118.94,252.164-118.94,27.393,0,54.159,6.255,79.313,21C548.4,250.172,551.192,337.81,554.736,448.77c.726,22.658,1.464,46.091,3.187,70.374,1.858,26.5,17.672,47.273,34.432,69.253,37.164,48.763,79.3,104.04-36.758,240.588V829c-34.851,41.19-77.91,75.681-122.3,107.87h5.993C482.475,905.368,524.242,871.555,558.305,831.288ZM453.494,778.055v.012c86.216-101.823,55.07-143.654,27.59-180.546-11.8-15.848-22.951-30.822-24.243-49.428-1.206-17.19-1.772-33.826-2.326-49.933-2.744-79.523-5.107-148.2-86.057-195.84-79.227-46.6-178.549,17.547-246.393,69.857C87.289,399,50.359,440.951,20.824,475.7v5.517C50.691,445.962,88.643,402.445,124.232,375c50.873-39.22,119.6-85.212,183.607-85.212,20.317,0,40.167,4.642,58.811,15.614,79.276,46.633,81.491,111.182,84.309,192.884.554,16.131,1.132,32.816,2.338,50.056,1.366,19.653,12.811,35.033,24.932,51.3,28,37.594,56.94,76.469-27.443,176.113l-.012.012c-34.949,41.584-81.331,73.969-126.187,105.271-25.289,17.658-51.206,35.944-75.363,55.831H254.8c23.111-18.742,47.76-36.1,71.818-52.913C371.671,852.517,418.249,820.009,453.494,778.055ZM98.574,640.423A132.812,132.812,0,0,1,100.321,661c.418,14.715.714,25.354,19.9,37.175,7.285,4.482,14.374,10.836,21.24,16.969,11.814,10.578,23.16,20.737,34.469,20.737a20.088,20.088,0,0,0,12.515-4.63c6.891-5.332,14.337-10.467,21.536-15.442,16.343-11.255,33.226-22.879,45.606-38.222,26.077-32.262,17.548-46.3,10.017-58.688-3.064-5.036-5.956-9.789-6.325-15.5-.234-3.756-.418-7.438-.591-11.033-1.3-26.869-2.424-50.093-28.538-66.495-24.821-15.577-53.4-.542-78.082,16.23-13.143,8.915-26.753,25-36.684,36.745-4.393,5.2-8.184,9.679-11.075,12.572-14.62,14.6-12.675,21.685-9.143,34.528A144.031,144.031,0,0,1,98.574,640.423Zm8.245-46.5c3-2.992,6.842-7.524,11.285-12.782,9.8-11.587,23.222-27.448,35.958-36.1,16.872-11.464,35.589-22.116,53.285-22.116a38.5,38.5,0,0,1,20.92,5.96c24.526,15.417,25.56,36.7,26.877,63.65.172,3.62.357,7.314.591,11.083.431,6.588,3.68,11.944,6.83,17.129,7.273,11.944,14.767,24.283-9.734,54.612-12.06,14.924-28.747,26.413-44.856,37.533-7.248,4.987-14.743,10.147-21.72,15.565-13.18,10.208-26.753-1.933-42.431-15.959-6.978-6.243-14.189-12.708-21.745-17.35-17.548-10.812-17.782-19.628-18.2-34.245a139.474,139.474,0,0,0-1.8-21.094c-1.046-5.935-2.338-10.651-3.483-14.814C95.1,612.311,93.651,607.065,106.819,593.926ZM90.944,642.283a143.021,143.021,0,0,1,1.932,23.606c.345,16.291.591,28.063,22.077,41.178,8.257,5.061,16.293,12.228,24.058,19.16,13.217,11.784,25.88,23.089,38.457,23.089,4.676,0,9.34-1.564,14.017-5.258,8.134-6.428,16.958-12.548,25.5-18.446,17.967-12.425,36.537-25.28,50.246-42.113,29.621-36.375,19.751-52.051,11.039-65.879-3.569-5.664-6.941-11.033-7.371-17.5-.283-4.556-.492-9.026-.7-13.373-1.391-29.947-2.6-55.819-31.922-74.031-27.91-17.375-60.128.062-87.976,19.382-14.693,10.2-29.99,28.285-41.176,41.485-4.9,5.8-9.131,10.8-12.331,14.026-16.183,16.254-13.955,23.975-9.919,37.964A153.183,153.183,0,0,1,90.944,642.283ZM99.3,590.121c3.31-3.325,7.593-8.373,12.54-14.235,11.039-13.065,26.175-30.945,40.487-40.87,19.284-13.373,40.672-25.835,60.878-25.835a43.042,43.042,0,0,1,23.2,6.551c27.738,17.239,28.846,41.042,30.248,71.174.2,4.371.406,8.866.714,13.459.48,7.364,4.246,13.348,7.9,19.148,8.454,13.447,17.216,27.337-10.78,61.729-13.4,16.451-31.762,29.147-49.52,41.436-8.59,5.948-17.462,12.08-25.683,18.582-14.866,11.76-30.187-1.9-47.9-17.683-7.9-7.056-16.047-14.321-24.588-19.542-19.825-12.117-20.034-21.943-20.367-38.222a148.367,148.367,0,0,0-1.981-24.16,157.68,157.68,0,0,0-4.159-17.067C86.379,611.067,84.606,604.885,99.3,590.121ZM465.148,783.966l-.012.012c89.748-105.924,57.272-149.38,28.624-187.713-12.306-16.488-23.948-32.053-25.289-51.423-1.268-17.954-1.846-35.353-2.424-52.162-2.818-82.651-5.255-154.022-89.453-203.5-82.389-48.394-185.711,18.483-256.274,73-33.953,26.241-69.8,66.249-99.495,100.974v5.467c30.088-35.292,66.957-76.789,101.661-103.609,52.978-40.944,124.562-88.955,191.224-88.955,21.1,0,41.718,4.815,61.087,16.193,82.5,48.492,84.8,115.59,87.693,200.544.578,16.845,1.169,34.27,2.449,52.3,1.4,20.416,13.34,36.387,25.978,53.294,29.215,39.1,59.426,79.523-28.489,183.292h0c-36.315,43.172-84.481,76.8-131.048,109.31C310.313,905.7,288.8,920.822,268.14,936.867h5.87c19.481-14.937,39.626-29.147,59.4-42.963C380.174,861.26,428.525,827.508,465.148,783.966ZM535.01,819.43v.012c110.866-130.539,70.452-183.76,34.8-230.737-15.395-20.269-29.928-39.429-31.6-63.355-1.588-22.6-2.3-44.441-2.99-65.571-3.3-101.356-6.153-188.907-109.783-249.467-101.451-59.3-228.758,24.049-315.664,91.9C80.164,325.323,49.337,356.982,20.824,388.7V394c29.116-32.558,60.817-65.313,91.127-88.98C177.542,253.8,266.294,193.639,348.892,193.639c25.806,0,51.033,5.886,74.747,19.739C525.571,272.965,528.266,355.456,531.662,459.9c.689,21.155,1.4,43.037,3,65.695,1.748,24.985,16.589,44.552,32.316,65.264,34.851,45.906,74.341,97.92-34.679,226.267v.012C492.9,863.772,442.32,901.3,391.791,936.867h6.141C447.279,902.031,496.405,865.127,535.01,819.43Zm132.4-806.965a282.133,282.133,0,0,1,46.283,62V67.139a284.593,284.593,0,0,0-41.262-54.674Zm-401.093,0h-7.839C193.552,46.611,132.01,91.582,79.93,132.882c-19.468,15.442-39.318,33.26-59.106,52.445v4.987c20.527-20.01,41.139-38.641,61.309-54.637C135.714,93.17,199.373,46.833,266.318,12.465Zm24.046,0h-8.688c-72.778,34.356-142.308,84.707-200,130.428-20.034,15.885-40.487,34.393-60.854,54.267v4.987c21.093-20.712,42.308-40.008,63.069-56.459C143.294,98.613,215.309,46.685,290.364,12.465Zm336.9,0h-5.636c48.055,39.023,75.756,83.353,92.062,132.879V134.3C697.278,89.316,670.783,48.68,627.268,12.465Zm60.989,0a287.233,287.233,0,0,1,25.437,33.543V39.26a289.14,289.14,0,0,0-20.613-26.795Zm-443.45,0H237.4C179.634,45.38,125.143,85.6,78.183,122.859c-18.89,14.986-38.149,32.213-57.359,50.709v4.913c19.948-19.32,39.958-37.274,59.561-52.826C128.748,87.272,185.16,45.836,244.807,12.465Zm330.111,0h-6.473C686.867,87.407,707.393,185.647,713.694,306.2V258.09C703.689,159.628,674.905,77.605,574.918,12.465Zm-256.508,0h-9.845c-81.786,32.9-160.951,89.62-225.14,140.452-20.613,16.328-41.668,35.5-62.6,56.077v5c21.671-21.438,43.49-41.387,64.816-58.282C151.835,103.28,234.027,44.58,318.41,12.465Zm389.8,365.562c-4.689-154.28-8.393-276.139-160.632-364.257-.8-.468-1.624-.85-2.437-1.305h-7.507c2.72,1.428,5.464,2.808,8.171,4.371C696.33,103.969,700,224.953,704.649,378.125c.972,31.991,1.981,65.067,4.418,99.361a101.82,101.82,0,0,0,4.627,23.483V485c-.394-2.574-.9-5.11-1.083-7.758C710.175,443.007,709.165,409.969,708.206,378.027Zm-11.543,5.517c-4.59-151.03-8.22-270.326-157.235-356.61a209.305,209.305,0,0,0-30.371-14.469H498.682a204.8,204.8,0,0,1,38.961,17.547c147.3,85.286,150.91,203.708,155.463,353.642.96,31.265,1.944,63.589,4.319,97.107,1.28,18.065,7.494,34.146,16.269,49.477v-7.672c-6.83-13.164-11.654-26.918-12.724-42.052C698.594,447.071,697.622,414.771,696.662,383.543ZM224.982,12.465h-7C166.824,43.5,118.633,79.329,76.435,112.835c-18.324,14.555-36.98,31.191-55.611,49v4.9C40.206,148.1,59.6,130.74,78.638,115.631,122.152,81.078,172.066,44.1,224.982,12.465Zm377.182,0h-6.116c71.831,51.644,103.174,113.374,117.646,184.942V180.759C698.053,116.431,666.906,60.267,602.164,12.465Zm-245.9,0H342.936c-93.059,28-185.182,93.031-257.751,150.475-21.191,16.772-42.862,36.6-64.361,57.888v5c22.225-22.153,44.659-42.766,66.564-60.092C162.886,105.964,259.648,37.979,356.264,12.465Zm328.868,376.57c-4.516-147.779-8.085-264.514-153.851-348.926-30.359-17.67-62.38-26.118-95.138-27.645h-21.77c-115.05,5.024-236.819,88.82-327.441,160.5-21.757,17.215-44.043,37.693-66.108,59.71V237.7c22.791-22.879,45.84-44.17,68.323-61.939C182.108,102.221,308.011,15.7,425.1,15.7c36.045,0,71.24,8.2,104.393,27.485,144.055,83.426,147.6,199.275,152.079,345.958.935,30.551,1.907,62.136,4.221,94.891,1.772,25.083,13.278,46.263,27.9,66.963v-6.268c-12.9-18.939-22.754-38.407-24.354-60.941C687.027,451.1,686.055,419.549,685.132,389.035Zm27.516-376.57h-4.639c1.932,2.438,3.852,4.864,5.685,7.327V13.77C713.35,13.339,712.993,12.908,712.648,12.465Zm-633.284,0H73.556c-4.332,3.411-8.651,6.822-12.884,10.2C47.5,33.152,34.188,44.6,20.824,56.659v4.815C34.939,48.668,49,36.514,62.886,25.444,68.264,21.159,73.826,16.812,79.364,12.465Zm29.5,0h-5.882C89.64,22.624,76.657,32.758,64.166,42.708c-14.3,11.39-28.8,23.975-43.342,37.249v4.815C36.108,70.722,51.355,57.46,66.381,45.478,79.992,34.63,94.23,23.56,108.862,12.465ZM94,12.465H88.151C79.4,19.25,70.787,26.01,62.419,32.684,48.685,43.631,34.779,55.65,20.824,68.308v4.815C35.53,59.7,50.174,46.981,64.634,35.455,74.134,27.882,83.991,20.186,94,12.465Zm-73.172,0V15c.972-.862,1.944-1.687,2.917-2.537Zm10.768,0q-5.372,4.618-10.768,9.371v4.716q8.122-7.222,16.183-14.087Zm13.623,0C37.117,19.188,29,26.121,20.824,33.4v4.778q15.081-13.5,29.99-25.711Zm143.366,0h-6.375C143.122,38.484,106.228,66.338,72.928,92.8c-17.179,13.656-34.629,29.073-52.1,45.549v4.9c18.213-17.276,36.414-33.444,54.307-47.667C109.612,68.173,147.946,39.26,188.581,12.465Zm17.745,0h-6.682c-44.954,28.691-87.3,60.424-124.968,90.359-17.745,14.1-35.8,30.132-53.851,47.261v4.9c18.791-17.941,37.6-34.713,56.054-49.379C115.79,74.7,159.723,41.858,206.326,12.465Zm-34.556,0h-6.338c-33.5,23.113-65.222,47.236-94.252,70.312-16.6,13.2-33.473,28-50.357,43.825v4.9C38.459,114.892,56.069,99.339,73.383,85.56,103.595,61.536,136.76,36.415,171.771,12.465Zm-47.711,0h-5.993C99.977,25.973,82.514,39.519,65.926,52.719,51.048,64.577,35.961,77.7,20.824,91.606v4.8C36.7,81.743,52.537,67.927,68.141,55.5,85.862,41.39,104.629,26.9,124.06,12.465Zm31.368,0h-6.2C121.069,32.487,94.279,53,69.433,72.766,53.4,85.523,37.13,99.721,20.824,114.892v4.876c17.044-15.971,34.063-30.9,50.812-44.231C97.639,54.862,125.82,33.362,155.428,12.465Zm-16,0h-5.981c-23.025,16.808-45.065,33.8-65.776,50.278-15.456,12.3-31.134,25.97-46.849,40.5v4.815C37.29,92.739,53.706,78.393,69.888,65.513,91.719,48.138,115.027,30.172,139.43,12.465ZM20.824,892.734c19.382,12.757,38.21,28.186,56.571,44.133h5.4C62.763,919.381,42.175,902.29,20.824,888.5ZM593.267,849.02c128.451-151.03,81.442-212.414,39.958-266.558-17.955-23.446-34.925-45.6-36.869-73.329-1.883-26.512-2.683-52.137-3.458-76.912-3.839-121.8-6.867-218-126.74-287.6C348.929,76.115,201.613,173.235,101,252.278c-26.5,20.81-53.839,47.581-80.174,75.62v5.172c27.012-28.938,55.181-56.632,82.365-78C179.351,195.252,282.415,124.94,378.23,124.94c29.756,0,58.811,6.773,86.143,22.756C582.548,216.3,585.538,311.63,589.341,432.331c.775,24.812,1.587,50.475,3.47,77.048,2.018,28.8,19.3,51.361,37.6,75.25,40.659,53.073,86.746,113.238-39.847,262.088-28.366,33.482-61.764,62.813-96.947,90.15h5.809C533.434,910.208,565.689,881.578,593.267,849.02Zm-11.666-5.9c124.956-146.941,79.264-206.688,38.949-259.4-17.45-22.818-33.928-44.367-35.823-71.334-1.821-25.748-2.609-50.622-3.372-74.684-3.593-113.866-6.695-212.193-123.332-279.931C343.982,91.052,200.653,185.45,102.746,262.276c-27.073,21.254-55.119,48.886-81.922,77.676v5.172c27.479-29.676,56.337-58.245,84.124-80.052,74.046-58.109,174.242-126.4,267.411-126.4,28.969,0,57.26,6.6,83.866,22.165C571.165,227.588,574.094,320.361,577.81,437.811c.751,24.1,1.551,49.009,3.372,74.831,1.969,28.026,18.755,49.982,36.537,73.231,39.5,51.644,84.272,110.185-38.826,254.946h0c-30.457,35.981-66.871,67.111-105.057,96.048h5.808C516.661,908.595,551.906,878.192,581.6,843.122ZM546.651,825.39c114.4-134.64,72.667-189.5,35.848-237.9-15.912-20.909-30.938-40.66-32.66-65.35-1.649-23.433-2.387-46.079-3.089-68-3.347-104.5-6.239-194.756-113.167-256.929-104.466-61.3-235.846,24.9-325.582,95.051C79.056,314.906,48.956,345.481,20.824,376.5v5.295C49.6,349.9,80.533,318.268,110.2,295.068c67.745-52.974,159.376-115.2,244.559-115.2,26.618,0,52.609,6.083,77.024,20.4C537.016,261.464,539.747,346.553,543.205,454.25c.7,21.956,1.428,44.65,3.089,68.145,1.8,25.736,17.142,45.894,33.374,67.258,36.008,47.322,76.815,100.974-35.725,233.422v.012c-37.1,43.887-83.829,79.929-131.318,113.78h6.128C465.025,903.731,510.348,868.328,546.651,825.39Zm58.257,29.541c132-155.142,83.644-218.14,41-273.725-18.484-24.086-35.922-46.83-37.927-75.324-1.932-27.288-2.757-53.652-3.556-79.154-3.913-125.047-7.014-223.817-130.125-295.262C353.889,61.1,202.585,161.032,99.251,242.279c-25.892,20.367-52.584,46.276-78.427,73.563v5.172c26.532-28.186,54.024-55.018,80.617-75.94C179.7,183.542,285.614,111.2,384.1,111.2c30.531,0,60.361,6.957,88.419,23.347C593.931,205,597,302.9,600.872,426.839c.8,25.539,1.625,51.94,3.569,79.3,2.067,29.553,19.837,52.716,38.653,77.233,41.828,54.514,89.231,116.3-40.893,269.255-26.249,30.969-56.645,58.552-88.838,84.239h5.587C550.023,911.833,579.41,885.014,604.908,854.931ZM673.6,394.552c-4.442-144.54-7.937-258.7-150.467-341.279-139.6-81.259-314.79,35.119-434.454,129.7C66.332,200.646,43.455,222,20.824,244.754v5.036c23.357-23.63,47.009-45.8,70.071-64.02C181.751,113.956,304.8,29.458,419.246,29.458c35.245,0,69.677,8.016,102.1,26.893,140.819,81.579,144.3,194.879,148.695,338.3.911,29.836,1.858,60.683,4.135,92.662,2.191,31.253,19.751,56.336,39.515,82.084V563.56c-18.25-24.049-33.953-47.729-35.983-76.506C675.447,455.149,674.512,424.339,673.6,394.552ZM523.356,813.531C630.7,687.093,591.618,635.5,557.136,589.961c-14.878-19.641-28.944-38.2-30.556-61.372-1.538-21.82-2.227-42.939-2.9-63.343-3.224-98.24-6.005-183.07-106.386-241.8-98.313-57.493-221.6,23.125-305.77,88.758-30.236,23.581-61.863,56.373-90.7,88.734V406.3c29.436-33.211,61.912-67.148,92.874-91.283,63.5-49.5,149.384-107.636,229.324-107.636,25.031,0,49.483,5.689,72.471,19.136,98.695,57.74,101.316,137.657,104.639,238.852.664,20.441,1.354,41.572,2.9,63.478,1.686,24.221,16.059,43.185,31.27,63.269,33.669,44.453,71.843,94.854-33.657,219.1v.012c-41.73,49.416-96.418,88.29-149.851,125.638H377C429.288,900.271,482.426,862,523.356,813.531Zm93.206,47.322C752.065,701.6,702.4,636.975,658.587,579.937c-18.988-24.714-36.918-48.049-38.986-77.307-1.981-28.051-2.83-55.166-3.643-81.382-4-128.286-7.162-229.629-133.509-302.921C358.836,46.18,203.557,148.8,97.491,232.292c-25.289,19.9-51.341,44.97-76.667,71.494v5.172c26.04-27.423,52.867-53.418,78.87-73.883C180.04,171.831,288.814,97.468,389.958,97.468c31.331,0,61.912,7.13,90.708,23.926C605.3,193.713,608.44,294.169,612.4,421.359c.824,26.253,1.673,53.393,3.667,81.518,2.129,30.317,20.379,54.082,39.7,79.24,43,55.954,91.717,119.371-41.915,276.422-24.243,28.58-52.006,54.255-81.356,78.329h5.587C566.341,913.471,593.082,888.535,616.562,860.854ZM21.6,864.314c-.271-.16-.5-.32-.775-.48v4.211c25.732,15.257,50.393,36.843,74.243,57.777q6.35,5.578,12.651,11.046h5.439c-5.193-4.47-10.423-9.051-15.752-13.718C73.113,901.822,48,879.768,21.6,864.314Zm-.775,53.073c8.577,6.071,17.032,12.671,25.412,19.481H51.8c-10.177-8.373-20.477-16.4-30.974-23.717Zm0-12.326a508.787,508.787,0,0,1,41.152,31.807h5.562a523.572,523.572,0,0,0-46.714-36.043ZM476.789,789.877C570.057,679.864,536.253,634.771,506.435,595c-12.823-17.116-24.945-33.272-26.335-53.405-1.317-18.717-1.932-36.843-2.523-54.378-2.9-85.766-5.4-159.834-92.837-211.171-85.564-50.241-192.886,19.394-266.181,76.149-33.128,25.65-68.04,63.946-97.735,98.425v5.455C50.986,420.941,86.846,381.253,120.737,355c55.07-42.643,129.522-92.686,198.842-92.686,21.88,0,43.268,5,63.352,16.8,85.761,50.339,88.112,120.011,91.09,208.228.591,17.56,1.206,35.723,2.535,54.514,1.464,21.167,13.881,37.742,27.037,55.289,30.445,40.6,61.912,82.589-29.51,190.434l-.012.012c-37.681,44.761-87.619,79.634-135.909,113.361-16.687,11.649-33.657,23.556-50.3,35.92h5.944c15.37-11.329,31-22.264,46.382-33C388.666,870,438.8,834.995,476.789,789.877ZM500.06,801.7c100.307-118.226,63.869-166.57,31.713-209.213-13.857-18.385-26.938-35.747-28.452-57.395-1.415-20.269-2.067-39.885-2.707-58.86-3.064-92.009-5.7-171.458-99.618-226.489-91.927-53.849-207.235,21.254-285.969,82.466-31.639,24.578-64.8,59.944-94.2,93.524v5.393C50.765,396.769,84.84,360.159,117.205,335c59.278-46.066,139.453-100.161,214.077-100.161,23.468,0,46.382,5.356,67.93,17.978,92.21,54.033,94.708,128.828,97.846,223.521.64,19.013,1.292,38.666,2.72,59.008,1.587,22.694,14.976,40.463,29.153,59.279,31.356,41.584,66.883,88.721-31.577,204.767l-.012.012c-40.426,47.938-93.908,85.3-145.643,121.427q-11.352,7.942-22.828,16.033h6.19q9.359-6.594,18.681-13.114C405.648,887.489,459.339,849.993,500.06,801.7ZM20.824,930.193c2.966,2.155,5.882,4.421,8.823,6.674h5.895c-4.886-3.805-9.771-7.573-14.718-11.132Zm549.615,6.674h5.341c22.865-20.047,44.56-41.2,64.078-64.2,35.922-42.187,59.439-78.058,73.837-109.064v-9.051c-13.758,32.422-37.854,70.374-76.544,115.812C616.907,894.224,594.313,916.155,570.439,936.867Zm108.737,0h5.058q13.18-13.705,25.5-28.137c1.378-1.613,2.609-3.165,3.963-4.766V898.4c-2.24,2.684-4.356,5.295-6.682,8.029C698.115,916.894,688.774,926.992,679.175,936.867Zm34.519,0v-.333l-.3.333Zm-105.672,0h5.341a611.89,611.89,0,0,0,49.754-51.681C683.7,861,700.305,838.873,713.694,818.4v-6.563c-13.758,21.6-31.233,45.155-53.285,71.051A615.558,615.558,0,0,1,608.022,936.867ZM654.5,492.891c-2.154-30.378-3.052-59.7-3.938-88.069-4.258-138.038-7.63-247.065-143.674-325.936C373.726,1.309,206.461,112.146,92.224,202.3c-23.517,18.569-47.661,41.288-71.4,65.534v5.036c24.452-25.12,49.384-48.652,73.615-67.776C181.086,136.7,298.425,56.253,407.555,56.253c33.669,0,66.576,7.672,97.55,25.711C639.451,159.837,642.786,267.99,647.02,404.933c.874,28.4,1.784,57.764,3.938,88.2,2.289,32.595,22,58.146,42.874,85.2,6.694,8.694,13.512,17.56,19.862,26.857v-6.268c-5.538-7.807-11.334-15.343-17.056-22.756C676.111,549.547,656.717,524.414,654.5,492.891Zm6.978,443.977h5.07c10.891-11.009,21.511-22.251,31.516-34.023,5.476-6.428,10.657-12.7,15.629-18.877v-5.738c-5.8,7.278-11.814,14.666-18.336,22.313C684.652,913.138,673.207,925.132,661.479,936.867Zm4.6-446.526c-2.215-31.142-3.138-61.225-4.024-90.3-4.344-141.289-7.777-252.89-147.07-333.607C378.636-12.963,207.384,100.645,90.44,193c-22.926,18.114-46.431,40.143-69.616,63.638v5.024c23.9-24.369,48.178-47.2,71.818-65.867C181.406,125.679,301.6,43.213,413.376,43.213c34.469,0,68.127,7.844,99.827,26.3C650.8,149.247,654.194,259.974,658.5,400.155c.9,29.11,1.821,59.217,4.036,90.433,2.35,33.371,22.545,59.513,43.92,87.195q3.618,4.673,7.236,9.42v-5.861q-2.215-2.881-4.418-5.738C688.233,548.365,668.358,522.629,666.082,490.342ZM588.861,936.867H594.2c20.33-18.336,39.712-37.557,57.31-58.294,27.221-31.979,47.5-60.4,62.183-85.889V785.21c-14.743,26.758-35.737,56.816-64.89,91.061C630.468,897.869,610.175,917.842,588.861,936.867Zm54.011-440.726c-2.092-29.6-2.99-58.2-3.84-85.84-4.172-134.8-7.47-241.266-140.289-318.264C368.754,16.282,205.489,124.361,94,212.294c-24.108,19-48.9,42.409-73.172,67.394v5.147c24.981-25.884,50.553-50.179,75.363-69.746,84.555-66.68,199.039-145.107,305.5-145.107,32.894,0,65.025,7.487,95.274,25.133,131.109,76.014,134.382,181.6,138.517,315.3.861,27.682,1.747,56.311,3.852,85.975,2.24,31.844,21.462,56.792,41.816,83.217,11.555,15,23.492,30.526,32.55,48.049v-7.585c-8.713-15.306-19.37-29.184-29.744-42.643C663.941,551.443,645.038,526.9,642.872,496.141Zm-11.629,3.251c-2.043-28.827-2.9-56.681-3.741-83.611C623.417,284.232,620.18,180.328,490.6,105.188,363.77,31.207,204.5,136.6,95.744,222.293c-24.7,19.456-50.11,43.677-74.92,69.426v5.172c25.523-26.647,51.71-51.792,77.11-71.8C180.4,160.121,292,83.725,395.815,83.725c32.107,0,63.487,7.314,93,24.529,127.873,74.166,131.084,177.2,135.133,307.637.837,26.967,1.711,54.846,3.753,83.747,2.178,31.08,20.92,55.437,40.758,81.21,19.419,25.243,39.958,51.977,45.237,87.7V651.259C705.326,623,687.9,600.3,671.275,578.681,651.782,553.339,633.348,529.4,631.243,499.392Zm-5.119,437.475h5.07a614.029,614.029,0,0,0,43.576-45.8c14.915-17.51,27.787-33.974,38.924-49.539V835.29c-11.728,16.71-25.424,34.454-41.631,53.479A615.522,615.522,0,0,1,626.124,936.867Zm75.092,0c4.233-4.519,8.38-9.137,12.478-13.779v-5.283c-5.636,6.452-11.371,12.831-17.278,19.062Zm-57.42,0h5.07c13.057-12.844,25.744-26.007,37.558-39.909q14.9-17.51,27.27-33.7v-5.972c-9.008,11.944-18.89,24.345-29.978,37.373C671.189,909.383,657.714,923.322,643.8,936.867Z" transform="translate(0.438 0.001)" fill-rule="evenodd" opacity="0.35" fill="url(#linear-gradient-2)"/>
    <path id="Path_69508" data-name="Path 69508" d="M645.716,936.867c31.561-28.777,53.307-60.239,68.416-94.337V851.3c-14.617,30.686-34.91,59.205-63.17,85.569Zm-580.8,0H59.157l-.222-.172c-12.6-10.048-25.33-20.921-38.111-32.373v-4.815c13.533,12.2,27.017,23.79,40.34,34.4C62.383,934.885,63.689,935.895,64.92,936.867ZM48.185,254.186c-.135-26.746-.209-44.429,35.107-65.337,14.173-8.46,27.842-20.539,41.054-32.213,21.562-19.025,42.249-37.3,62.431-37.3,7.758,0,15.442,2.709,23.076,9.1,15.331,12.843,32.225,24.628,48.578,36.018,28.051,19.554,57.05,39.774,78.858,65.941,50.795,60.978,32.964,86.431,17.215,108.892-6.65,9.482-12.917,18.446-13.656,29.467-.653,9.408-1.022,18.582-1.367,27.448-1.933,48.381-3.6,90.162-52.211,119.346-46.9,28.125-103.449-5.7-147.483-38.321-24.1-17.867-49.637-48.086-68.293-70.14-7.918-9.371-14.752-17.461-19.776-22.608-25.539-26.155-21.66-37.73-14.629-58.749a204.3,204.3,0,0,0,8.127-29.812C48.3,279.492,48.235,266.045,48.185,254.186Zm6.071,127.806c5.123,5.246,11.994,13.373,19.948,22.793,18.545,21.931,43.936,51.964,67.689,69.573,31.991,23.717,70.669,48.1,106.909,48.1a69.851,69.851,0,0,0,36.634-9.962c46.977-28.186,48.529-67.135,50.487-116.44.357-8.891.714-18.089,1.379-27.546.8-12.006,7.351-21.365,14.3-31.265,15.737-22.461,32.016-45.685-17.042-104.569-21.5-25.8-50.3-45.882-78.168-65.3-16.4-11.44-33.371-23.261-48.812-36.2-25.133-21.069-50.955,1.712-80.865,28.137C113.375,171.08,99.571,183.271,85.1,191.9c-33.555,19.875-33.481,35.833-33.371,62.271.049,12.018.111,25.637-3.017,42.4a211.486,211.486,0,0,1-8.25,30.28C33.446,347.833,30.244,357.389,54.256,381.992ZM78,179.934c15.171-9.026,29.787-21.919,43.924-34.393,22.941-20.232,44.958-39.651,66.4-39.651,8.263,0,16.451,2.894,24.578,9.74,16.5,13.915,34.737,26.623,52.359,38.912,29.763,20.749,60.523,42.2,83.7,69.943,54.316,65.079,35.156,92.169,18.249,116.071-7.167,10.11-13.927,19.665-14.715,31.45-.714,10.2-1.1,20.109-1.465,29.7-2.007,51.5-3.743,95.962-55.609,126.993-49.994,29.923-110.382-6.453-157.384-41.485C112.353,468.078,85.1,435.828,65.2,412.3c-8.41-9.962-15.676-18.557-21.007-24.024-27.091-27.817-22.941-40.045-15.4-62.247a216.839,216.839,0,0,0,8.792-31.967c3.312-17.633,3.214-32.028,3.128-44.724C40.514,220.927,40.391,202.173,78,179.934ZM32.153,327.171c-7.536,22.214-10.984,32.361,14.592,58.614,5.418,5.566,12.72,14.21,21.18,24.209C87.713,433.4,114.8,465.468,140.145,484.37c34.257,25.527,75.693,51.841,114.507,51.841a74.471,74.471,0,0,0,38.936-10.565c50.2-30.033,51.829-71.531,53.873-124.074.369-9.629.763-19.567,1.478-29.812.85-12.77,7.893-22.719,15.355-33.26,16.956-23.963,34.491-48.751-18.089-111.736-22.855-27.374-53.418-48.689-82.971-69.3-17.707-12.339-36.006-25.1-52.629-39.109-26.857-22.6-54.415,1.7-86.32,29.849C110.026,160.786,95.274,173.789,79.82,183c-35.858,21.192-35.747,38.173-35.55,66.31.086,12.856.185,27.435-3.189,45.4A222.453,222.453,0,0,1,32.153,327.171Zm23.483-68.133c-.037-25.108-.062-41.695,32.927-61.286,13.188-7.893,25.921-19.136,38.222-30.021,20.17-17.83,39.527-34.934,58.454-34.934,7.241,0,14.432,2.5,21.574,8.447,14.136,11.785,29.713,22.633,44.773,33.112,26.352,18.36,53.6,37.348,74.056,61.951C372.9,293.185,356.389,317,341.822,338.032c-6.132,8.841-11.92,17.2-12.609,27.472-.591,8.62-.936,17.03-1.256,25.157-1.847,45.278-3.448,84.4-48.837,111.736-43.764,26.352-96.5-4.95-137.571-35.168-22.522-16.575-46.362-44.773-63.774-65.362-7.413-8.768-13.816-16.34-18.545-21.18C35.268,356.195,38.864,345.26,45.39,325.435a194.049,194.049,0,0,0,7.45-27.669C55.685,282.545,55.66,270.047,55.635,259.038ZM61.78,378.2c4.815,4.926,11.255,12.548,18.717,21.377,17.289,20.441,40.968,48.455,63.158,64.783,29.713,21.869,65.633,44.355,99.3,44.355a65.261,65.261,0,0,0,34.331-9.359C321.036,473,322.514,436.6,324.4,390.513c.333-8.152.677-16.587,1.281-25.256.739-11.243,6.8-20,13.225-29.258,14.518-20.958,29.541-42.618-16-97.415-20.145-24.234-47.2-43.074-73.366-61.311-15.109-10.528-30.748-21.414-45.007-33.3-23.421-19.517-47.507,1.773-75.385,26.413-12.437,11-25.28,22.35-38.752,30.415-31.265,18.557-31.24,33.494-31.2,58.22.025,11.181.049,23.84-2.857,39.392a202.3,202.3,0,0,1-7.561,28.125C42.287,346.257,39.319,355.246,61.78,378.2Zm.369-224.974c18.151-10.738,35.6-26.105,52.482-40.956C141.709,88.429,167.7,65.55,192.947,65.55c9.8,0,19.493,3.448,29.073,11.637,20.035,17.1,42.224,32.595,63.7,47.581,34.873,24.344,70.94,49.514,98.178,81.986,64.919,77.381,41.769,109.36,21.352,137.571-8.694,12.031-16.907,23.372-17.867,37.434-.874,12.523-1.318,24.689-1.761,36.449-2.253,60.831-4.2,113.374-65.768,149.934-59.464,35.3-131.229-8.681-187.109-50.942-30.378-22.965-62.739-61.286-86.382-89.263-9.913-11.735-18.471-21.857-24.714-28.3-.3-.308-.542-.579-.825-.874v-5.209c1.108,1.194,2.167,2.364,3.374,3.608,6.329,6.526,14.924,16.7,24.874,28.482,23.544,27.854,55.757,65.99,85.815,88.721,41.054,31.056,90.753,63.084,137.3,63.084a88.173,88.173,0,0,0,45.845-12.363c59.919-35.575,61.742-84.756,64.032-147,.443-11.8.9-23.987,1.773-36.572,1.022-15.072,9.531-26.82,18.532-39.269,20.626-28.494,41.941-57.949-21.192-133.2-26.943-32.127-62.813-57.161-97.489-81.37C262.151,112.651,239.875,97.1,219.718,79.9c-31.942-27.275-64.759,1.6-102.735,35.045-17.005,14.961-34.577,30.44-53.024,41.35-42.754,25.133-42.483,46.349-42.089,78.464a321.618,321.618,0,0,1-1.047,35.132v-70.78C24.949,183.086,35.5,168.888,62.149,153.225Zm508.156-41.092v-.012c121.5,142.841,77.109,200.962,37.927,252.225-16.944,22.19-32.952,43.135-34.787,69.352-1.773,24.973-2.537,49.12-3.276,72.467-3.522,110.739-6.563,206.368-120.036,272.247-110.874,64.919-250.353-26.758-345.576-101.343-27.706-21.7-56.459-50.216-83.734-79.745V592.03C48.776,622.457,78.33,652,106.75,674.262c72,56.4,169.39,122.671,259.958,122.671,28.2,0,55.745-6.428,81.641-21.586,111.773-64.894,114.63-155.093,118.262-269.3.751-23.384,1.515-47.556,3.288-72.6,1.909-27.263,18.224-48.627,35.5-71.236,38.37-50.216,81.838-107.118-37.8-247.767v-.012c-32.669-38.567-72.369-71.4-113.682-101.959h6C500.006,42.351,538.438,74.5,570.306,112.134ZM63.11,263.914c.049-22.584.074-38.912,30.748-57.26,12.252-7.339,24.074-17.794,35.513-27.916,18.742-16.574,36.72-32.5,54.341-32.5,6.736,0,13.41,2.327,20.059,7.819,12.954,10.7,27.177,20.613,40.944,30.194,24.665,17.166,50.167,34.922,69.266,57.961,43.751,52.765,28.556,74.955,15.158,94.534-5.615,8.226-10.935,15.983-11.563,25.49-.53,7.844-.85,15.491-1.158,22.891-1.761,42.175-3.275,78.612-45.438,104.114-40.6,24.554-89.559-4.211-127.67-32.016-20.97-15.306-43.111-41.485-59.267-60.6-6.908-8.176-12.88-15.232-17.289-19.739C44.343,354.052,47.668,343.782,53.7,325.127a186.315,186.315,0,0,0,6.773-25.5C63.073,285.611,63.1,274.086,63.11,263.914Zm6.182,110.492C73.8,379,79.807,386.1,86.752,394.331c16.045,18.976,38.025,44.97,58.651,60.03,27.46,20.022,60.6,40.6,91.689,40.6a60.72,60.72,0,0,0,32.053-8.767c40.525-24.5,41.929-58.355,43.714-101.208.308-7.425.628-15.1,1.182-22.99.69-10.467,6.268-18.619,12.166-27.251,13.3-19.444,27.066-39.552-14.961-90.261-18.791-22.67-44.1-40.279-68.564-57.309-13.829-9.629-28.113-19.567-41.178-30.378-21.709-17.954-43.985,1.8-69.783,24.6-11.55,10.233-23.507,20.8-36.043,28.31-28.938,17.313-28.962,31.2-29.011,54.218-.012,10.319-.037,22.017-2.7,36.338a192.066,192.066,0,0,1-6.883,25.958C51.116,344.681,48.395,353.1,69.291,374.407ZM551.958,12.465h5.59c25.5,21.709,49.576,44.823,71.039,70.1,50.339,59.107,75.706,105.456,85.544,143.37v19.136c-5.48-40.574-29.9-91.677-88.253-160.191C603.652,58.691,578.531,34.864,551.958,12.465ZM26.882,93.921c-2.155,1.256-4.064,2.487-6.058,3.731V93.478c1.441-.874,2.746-1.736,4.261-2.623C50.2,76.14,74.266,55.022,97.539,34.606c8.657-7.585,17.215-15.072,25.711-22.14h5.517c-9.4,7.733-19.013,16.156-28.888,24.813C76.495,57.8,52.3,79.034,26.882,93.921Zm29.984,50.4c19.148-11.3,37.545-27.5,55.339-43.148,28.457-25.046,55.782-49.083,82.281-49.083,10.307,0,20.5,3.645,30.575,12.277,21.2,18.163,44.724,34.59,67.48,50.462,36.572,25.551,74.413,51.952,103.018,86.012,68.44,81.481,43.973,115.1,22.387,144.75-9.223,12.659-17.917,24.6-18.939,39.417-.924,13.3-1.391,26.2-1.847,38.678-2.327,63.958-4.347,119.2-69.167,157.593-62.579,37.089-138.149-9.42-197.01-54.083-31.942-24.258-66.039-64.623-90.926-94.078-7.241-8.558-13.718-16.205-19.234-22.411v-5.295c6.071,6.65,13.508,15.417,21.943,25.416,24.788,29.332,58.737,69.5,90.371,93.536,43.308,32.89,95.765,66.827,144.885,66.827a92.663,92.663,0,0,0,48.16-12.966c63.146-37.409,65.03-89.165,67.418-154.662.456-12.511.924-25.44,1.859-38.8,1.084-15.836,10.073-28.186,19.6-41.264,21.845-30,44.428-61.015-22.227-140.354-28.31-33.715-65.941-59.981-102.341-85.4-22.818-15.922-46.411-32.41-67.751-50.684-33.641-28.815-68.182,1.564-108.19,36.781-17.917,15.762-36.449,32.053-55.88,43.542-20.9,12.265-31.967,23.643-37.853,35.673v-7.536C27.535,165.145,38.568,155.06,56.867,144.322Zm-24.7-41.5c-4.1,2.4-7.819,4.765-11.341,7.117v-4.3c3-1.946,6.157-3.9,9.543-5.886C54.5,85.61,77.616,65.316,99.978,45.7c13.422-11.784,26.647-23.372,39.688-33.235h5.849C131.624,22.7,117.291,35.246,102.33,48.372,79.832,68.1,56.6,88.5,32.165,102.824ZM313.352,85.363c41.584,29.036,84.572,59.07,117.167,97.735C509.549,276.881,481.1,315.374,456,349.348c-10.75,14.555-20.909,28.3-22.091,45.389-1.1,15.639-1.613,30.785-2.13,45.438-2.586,73.292-4.8,136.585-79.338,180.534-72.886,42.938-164.3-15.688-226.735-63.552-36.658-28.1-75.878-74.536-104.52-108.448l-.357-.419v-5.5c1.034,1.231,2.019,2.377,3.078,3.633,28.531,33.789,67.615,80.04,103.966,107.919,50.105,38.407,110.812,78.095,167.678,78.095a106.461,106.461,0,0,0,55.092-14.789c72.849-42.951,74.93-102.365,77.577-177.591.517-14.69,1.047-29.861,2.155-45.561,1.244-18.126,11.7-32.275,22.768-47.261,25.5-34.516,51.878-70.214-25.342-161.841-32.287-38.321-75.09-68.207-116.477-97.107-26.795-18.717-54.514-38.062-79.461-59.7C193.083-4.824,153.3,30.1,107.23,70.574,86.592,88.713,65.24,107.467,42.8,120.655a168.58,168.58,0,0,0-21.98,15.06v-4.581a181.073,181.073,0,0,1,20.182-13.557c22.14-13.016,43.357-31.659,63.884-49.686,30.28-26.6,59.427-51.9,87.712-55.425h14.21c9.211,1.49,18.335,5.652,27.374,13.434C259,47.4,286.631,66.7,313.352,85.363ZM442.18,177.188C524.732,275.071,494.957,315.2,468.692,350.6c-11.267,15.183-21.919,29.529-23.15,47.384-1.145,16.414-1.7,32.312-2.229,47.692-2.66,76.4-4.962,142.385-82.725,188.181-76.075,44.773-171.471-16.624-236.636-66.7C88.144,539.622,50.069,495.489,20.824,460.924v-5.5c29.467,34.861,68.662,80.754,105.3,108.916,48.8,37.508,114.716,81.481,176.088,81.481,19.554,0,38.653-4.47,56.57-15.035C434.866,586,437.021,524.02,439.754,445.556c.529-15.4,1.1-31.339,2.253-47.815,1.293-18.889,12.24-33.641,23.827-49.255,26.721-36.03,54.366-73.28-26.376-169.008-33.666-39.9-78.23-71.039-121.341-101.146-28.076-19.6-57.1-39.872-83.2-62.555-1.465-1.268-2.931-2.241-4.4-3.312h5.874c.283.234.566.382.85.616,25.97,22.571,54.92,42.791,82.922,62.345C363.445,105.669,408.218,136.934,442.18,177.188ZM70.572,268.766c.111-21,.2-36.166,28.568-53.208,11.255-6.76,22.128-16.4,32.656-25.724,17.363-15.38,34.023-30.144,50.388-30.144,6.218,0,12.388,2.13,18.545,7.179,11.76,9.642,24.665,18.619,37.126,27.288,22.978,15.971,46.731,32.5,64.475,53.959,40.2,48.677,26.352,69.241,14.136,87.379-5.123,7.585-9.937,14.74-10.516,23.483-.48,7.068-.776,13.952-1.059,20.626-1.687,39.084-3.128,72.824-42.064,96.492-37.459,22.781-82.614-3.448-117.758-28.864-19.394-14.026-39.835-38.185-54.747-55.831-6.4-7.573-11.944-14.112-16.057-18.3C53.431,351.922,56.473,342.292,62,324.831A175.966,175.966,0,0,0,68.1,301.5C70.461,288.665,70.523,278.1,70.572,268.766ZM76.8,370.614c4.211,4.273,9.777,10.861,16.23,18.5,14.8,17.5,35.082,41.461,54.119,55.24,25.182,18.2,55.572,36.88,84.079,36.88a56.119,56.119,0,0,0,29.75-8.176c37.311-22.682,38.653-53.972,40.353-93.6.3-6.7.591-13.619,1.071-20.712.64-9.7,5.726-17.252,11.107-25.243,12.092-17.941,24.591-36.486-13.927-83.119-17.424-21.094-40.968-37.471-63.749-53.307-12.536-8.706-25.49-17.72-37.36-27.46-19.985-16.377-40.537,1.8-64.328,22.879-10.639,9.432-21.635,19.185-33.174,26.105-26.66,16.02-26.721,28.876-26.844,50.191-.049,9.469-.111,20.207-2.537,33.346A183.533,183.533,0,0,1,65.4,325.9C59.958,343.1,57.47,350.949,76.8,370.614ZM109.755,90.079c29.837-26.229,58.479-51.41,86.271-51.41,10.824,0,21.512,3.817,32.078,12.868,22.485,19.382,47.482,36.843,71.667,53.725,38.148,26.623,77.59,54.156,107.439,89.657,71.975,85.582,46.177,120.824,23.421,151.9-9.728,13.287-18.914,25.847-19.985,41.412-.985,14.087-1.465,27.755-1.946,40.968-2.426,67.049-4.507,124.973-72.553,165.215-65.756,38.924-145.131-10.171-206.922-57.247C95.7,511.62,59.908,469.248,33.766,438.3c-4.63-5.48-8.928-10.553-12.942-15.22v-5.455c4.729,5.455,9.987,11.661,15.663,18.385,26.032,30.822,61.692,73.021,94.891,98.326,45.586,34.737,100.789,70.6,152.483,70.6a97.345,97.345,0,0,0,50.475-13.582c66.384-39.257,68.33-93.548,70.8-162.285.48-13.237.973-26.93,1.97-41.079,1.121-16.587,10.615-29.553,20.65-43.259,23.064-31.511,46.9-64.081-23.273-147.52-29.553-35.144-68.8-62.542-106.749-89.029C273.48,91.237,248.4,73.739,225.8,54.234c-35.427-30.317-71.691,1.589-113.706,38.518-18.816,16.55-38.271,33.654-58.713,45.709-15.343,8.989-25.613,17.523-32.558,26.155V159.05c7.093-7.782,16.907-15.54,30.76-23.655C71.73,123.524,91.062,106.519,109.755,90.079Zm-2.438-11.095c31.228-27.435,61.2-53.775,90.248-53.775,11.329,0,22.522,4,33.58,13.5,23.655,20.466,49.97,38.838,75.422,56.619,39.86,27.817,81.075,56.595,112.3,93.684,75.5,89.682,48.369,126.55,24.443,159.083-10.233,13.915-19.912,27.066-21.032,43.394-1.034,14.863-1.552,29.27-2.044,43.209-2.5,70.177-4.655,130.773-75.952,172.862-68.9,40.7-152.076-10.9-216.81-60.4C92.38,520.339,54.884,475.947,27.5,443.537c-2.3-2.734-4.495-5.32-6.674-7.881v-5.5c3,3.534,6.108,7.2,9.4,11.082,27.275,32.3,64.635,76.518,99.41,103.1,47.839,36.572,105.8,74.339,160.068,74.339a102.056,102.056,0,0,0,52.79-14.173c69.61-41.1,71.63-97.957,74.191-169.932.493-13.964,1.01-28.408,2.056-43.332,1.194-17.35,11.156-30.908,21.709-45.266,24.283-33,49.391-67.135-24.308-154.675-30.92-36.732-71.938-65.374-111.6-93.068C279.009,80.4,252.608,61.979,228.818,41.4c-37.089-31.844-75.127,1.564-119.149,40.254-19.739,17.35-40.143,35.279-61.582,47.9-11.661,6.834-20.478,13.4-27.263,19.948v-4.926a157.481,157.481,0,0,1,25.465-18.1C67.432,114.042,87.713,96.212,107.317,78.985Zm-69.8,32.755a198.33,198.33,0,0,0-16.7,10.861v-4.335c4.495-3.165,9.346-6.354,14.887-9.592,23.138-13.582,45.315-33.05,66.753-51.866,19.222-16.895,38-33.2,56.41-44.342H165.4c-19.234,10.725-39.257,28.273-60.584,47C83.243,78.406,60.943,97.985,37.522,111.74Zm68.736,199.017a127.147,127.147,0,0,0,1.564-17.523c.493-13.164.85-22.658,17.757-33.174,6.28-3.928,12.425-9.445,18.372-14.777,10.06-9.038,20.379-18.3,30.674-18.3a17.6,17.6,0,0,1,10.861,3.879c5.615,4.236,11.649,8.361,17.473,12.351,14.764,10.11,30.033,20.564,41.141,34.43,22.559,28.15,15.355,40.55,9,51.5-2.561,4.408-4.975,8.57-5.295,13.533-.172,2.918-.32,5.788-.468,8.607-1.219,23.84-2.266,44.416-25.194,59.008-21.709,13.841-46.67,1.17-68.206-13.04-11.587-7.659-23.015-21.143-32.2-31.991-3.891-4.593-7.253-8.57-9.851-11.132-13.09-12.979-11.415-19.431-8.373-31.142C104.411,319.512,105.433,315.571,106.258,310.756Zm8.127,40.845c2.709,2.672,6.12,6.7,10.06,11.353,9.038,10.676,20.281,23.938,31.45,31.314,14.469,9.543,30.489,18.4,45.684,18.4a34.117,34.117,0,0,0,18.668-5.369c21.365-13.607,22.325-32.4,23.544-56.2.135-2.82.283-5.714.48-8.644.357-5.8,3.1-10.528,5.751-15.1,6.058-10.442,12.338-21.241-8.706-47.482-10.775-13.459-25.822-23.753-40.365-33.715-5.861-4.014-11.92-8.164-17.6-12.462-11.513-8.681-23.335,1.946-37.028,14.235-6.058,5.431-12.326,11.058-18.877,15.134-15.294,9.531-15.589,17.35-16.07,30.3a130.1,130.1,0,0,1-1.613,17.991c-.862,4.95-1.9,8.977-2.82,12.523C103.98,335.335,102.748,340.063,114.385,351.6ZM33.249,244.483c-.271-30.046-.443-49.9,39.466-73.44,16.168-9.6,31.733-23.322,46.78-36.6,24.308-21.426,47.655-42,70.361-42,8.78,0,17.473,3.079,26.081,10.368,17.683,14.974,37.237,28.617,56.139,41.805,31.462,21.943,64,44.638,88.524,73.969,57.851,69.167,37.36,97.9,19.284,123.213-7.684,10.762-14.924,20.909-15.774,33.457-.751,10.959-1.17,21.635-1.564,31.942-2.081,54.612-3.879,101.774-59,134.652-53.2,31.721-117.327-7.2-167.3-44.638-27.226-20.416-56.188-54.686-77.331-79.708-8.915-10.553-16.611-19.653-22.251-25.453-7.253-7.45-12.351-13.841-15.848-19.616v-7.585c3.029,6.97,8.681,14.727,18.409,24.739,5.714,5.874,13.447,15.023,22.4,25.613,21.044,24.9,49.847,58.983,76.765,79.154,36.523,27.386,80.705,55.6,122.1,55.6A79.05,79.05,0,0,0,301.74,538.8C355.183,506.9,356.87,462.845,359,407.063c.382-10.344.8-21.032,1.564-32.053.911-13.545,8.447-24.086,16.414-35.267,18.188-25.477,36.979-51.817-19.111-118.878-24.221-28.962-56.558-51.521-87.823-73.329-18.976-13.237-38.592-26.93-56.4-42.015-28.544-24.148-57.851,1.675-91.8,31.6C106.676,150.5,90.988,164.32,74.525,174.1c-38.148,22.51-37.988,40.525-37.717,70.361.123,13.705.259,29.221-3.349,48.394a231.675,231.675,0,0,1-9.617,34.614c-1.133,3.288-2.13,6.292-3.017,9.162V325.287A219.777,219.777,0,0,0,29.949,292.2C33.507,273.371,33.372,258.028,33.249,244.483ZM113.9,312.6a118.8,118.8,0,0,0,1.355-14.444c.579-11.6.985-20,15.6-29.221,5.295-3.349,10.491-8.041,15.528-12.585,8.731-7.881,17.683-15.959,26.684-15.959a15.6,15.6,0,0,1,9.371,3.238c4.3,3.152,8.792,6.194,13.311,9.248,13.213,8.965,26.881,18.237,36.708,30.649,19.013,24.049,13.151,34.811,7.979,44.305-2.056,3.78-3.99,7.339-4.248,11.563-.135,2.056-.234,4.076-.345,6.071-1.121,20.847-2.081,38.838-21.82,51.644-18.619,12.092-39.934,1.8-58.294-9.876-10.06-6.391-19.85-17.954-27.731-27.251-3.386-3.99-6.3-7.438-8.583-9.679-11.55-11.329-10.159-17.178-7.622-27.78C112.476,319.672,113.264,316.445,113.9,312.6Zm8,35.168c2.4,2.352,5.369,5.861,8.817,9.925,7.708,9.1,17.313,20.441,26.906,26.536,12.031,7.647,25.342,14.7,38.013,14.7a29.5,29.5,0,0,0,16.451-4.815c18.212-11.809,19.087-28.149,20.207-48.849.1-1.995.209-4.027.333-6.108.32-5,2.524-9.075,4.679-13.016,4.876-8.952,9.913-18.212-7.647-40.4-9.482-11.994-22.916-21.106-35.907-29.91-4.556-3.091-9.075-6.157-13.422-9.334-9.765-7.167-19.887,1.946-31.56,12.486-5.147,4.642-10.467,9.457-16.02,12.954-13.04,8.238-13.385,15.084-13.939,26.4a122.661,122.661,0,0,1-1.416,14.838c-.653,3.965-1.453,7.265-2.143,10.171C112.809,333.611,111.787,337.847,121.909,347.772Zm-.369-33.334c.69-4.261.924-7.992,1.145-11.292.653-10.085,1.121-17.375,13.459-25.33a101.977,101.977,0,0,0,12.671-10.393c7.413-6.736,15-13.631,22.731-13.631a13.465,13.465,0,0,1,7.832,2.6c2.894,2.007,5.861,3.977,8.841,5.972,11.809,7.844,24,15.971,32.607,27.054,15.479,19.924,10.947,29.061,6.957,37.114-1.539,3.14-3.017,6.108-3.214,9.568l-.2,3.349c-1,17.941-1.859,33.42-18.459,44.465-15.626,10.418-33.223,2.463-48.381-6.7-8.509-5.123-16.685-14.764-23.261-22.522-2.869-3.374-5.344-6.292-7.314-8.2-10.036-9.716-8.915-14.974-6.871-24.542C120.554,319.758,121.084,317.3,121.539,314.438Zm7.893,29.492c2.093,2.032,4.63,5.012,7.548,8.472,6.4,7.548,14.383,16.944,22.387,21.771,9.962,6.009,20.281,11.144,30.181,11.144a25.417,25.417,0,0,0,14.395-4.359c15.109-10.06,15.9-24.024,16.882-41.707l.185-3.362c.259-4.187,1.946-7.622,3.583-10.935,3.879-7.807,7.524-15.2-6.576-33.358-8.25-10.627-20.207-18.582-31.77-26.278-3-1.995-5.985-3.99-8.891-6.009-8.139-5.6-16.476,1.958-26.142,10.75a105.96,105.96,0,0,1-13.139,10.75c-10.824,6.982-11.193,12.511-11.846,22.571-.222,3.374-.468,7.2-1.182,11.624-.468,2.918-1.01,5.443-1.49,7.684C121.613,331.825,120.813,335.606,129.432,343.93ZM25.786,239.644c-.345-31.708-.566-52.654,41.646-77.5,17.166-10.171,33.666-24.714,49.625-38.776C142.756,100.719,167.421,79,191.4,79c9.3,0,18.483,3.263,27.583,11.009,18.853,16.033,39.725,30.588,59.919,44.687,33.161,23.138,67.468,47.076,93.351,77.984,61.385,73.28,39.564,103.621,20.318,130.392-8.189,11.39-15.922,22.14-16.821,35.439-.813,11.747-1.244,23.162-1.662,34.2-2.167,57.715-4.039,107.574-62.382,142.287-56.287,33.506-124.272-7.918-177.2-47.79-28.8-21.685-59.464-57.974-81.85-84.461-9.408-11.144-17.547-20.774-23.495-26.893-3.177-3.275-5.886-6.317-8.336-9.235V380.9a149.185,149.185,0,0,0,10.9,12.474c6.022,6.206,14.186,15.885,23.655,27.066,22.276,26.364,52.79,62.481,81.259,83.931,38.8,29.208,85.741,59.34,129.7,59.34a83.6,83.6,0,0,0,43.542-11.772c56.681-33.728,58.429-80.348,60.646-139.368.419-11.07.85-22.51,1.675-34.306.973-14.309,8.989-25.465,17.486-37.274,19.394-26.967,39.441-54.871-20.17-126.033-25.576-30.538-59.673-54.341-92.65-77.343-20.269-14.149-41.2-28.753-60.19-44.909-30.243-25.736-61.311,1.65-97.267,33.334C103.327,140.2,86.691,154.85,69.242,165.194c-40.451,23.815-40.229,43.936-39.9,74.4.148,14.555.332,31.031-3.522,51.4a201.648,201.648,0,0,1-5,20.613V297.26c.517-2.266,1.047-4.482,1.5-6.933C26.107,270.305,25.934,254.014,25.786,239.644ZM136.845,318c.209-1.5.369-2.894.5-4.187.837-7.425,1.441-12.782,9.371-18.335a68.5,68.5,0,0,0,6.933-5.96c4.753-4.47,9.642-9.063,14.887-9.063a9.383,9.383,0,0,1,4.679,1.293c9.162,5.147,18.458,11.046,24.406,19.357,8.373,11.686,6.637,17.3,4.95,22.744a22.032,22.032,0,0,0-1.207,5.541c-.529,10.615-1.822,20.737-11.612,27.989-9.617,7.117-19.382,4.1-28.494-.259-5.492-2.623-10.442-8.447-14.407-13.114a68.258,68.258,0,0,0-4.765-5.258c-7.216-6.625-6.6-11.033-5.467-19.062Zm7.647,18.138a67.042,67.042,0,0,1,5.061,5.566c3.768,4.408,8.435,9.913,13.237,12.2,5.233,2.5,9.974,4.174,14.481,4.174a16.947,16.947,0,0,0,10.368-3.559c8.558-6.342,9.666-15.22,10.171-25.3a25.45,25.45,0,0,1,1.367-6.428c1.5-4.815,2.906-9.359-4.445-19.616-5.541-7.745-14.456-13.385-23.249-18.335-4.47-2.5-8.8,1.071-15.392,7.265a70.29,70.29,0,0,1-7.327,6.28c-6.625,4.642-7.068,8.607-7.869,15.823-.148,1.33-.308,2.746-.517,4.273l-.234,1.7C139.062,327.885,138.668,330.779,144.492,336.135Zm7.5-32.053a52.68,52.68,0,0,0,4.027-3.669c3.312-3.251,6.982-6.871,11.169-6.871a7.588,7.588,0,0,1,2.857.579c6.859,2.783,12.708,7.388,16.033,12.622,4.95,7.795,4.482,11.76,3.99,15.959-.111.973-.234,1.983-.271,3.066-.308,7.684-3.017,13.755-8.041,18.04-5.6,4.79-10.787,5.64-18.483,3.054-4.051-1.379-7.277-5.159-10.122-8.484a38.43,38.43,0,0,0-3.46-3.731c-5.209-4.519-5.837-8.62-5.16-15.072C145.169,313.416,146.081,308.712,151.991,304.082Zm.037,27.891a40.8,40.8,0,0,1,3.83,4.088c2.537,2.98,5.43,6.366,8.558,7.425a20.425,20.425,0,0,0,6.4,1.244c3.128,0,5.738-1.158,8.632-3.633,4.236-3.62,6.526-8.829,6.785-15.466.049-1.182.172-2.278.3-3.337.456-3.867.813-6.92-3.448-13.644-2.955-4.618-8.189-8.718-14.383-11.243-3-1.219-5.985,1.4-10.2,5.541a58.146,58.146,0,0,1-4.322,3.94c-4.667,3.645-5.48,6.933-6.12,13.04C147.46,325.755,147.965,328.451,152.028,331.973Zm-131.2-258.8V68.937c24.8-15.565,48.664-36.2,71.778-56.472H98c-1,.874-1.995,1.736-3,2.623C71.188,35.972,46.56,57.337,20.824,73.172ZM157.3,311.311c2.118-2.487,4.741-5.591,8.583-5.591a8.929,8.929,0,0,1,8.287,6.243,21.3,21.3,0,0,0,1.441,3.066c1.034,1.946,2.106,3.953,2.106,6.329s-1.773,4.667-3.2,6.5c-.394.493-.751.948-1.034,1.355-.333.5-.653,1.022-.948,1.5-1.478,2.413-3.165,5.135-7.376,5.135-2.857,0-4.642-2.069-6.218-3.879a14.291,14.291,0,0,0-2.069-2.13c-2.377-1.761-5.16-5.27-5.16-9.322,0-3.066,2.217-5.48,4.014-7.425ZM159,327a17.2,17.2,0,0,1,2.635,2.635c1.428,1.662,2.377,2.672,3.522,2.672,2.13,0,2.881-1.059,4.347-3.46q.48-.794,1.034-1.625c.32-.468.739-1,1.17-1.564,1.034-1.318,2.45-3.128,2.45-4.3a10.635,10.635,0,0,0-1.687-4.655,22.758,22.758,0,0,1-1.675-3.633,5.384,5.384,0,0,0-4.913-3.805c-2.192,0-4.15,2.315-5.874,4.347l-1.675,1.9c-1.441,1.564-3.066,3.337-3.066,5.012C155.267,323.07,157.139,325.607,159,327Zm-29.812-10.75c.456-2.968.677-5.6.887-7.992.739-8.632,1.281-14.875,11.366-21.586a84.062,84.062,0,0,0,9.8-8.189c6.083-5.591,12.314-11.329,18.791-11.329a11.46,11.46,0,0,1,6.292,1.958l3.633,2.327c10.676,6.81,21.722,13.853,29.258,23.84,11.92,15.811,8.755,23.31,5.948,29.923a22.947,22.947,0,0,0-2.217,7.77c-.837,15.2-1.576,28.322-15.121,37.717-12.548,8.694-25.9,3.448-38.456-3.5-6.97-3.867-13.533-11.575-18.791-17.769-2.364-2.8-4.408-5.184-6.071-6.76-8.558-8.127-7.7-12.88-6.157-21.512C128.62,319.672,128.915,318.046,129.186,316.248Zm7.77,23.827c1.8,1.712,3.9,4.174,6.329,7.031,5.086,5.985,11.4,13.422,17.806,16.981,7.376,4.076,15,7.536,22.4,7.536a21.06,21.06,0,0,0,12.3-3.867c12.117-8.386,12.769-20.133,13.619-35.168a25.485,25.485,0,0,1,2.487-8.78c2.647-6.28,5.16-12.215-5.517-26.389-7.154-9.482-17.929-16.341-28.334-22.99L174.39,272.1c-6-3.891-11.834.813-20.749,9a87.277,87.277,0,0,1-10.233,8.521c-8.669,5.763-9.063,10.442-9.8,18.939-.209,2.463-.443,5.16-.911,8.213-.271,1.835-.566,3.485-.837,5.012C130.356,330.151,129.789,333.279,136.956,340.076ZM78.034,273.63c.185-19.419.332-33.445,26.389-49.169,10.27-6.194,20.195-15.011,29.812-23.532,15.971-14.186,31.3-27.792,46.4-27.792,5.7,0,11.378,1.946,17.042,6.539,10.565,8.57,22.1,16.587,33.284,24.345,21.291,14.789,43.32,30.083,59.722,50.007,36.671,44.564,24.148,63.5,13.09,80.2-4.593,6.945-8.94,13.508-9.457,21.5-.419,6.268-.69,12.388-.96,18.323-1.589,35.981-2.955,67.061-38.653,88.882-34.343,21.02-75.681-2.709-107.87-25.7C129,424.487,110.3,402.372,96.628,386.2c-5.923-6.994-11.021-13.028-14.838-16.895-19.284-19.53-16.5-28.507-11.477-44.8a168.553,168.553,0,0,0,5.418-21.168C77.862,291.731,77.948,282.114,78.034,273.63Zm6.28,93.179c3.916,3.965,9.063,10.06,15.023,17.1,13.558,16.008,32.1,37.939,49.576,50.425,22.9,16.377,50.511,33.149,76.444,33.149a51.734,51.734,0,0,0,27.485-7.585c34.085-20.835,35.353-49.6,36.966-86.012.259-5.96.53-12.1.96-18.4.579-8.928,5.394-16.205,10.048-23.236,10.873-16.427,22.128-33.432-12.88-75.964-16.094-19.554-37.914-34.7-59.008-49.354-11.23-7.795-22.83-15.848-33.494-24.492-18.323-14.85-37.089,1.835-58.848,21.143-9.716,8.62-19.776,17.56-30.329,23.914-24.357,14.7-24.48,26.549-24.665,46.165-.086,8.62-.185,18.409-2.364,30.317a172.257,172.257,0,0,1-5.517,21.574C68.787,341.516,66.545,348.794,84.314,366.809Zm427.71-225.085v-.012c103.892,122.326,66.1,172.308,32.767,216.392-14.383,19.013-27.965,36.978-29.529,59.39-1.49,21.044-2.155,41.412-2.807,61.1-3.14,95.112-5.849,177.27-103.067,234.136-95.162,55.7-214.545-22.19-296.062-85.606C82.381,603.051,50,569.015,20.824,536v-5.381c29.738,33.826,63,69.044,94.681,93.7,61.434,47.79,144.516,103.9,221.847,103.9,24.258,0,47.962-5.529,70.251-18.557,95.506-55.88,98.068-133.236,101.294-231.181.653-19.727,1.33-40.131,2.82-61.249,1.638-23.458,15.528-41.818,30.231-61.274,32.533-43.025,69.413-91.788-32.632-211.934l-.012-.012c-41.83-49.526-97.119-88.143-150.6-125.478-2.881-1.995-5.775-4.051-8.657-6.071h6.194c1.49,1.047,3,2.118,4.495,3.152C414.4,53.089,469.9,91.828,512.024,141.724Zm-23.31,11.821H488.7c96.849,114.113,61.7,160.832,30.7,202.046-13.348,17.744-25.958,34.5-27.411,55.4-1.367,19.493-1.995,38.37-2.623,56.619-2.968,88.881-5.541,165.646-96.282,218.83-88.8,52.063-200.187-20.318-276.249-79.3-32.361-25.1-66.433-61.89-96.011-95.95v-5.406c30.07,34.774,65.1,72.886,98.191,98.548,57.223,44.355,134.591,96.418,206.6,96.418,22.682,0,44.847-5.172,65.67-17.375,89.054-52.186,91.467-124.432,94.534-215.887.616-18.274,1.244-37.188,2.635-56.755,1.515-21.931,14.432-39.1,28.113-57.284,30.194-40.143,64.426-85.655-30.575-197.6v-.012c-39.084-46.362-90.827-82.478-140.871-117.4-12.166-8.484-24.455-17.166-36.7-25.97h6.083c10.9,7.795,21.82,15.5,32.644,23.052C397.382,70.574,449.322,106.826,488.714,153.545ZM85.5,278.494c.271-17.83.456-30.711,24.221-45.13,9.26-5.627,18.249-13.619,26.943-21.352,14.592-12.979,28.605-25.428,42.434-25.428,5.2,0,10.368,1.749,15.54,5.9,9.359,7.5,19.542,14.567,29.406,21.4,19.641,13.595,39.934,27.669,54.994,46.054,33.137,40.451,21.943,57.752,12.068,73.021-4.088,6.3-7.942,12.277-8.41,19.505-.369,5.48-.616,10.824-.862,16.02-1.5,32.89-2.808,61.311-35.279,81.3-31.179,19.2-68.724-1.946-97.945-22.547-16.291-11.476-33.309-31.6-45.746-46.3-5.381-6.379-10.048-11.883-13.545-15.417-17.72-17.88-15.232-26.2-10.7-41.325a158.837,158.837,0,0,0,4.741-19A152.732,152.732,0,0,0,85.5,278.494Zm6.342,84.522c3.6,3.633,8.3,9.186,13.742,15.626,12.314,14.543,29.159,34.467,45.069,45.684,21.709,15.306,45.808,29.578,68.539,29.578a47.653,47.653,0,0,0,25.5-7.154c30.859-19,32.065-45.229,33.592-78.427.234-5.221.493-10.59.862-16.082.517-8.164,4.815-14.8,8.965-21.217,9.679-14.949,19.665-30.391-11.821-68.834C261.536,244.2,241.439,230.273,222.02,216.8c-9.913-6.871-20.158-13.976-29.615-21.549-16.587-13.311-33.629,1.859-53.381,19.419-8.8,7.832-17.929,15.946-27.46,21.734-22.091,13.4-22.251,24.209-22.522,42.138a155.572,155.572,0,0,1-2.18,27.288,162.238,162.238,0,0,1-4.852,19.37C77.616,339.928,75.608,346.627,91.838,363.016ZM558.645,118.044v-.012c117.979,138.74,74.905,195.224,36.892,245.058-16.427,21.549-31.942,41.9-33.728,67.357-1.712,24.2-2.463,47.605-3.189,70.238C555.2,608.3,552.217,701.242,442,765.274c-107.709,63.109-243.187-25.822-335.688-98.2-28.334-22.177-57.752-51.706-85.483-82v-5.3c28.383,31.179,58.626,61.754,87.687,84.486C178.392,718.949,272.938,783.2,360.835,783.2c27.411,0,54.193-6.255,79.363-21,108.534-63.047,111.33-150.685,114.876-261.645.726-22.657,1.465-46.091,3.189-70.374,1.859-26.5,17.683-47.273,34.454-69.253,37.188-48.763,79.351-104.04-36.781-240.588v-.012C521.063,79.145,477.976,44.654,433.56,12.465h6C482.767,43.964,524.56,77.778,558.645,118.044ZM453.767,171.277v-.012c86.271,101.823,55.1,143.654,27.608,180.546-11.809,15.848-22.965,30.822-24.258,49.428-1.207,17.19-1.773,33.826-2.327,49.933-2.746,79.523-5.11,148.2-86.111,195.84-79.277,46.6-178.662-17.547-246.548-69.857-34.8-26.82-71.753-68.773-101.306-103.523v-5.517C50.71,503.37,88.686,546.887,124.3,574.335c50.906,39.22,119.679,85.212,183.723,85.212,20.33,0,40.193-4.642,58.848-15.614,79.326-46.633,81.542-111.182,84.362-192.884.554-16.131,1.133-32.816,2.34-50.056,1.367-19.653,12.819-35.033,24.948-51.3,28.014-37.594,56.976-76.469-27.46-176.113l-.012-.012C416.075,131.983,369.664,99.6,324.78,68.3c-25.305-17.658-51.238-35.944-75.41-55.831h5.578c23.125,18.742,47.79,36.1,71.864,52.913C371.892,96.815,418.5,129.324,453.767,171.277ZM98.623,308.909a132.73,132.73,0,0,0,1.749-20.577c.419-14.715.714-25.354,19.911-37.176,7.29-4.482,14.383-10.836,21.254-16.969,11.821-10.578,23.175-20.736,34.491-20.736a20.109,20.109,0,0,1,12.523,4.63c6.9,5.332,14.346,10.467,21.549,15.442,16.353,11.255,33.247,22.879,45.635,38.222,26.093,32.262,17.56,46.3,10.023,58.688-3.066,5.036-5.96,9.789-6.329,15.5-.234,3.756-.419,7.438-.591,11.033-1.305,26.869-2.426,50.093-28.556,66.495-24.837,15.577-53.43.542-78.132-16.23-13.151-8.915-26.77-25-36.708-36.745-4.4-5.2-8.189-9.679-11.082-12.572-14.629-14.6-12.683-21.685-9.149-34.528A143.953,143.953,0,0,0,98.623,308.909Zm8.25,46.5c3,2.992,6.847,7.524,11.292,12.782,9.8,11.587,23.236,27.448,35.981,36.1,16.882,11.464,35.612,22.116,53.319,22.116a38.542,38.542,0,0,0,20.934-5.96c24.542-15.417,25.576-36.7,26.894-63.65.172-3.62.357-7.314.591-11.083.431-6.588,3.682-11.944,6.834-17.129,7.277-11.944,14.777-24.283-9.74-54.612-12.068-14.924-28.765-26.413-44.884-37.533-7.253-4.987-14.752-10.147-21.734-15.565-13.188-10.208-26.77,1.933-42.458,15.959-6.982,6.243-14.2,12.708-21.759,17.35-17.56,10.812-17.794,19.628-18.212,34.245a139.387,139.387,0,0,1-1.8,21.094c-1.047,5.935-2.34,10.652-3.485,14.814C95.151,337.022,93.7,342.268,106.873,355.406ZM90.988,307.05a142.933,142.933,0,0,0,1.933-23.606c.345-16.291.591-28.063,22.091-41.178,8.263-5.061,16.3-12.228,24.074-19.16,13.225-11.784,25.9-23.089,38.481-23.089,4.679,0,9.346,1.564,14.025,5.258,8.139,6.428,16.968,12.548,25.514,18.446,17.978,12.425,36.56,25.28,50.278,42.113,29.64,36.375,19.764,52.051,11.046,65.879-3.571,5.664-6.945,11.033-7.376,17.5-.283,4.556-.493,9.026-.7,13.373-1.392,29.947-2.6,55.819-31.942,74.031-27.928,17.375-60.166-.062-88.032-19.382-14.7-10.2-30.009-28.285-41.2-41.485-4.9-5.8-9.137-10.8-12.338-14.026-16.193-16.254-13.964-23.975-9.925-37.964A153.1,153.1,0,0,0,90.988,307.05Zm8.361,52.162c3.312,3.325,7.6,8.373,12.548,14.235,11.046,13.065,26.192,30.945,40.513,40.87,19.3,13.373,40.7,25.834,60.917,25.834a43.09,43.09,0,0,0,23.212-6.551c27.755-17.239,28.864-41.042,30.268-71.174.2-4.371.406-8.866.714-13.459.48-7.364,4.248-13.348,7.905-19.148,8.46-13.447,17.227-27.337-10.787-61.729-13.41-16.451-31.782-29.147-49.551-41.436-8.6-5.948-17.473-12.08-25.7-18.582-14.875-11.76-30.206,1.9-47.926,17.683-7.906,7.056-16.057,14.321-24.6,19.542-19.838,12.117-20.047,21.943-20.379,38.222a148.275,148.275,0,0,1-1.983,24.16,157.6,157.6,0,0,1-4.162,17.067C86.42,338.266,84.647,344.447,99.35,359.212ZM465.429,165.366l-.012-.012c89.805,105.924,57.309,149.38,28.642,187.713-12.314,16.488-23.963,32.053-25.305,51.423-1.268,17.954-1.847,35.353-2.426,52.162-2.82,82.651-5.258,154.022-89.51,203.5-82.441,48.394-185.829-18.483-256.436-73C86.408,560.913,50.537,520.9,20.824,486.18v-5.467C50.931,516,87.824,557.5,122.549,584.321c53.011,40.944,124.641,88.956,191.345,88.956,21.118,0,41.744-4.815,61.126-16.193,82.552-48.492,84.855-115.59,87.749-200.544.579-16.845,1.17-34.27,2.45-52.3,1.4-20.416,13.348-36.387,25.995-53.294,29.233-39.1,59.464-79.523-28.507-183.292h0c-36.338-43.172-84.535-76.8-131.13-109.31C310.5,43.632,288.971,28.51,268.3,12.465h5.874C293.662,27.4,313.82,41.612,333.609,55.428,380.4,88.072,428.783,121.825,465.429,165.366ZM535.334,129.9v-.012c110.936,130.539,70.5,183.76,34.824,230.737-15.4,20.269-29.947,39.429-31.622,63.355-1.589,22.6-2.3,44.441-2.992,65.571-3.3,101.356-6.157,188.907-109.852,249.467-101.516,59.3-228.9-24.049-315.863-91.9-29.627-23.113-60.473-54.772-89-86.493v-5.295c29.135,32.558,60.855,65.313,91.184,88.98C177.641,695.528,266.449,755.693,349.1,755.693c25.822,0,51.066-5.886,74.794-19.739,102-59.587,104.692-142.077,108.091-246.524.69-21.155,1.4-43.037,3-65.695,1.749-24.985,16.6-44.552,32.336-65.264,34.873-45.906,74.388-97.92-34.7-226.267v-.012C493.2,85.56,442.586,48.028,392.026,12.465h6.145C447.549,47.3,496.706,84.206,535.334,129.9ZM667.819,936.867a282.145,282.145,0,0,0,46.312-62v7.327a284.609,284.609,0,0,1-41.288,54.674Zm-401.346,0h-7.844C193.661,902.721,132.08,857.751,79.968,816.45c-19.481-15.442-39.343-33.26-59.144-52.445v-4.987c20.54,20.01,41.165,38.641,61.348,54.637C135.786,856.162,199.486,902.5,266.473,936.867Zm24.061,0h-8.694c-72.824-34.356-142.4-84.707-200.125-130.429C61.669,790.554,41.2,772.046,20.824,752.172v-4.987C41.93,767.9,63.159,787.192,83.933,803.644,143.372,850.72,215.432,902.647,290.535,936.867Zm337.117,0h-5.64c48.086-39.023,75.8-83.353,92.12-132.879v11.046C697.705,860.017,671.193,900.652,627.651,936.867Zm61.028,0a287.247,287.247,0,0,0,25.453-33.543v6.748a289.156,289.156,0,0,1-20.626,26.795Zm-443.73,0h-7.413c-57.8-32.915-112.327-73.132-159.317-110.394-18.9-14.986-38.173-32.213-57.395-50.708v-4.913c19.961,19.32,39.983,37.274,59.6,52.827C128.817,862.061,185.263,903.5,244.949,936.867Zm330.319,0h-6.477c118.5-74.942,139.036-173.182,145.341-293.735v48.11C704.121,789.7,675.318,871.727,575.268,936.867Zm-256.67,0h-9.851c-81.838-32.9-161.053-89.62-225.282-140.452-20.626-16.328-41.695-35.5-62.641-56.077v-5c21.685,21.438,43.517,41.387,64.857,58.282C151.917,846.053,234.162,904.753,318.6,936.867ZM708.64,571.306c-4.692,154.281-8.4,276.139-160.733,364.257-.8.468-1.625.85-2.438,1.305h-7.511c2.721-1.428,5.467-2.808,8.176-4.371,150.623-87.133,154.293-208.117,158.947-361.289.973-31.991,1.983-65.066,4.421-99.361a101.761,101.761,0,0,1,4.63-23.483v15.971c-.394,2.574-.9,5.11-1.083,7.758C710.61,506.325,709.6,539.363,708.64,571.306Zm-11.55-5.517c-4.593,151.03-8.226,270.326-157.334,356.61a209.5,209.5,0,0,1-30.391,14.469H498.984A205,205,0,0,0,537.97,919.32c147.4-85.286,151.005-203.708,155.561-353.642.96-31.265,1.945-63.589,4.322-97.107,1.281-18.065,7.5-34.146,16.279-49.477v7.672c-6.834,13.163-11.661,26.918-12.732,42.052C699.023,502.262,698.05,534.561,697.089,565.789ZM225.111,936.867H218.1C166.916,905.837,118.695,870,76.47,836.5c-18.335-14.555-37-31.191-55.646-49v-4.9c19.394,18.631,38.8,35.993,57.851,51.1C122.216,868.255,172.161,905.233,225.111,936.867Zm377.42,0h-6.12c71.876-51.644,103.239-113.374,117.721-184.942v16.648C698.481,832.9,667.314,889.065,602.531,936.867Zm-246.056,0H343.14c-93.117-28-185.3-93.031-257.914-150.475-21.2-16.772-42.889-36.6-64.4-57.888v-5C43.063,745.658,65.511,766.271,87.43,783.6,162.975,843.368,259.8,911.353,356.476,936.867ZM685.551,560.3c-4.519,147.779-8.09,264.514-153.948,348.926-30.378,17.67-62.419,26.118-95.2,27.645H414.622c-115.122-5.024-236.968-88.82-327.648-160.5C65.2,759.154,42.9,738.676,20.824,716.659v-5.024c22.805,22.879,45.869,44.17,68.367,61.939,93.019,73.539,219,160.056,336.169,160.056,36.067,0,71.285-8.2,104.459-27.485C673.964,822.718,677.51,706.869,681.993,560.186c.936-30.551,1.909-62.136,4.224-94.891,1.773-25.083,13.287-46.263,27.916-66.963V404.6c-12.9,18.939-22.768,38.407-24.369,60.941C687.448,498.235,686.475,529.783,685.551,560.3Zm27.534,376.571h-4.642c1.933-2.438,3.854-4.864,5.689-7.327v6.021C713.787,935.993,713.43,936.424,713.085,936.867Zm-633.684,0H73.589c-4.334-3.411-8.657-6.822-12.893-10.2-13.176-10.491-26.5-21.943-39.872-34v-4.815c14.124,12.807,28.2,24.96,42.089,36.03C68.294,928.174,73.86,932.521,79.4,936.867Zm29.516,0h-5.886c-13.348-10.159-26.339-20.293-38.838-30.243-14.309-11.39-28.814-23.975-43.369-37.249V864.56c15.294,14.05,30.551,27.312,45.586,39.294C80.029,914.7,94.276,925.773,108.917,936.867Zm-14.875,0H88.193c-8.755-6.785-17.375-13.545-25.748-20.219C48.7,905.7,34.788,893.683,20.824,881.024v-4.815c14.715,13.422,29.369,26.142,43.837,37.668C74.168,921.451,84.031,929.147,94.042,936.867Zm-73.218,0v-2.537c.973.862,1.946,1.687,2.918,2.537Zm10.775,0q-5.375-4.618-10.775-9.371V922.78Q28.951,930,37.017,936.867Zm13.631,0c-8.1-6.723-16.23-13.656-24.406-20.934v-4.778q15.091,13.5,30.009,25.711Zm143.457,0h-6.379c-39.109-26.019-76.026-53.873-109.347-80.336-17.19-13.656-34.651-29.073-52.137-45.549v-4.9c18.225,17.276,36.437,33.444,54.341,47.667C109.669,881.16,148.026,910.073,188.687,936.867Zm17.757,0h-6.686c-44.983-28.691-87.355-60.424-125.047-90.359-17.757-14.1-35.821-30.132-53.885-47.261v-4.9c18.8,17.941,37.619,34.713,56.09,49.379C115.85,874.633,159.811,907.474,206.443,936.867Zm-34.577,0h-6.342c-33.518-23.113-65.264-47.236-94.312-70.312-16.611-13.2-33.494-28-50.388-43.825v-4.9c17.646,16.611,35.267,32.164,52.593,45.943C103.647,887.8,136.833,912.917,171.866,936.867Zm-47.741,0h-6c-18.1-13.508-35.575-27.054-52.174-40.254-14.887-11.858-29.984-24.985-45.13-38.887v-4.8c15.885,14.666,31.733,28.482,47.347,40.907C85.9,907.942,104.681,922.436,124.125,936.867Zm31.388,0h-6.206c-28.174-20.022-54.981-40.537-79.843-60.3-16.045-12.757-32.324-26.955-48.64-42.126v-4.876c17.055,15.971,34.085,30.9,50.844,44.231C97.687,894.471,125.886,915.971,155.513,936.867Zm-16.008,0h-5.985c-23.039-16.808-45.093-33.8-65.818-50.278-15.466-12.3-31.154-25.97-46.879-40.5v-4.815c16.476,15.318,32.9,29.664,49.1,42.544C91.764,901.194,115.087,919.16,139.505,936.867ZM20.824,56.6C40.218,43.841,59.059,28.412,77.431,12.465h5.406C62.79,29.951,42.189,47.043,20.824,60.834Zm572.8,43.714c128.532,151.03,81.493,212.414,39.983,266.558-17.966,23.446-34.947,45.6-36.892,73.329-1.884,26.512-2.685,52.137-3.46,76.912-3.842,121.8-6.871,218-126.82,287.6-117.3,68.5-264.711-28.617-365.389-107.66-26.512-20.811-53.873-47.581-80.225-75.62v-5.172c27.029,28.938,55.215,56.631,82.417,78C179.451,754.08,282.58,824.393,378.456,824.393c29.775,0,58.848-6.773,86.2-22.756C582.9,733.036,585.9,637.7,589.7,517c.776-24.812,1.588-50.475,3.472-77.048,2.02-28.8,19.308-51.361,37.619-75.25,40.685-53.073,86.8-113.238-39.872-262.088-28.383-33.481-61.8-62.813-97.009-90.15h5.812C533.758,39.125,566.033,67.754,593.628,100.312Zm-11.674,5.9c125.035,146.942,79.314,206.688,38.973,259.4-17.461,22.818-33.949,44.367-35.846,71.334-1.823,25.748-2.611,50.622-3.374,74.684-3.6,113.866-6.7,212.193-123.41,279.931C344.186,858.28,200.767,763.882,102.8,687.056,75.707,665.8,47.644,638.17,20.824,609.38v-5.172C48.321,633.885,77.2,662.453,105,684.261c74.093,58.109,174.352,126.4,267.58,126.4,28.987,0,57.3-6.6,83.919-22.165,115.012-66.753,117.942-159.526,121.661-276.976.751-24.1,1.552-49.009,3.374-74.831,1.97-28.026,18.766-49.982,36.56-73.231,39.527-51.644,84.325-110.185-38.85-254.946h0C548.769,72.532,512.332,41.4,474.122,12.465h5.812C516.974,40.738,552.241,71.141,581.955,106.211Zm-34.971,17.732c114.47,134.64,72.713,189.5,35.87,237.9-15.922,20.909-30.957,40.66-32.681,65.35-1.65,23.433-2.389,46.079-3.091,68-3.349,104.5-6.243,194.756-113.238,256.929-104.532,61.3-236-24.9-325.788-95.051-28.962-22.645-59.082-53.221-87.231-84.239v-5.295c28.79,31.893,59.747,63.527,89.436,86.727,67.788,52.974,159.477,115.2,244.713,115.2,26.635,0,52.642-6.083,77.073-20.4,105.3-61.188,108.03-146.277,111.49-253.974.7-21.956,1.428-44.65,3.091-68.145,1.8-25.736,17.153-45.894,33.4-67.258,36.03-47.322,76.863-100.974-35.747-233.422v-.012c-37.126-43.887-83.882-79.929-131.4-113.78h6.132C465.305,45.6,510.657,81,546.983,123.943ZM605.277,94.4c132.078,155.142,83.7,218.14,41.03,273.725-18.5,24.086-35.944,46.83-37.951,75.324C606.422,470.738,605.6,497.1,604.8,522.6c-3.916,125.047-7.019,223.817-130.207,295.262C354.1,888.228,202.7,788.3,99.3,707.054c-25.908-20.367-52.617-46.276-78.476-73.563v-5.172c26.549,28.186,54.058,55.018,80.668,75.94,78.3,61.532,184.289,133.876,282.837,133.876,30.551,0,60.4-6.957,88.475-23.347,121.489-70.46,124.555-168.355,128.434-292.294.8-25.539,1.626-51.94,3.571-79.3,2.069-29.553,19.85-52.716,38.678-77.233,41.855-54.514,89.288-116.3-40.919-269.255C576.3,65.735,545.887,38.152,513.674,12.465h5.59C550.357,37.5,579.763,64.319,605.277,94.4ZM674.013,554.78c-4.445,144.54-7.943,258.7-150.562,341.279-139.689,81.259-314.989-35.119-434.729-129.7-22.362-17.67-45.253-39.023-67.9-61.779v-5.036c23.372,23.63,47.039,45.8,70.115,64.02,90.913,71.815,214.04,156.312,328.559,156.312,35.267,0,69.721-8.016,102.168-26.894C662.574,811.4,666.058,698.1,670.455,554.682c.911-29.836,1.859-60.683,4.137-92.662,2.192-31.253,19.764-56.336,39.54-82.084v5.837c-18.261,24.049-33.974,47.729-36.006,76.506C675.86,494.184,674.924,524.993,674.013,554.78ZM523.673,135.8c107.414,126.439,68.305,178.034,33.8,223.571-14.887,19.641-28.962,38.2-30.575,61.372-1.539,21.82-2.229,42.939-2.906,63.343-3.226,98.24-6.009,183.07-106.453,241.8-98.375,57.493-221.736-23.125-305.963-88.758-30.255-23.581-61.9-56.373-90.753-88.734v-5.357c29.455,33.211,61.951,67.148,92.933,91.283,63.54,49.5,149.478,107.636,229.469,107.636,25.046,0,49.514-5.689,72.516-19.136,98.757-57.74,101.38-137.657,104.7-238.852.665-20.441,1.354-41.572,2.906-63.478,1.687-24.221,16.07-43.185,31.29-63.269,33.691-44.453,71.888-94.854-33.678-219.1V138.1c-41.756-49.416-96.479-88.29-149.946-125.638h6.206C429.546,49.062,482.717,87.333,523.673,135.8Zm93.265-47.322C752.526,247.734,702.828,312.357,658.99,369.4c-19,24.714-36.942,48.049-39.01,77.306-1.983,28.051-2.832,55.166-3.645,81.382-4,128.286-7.167,229.629-133.593,302.921-123.693,72.147-279.069-30.477-385.2-113.965-25.305-19.9-51.373-44.97-76.715-71.494v-5.172c26.056,27.423,52.9,53.418,78.92,73.883,80.4,63.244,189.24,137.607,290.447,137.607,31.351,0,61.951-7.13,90.766-23.926,124.715-72.319,127.855-172.776,131.82-299.966.825-26.253,1.675-53.393,3.669-81.518,2.13-30.317,20.392-54.082,39.725-79.24,43.025-55.954,91.775-119.371-41.941-276.422-24.258-28.58-52.038-54.255-81.407-78.329h5.59C566.686,35.861,593.444,60.8,616.938,88.479ZM21.6,85.019c-.271.16-.5.32-.776.48V81.287C46.572,66.03,71.249,44.444,95.114,23.511q6.354-5.578,12.659-11.046h5.443c-5.2,4.47-10.43,9.051-15.762,13.718C73.146,47.51,48.013,69.564,21.6,85.019Zm-.776-53.073c8.583-6.071,17.042-12.671,25.428-19.481h5.566c-10.184,8.373-20.49,16.4-30.994,23.717Zm0,12.326A509.063,509.063,0,0,0,62,12.465h5.566A523.86,523.86,0,0,1,20.824,48.508ZM477.078,159.456c93.327,110.012,59.5,155.106,29.664,194.879-12.831,17.116-24.96,33.272-26.352,53.405-1.318,18.717-1.933,36.843-2.524,54.378-2.906,85.766-5.406,159.834-92.9,211.171-85.618,50.241-193.008-19.394-266.349-76.149-33.149-25.65-68.083-63.946-97.8-98.425V493.26c30.181,35.131,66.064,74.819,99.976,101.072,55.1,42.643,129.6,92.687,198.968,92.687,21.894,0,43.3-5,63.392-16.8C468.975,619.884,471.327,550.212,474.307,462c.591-17.56,1.207-35.723,2.537-54.514,1.465-21.168,13.89-37.742,27.054-55.289,30.464-40.6,61.951-82.589-29.529-190.434l-.012-.012c-37.705-44.761-87.675-79.634-135.994-113.361-16.7-11.649-33.678-23.556-50.327-35.92h5.948c15.38,11.329,31.019,22.264,46.411,33C388.9,79.329,439.065,114.338,477.078,159.456Zm23.286-11.821C600.733,265.86,564.272,314.2,532.1,356.847c-13.865,18.385-26.955,35.747-28.47,57.395-1.416,20.269-2.069,39.885-2.709,58.86-3.066,92.009-5.7,171.458-99.681,226.489-91.985,53.849-207.366-21.254-286.15-82.466C83.428,592.547,50.242,557.182,20.824,523.6v-5.393c29.96,34.356,64.057,70.965,96.442,96.122C176.582,660.4,256.807,714.491,331.478,714.491c23.483,0,46.411-5.357,67.973-17.978,92.268-54.033,94.768-128.828,97.908-223.521.64-19.013,1.293-38.666,2.721-59.008,1.588-22.694,14.986-40.463,29.172-59.279,31.376-41.584,66.926-88.721-31.6-204.767l-.012-.012c-40.451-47.938-93.967-85.3-145.735-121.427q-11.359-7.942-22.842-16.033h6.194q9.365,6.594,18.692,13.114C405.891,61.844,459.616,99.339,500.363,147.635ZM20.824,19.139c2.968-2.155,5.886-4.421,8.829-6.674h5.9C30.663,16.27,25.774,20.038,20.824,23.6Zm549.962-6.674h5.344c22.879,20.047,44.589,41.2,64.118,64.2,35.944,42.187,59.476,78.058,73.883,109.064v9.051c-13.767-32.422-37.877-70.374-76.592-115.812C617.283,55.108,594.675,33.177,570.786,12.465Zm108.805,0h5.061Q697.84,26.17,710.167,40.6c1.379,1.613,2.611,3.165,3.965,4.765v5.566c-2.241-2.684-4.359-5.295-6.686-8.029C698.542,32.438,689.2,22.341,679.591,12.465Zm34.54,0V12.8l-.3-.333Zm-105.739,0h5.344a612.048,612.048,0,0,1,49.785,51.681c20.6,24.184,37.213,46.312,50.61,66.79V137.5c-13.767-21.6-31.253-45.155-53.319-71.051A615.72,615.72,0,0,0,608.393,12.465ZM654.9,456.442c-2.155,30.378-3.054,59.7-3.94,88.069C646.7,682.549,643.327,791.576,507.2,870.447c-133.248,77.577-300.619-33.26-414.928-123.41C68.737,728.468,44.577,705.748,20.824,681.5v-5.036c24.468,25.12,49.416,48.652,73.662,67.776C181.188,812.633,298.6,893.079,407.8,893.079c33.691,0,66.618-7.672,97.612-25.711,134.43-77.873,137.768-186.026,142-322.968.874-28.4,1.785-57.764,3.94-88.2,2.29-32.595,22.017-58.146,42.9-85.2,6.7-8.694,13.521-17.56,19.875-26.857v6.268c-5.541,7.807-11.341,15.343-17.067,22.756C676.525,399.786,657.119,424.918,654.9,456.442Zm6.982-443.977h5.073c10.9,11.009,21.525,22.251,31.536,34.023,5.48,6.428,10.664,12.7,15.639,18.877V71.1c-5.8-7.278-11.821-14.666-18.348-22.313C685.071,36.194,673.619,24.2,661.884,12.465Zm4.605,446.526c-2.216,31.142-3.14,61.225-4.027,90.3C658.116,690.578,654.68,802.178,515.3,882.9,378.862,962.3,207.5,848.688,90.484,756.334c-22.941-18.114-46.46-40.143-69.66-63.638v-5.024c23.914,24.369,48.209,47.2,71.864,65.867,88.82,70.115,209.09,152.581,320.936,152.581,34.491,0,68.17-7.844,99.89-26.3C651.2,800.085,654.594,689.359,658.9,549.178c.9-29.11,1.822-59.217,4.039-90.433,2.352-33.371,22.559-59.513,43.948-87.195q3.62-4.673,7.241-9.42v5.861q-2.216,2.881-4.421,5.738C688.654,400.968,668.768,426.7,666.489,458.991ZM589.22,12.465h5.344C614.907,30.8,634.3,50.022,651.91,70.759c27.238,31.979,47.532,60.4,62.222,85.889v7.474c-14.752-26.758-35.759-56.816-64.931-91.061C630.853,51.463,610.548,31.49,589.22,12.465Zm54.046,440.726c-2.093,29.6-2.992,58.2-3.842,85.84-4.174,134.8-7.474,241.266-140.378,318.264-130.071,75.755-293.44-32.324-405-120.257-24.123-19-48.935-42.409-73.218-67.394V664.5c25,25.884,50.585,50.179,75.41,69.746,84.609,66.68,199.165,145.107,305.692,145.107,32.915,0,65.066-7.487,95.334-25.133,131.192-76.013,134.467-181.6,138.6-315.3.862-27.681,1.749-56.311,3.854-85.975,2.241-31.844,21.475-56.792,41.843-83.217,11.563-15,23.507-30.526,32.57-48.049v7.585c-8.718,15.306-19.382,29.184-29.763,42.643C664.347,397.889,645.433,422.431,643.266,453.191Zm-11.637-3.251c-2.044,28.827-2.906,56.681-3.743,83.611C623.8,665.1,620.559,769,490.894,844.144c-126.907,73.982-286.273-31.413-395.1-117.1-24.714-19.456-50.142-43.677-74.967-69.426v-5.172c25.539,26.647,51.743,51.792,77.159,71.8,82.515,64.968,194.19,141.363,298.07,141.363,32.127,0,63.527-7.314,93.056-24.529,127.953-74.166,131.167-177.2,135.219-307.638.837-26.967,1.712-54.846,3.756-83.747,2.18-31.08,20.934-55.437,40.784-81.21,19.431-25.243,39.983-51.977,45.266-87.7v17.289c-8.373,28.26-25.81,50.955-42.446,72.578C652.181,395.993,633.734,419.931,631.629,449.94ZM626.506,12.465h5.073a614.191,614.191,0,0,1,43.6,45.8c14.924,17.51,27.8,33.974,38.949,49.539v6.243c-11.735-16.71-25.44-34.454-41.658-53.479A615.672,615.672,0,0,0,626.506,12.465Zm75.139,0c4.236,4.519,8.386,9.137,12.486,13.779v5.283c-5.64-6.452-11.378-12.831-17.289-19.062Zm-57.457,0h5.073c13.065,12.843,25.761,26.007,37.582,39.909q14.906,17.51,27.287,33.7V92.05c-9.014-11.944-18.9-24.345-30-37.373C671.6,39.95,658.116,26.01,644.189,12.465Z" transform="translate(0 924.164)" fill-rule="evenodd" opacity="0.349" fill="url(#linear-gradient-3)"/>
  </g>
</svg>
