<svg xmlns="http://www.w3.org/2000/svg" width="71.263" height="68.008" viewBox="0 0 71.263 68.008">
  <g id="Group_159018" data-name="Group 159018" transform="translate(0.513 0.59)">
    <g id="Group_148797" data-name="Group 148797" transform="translate(0 0)">
      <g id="Group_148790" data-name="Group 148790" transform="translate(0 0)">
        <g id="Group_148789" data-name="Group 148789">
          <g id="Group_148788" data-name="Group 148788">
            <g id="Group_148787" data-name="Group 148787">
              <g id="Group_148786" data-name="Group 148786">
                <path id="Path_42050" data-name="Path 42050" d="M48.416,22.109h0A18.838,18.838,0,0,1,67.254,40.947V63.621a6.88,6.88,0,0,1-1.847,4.69L54.953,79.533a4.984,4.984,0,0,1-3.646,1.586H44.991a4.982,4.982,0,0,1-3.718-1.666L31.326,68.3a6.877,6.877,0,0,1-1.747-4.58V43.542" transform="translate(-13.352 -14.201)" fill="none" stroke="#a2d0ff" stroke-linecap="round" stroke-linejoin="round" stroke-width="1"/>
                <line id="Line_144" data-name="Line 144" x2="6.125" transform="translate(16.227 34.518)" fill="none" stroke="#a2d0ff" stroke-linecap="round" stroke-linejoin="round" stroke-width="1"/>
                <circle id="Ellipse_729" data-name="Ellipse 729" cx="1.057" cy="1.057" r="1.057" transform="translate(26.111 33.46)" fill="#a2d0ff"/>
                <circle id="Ellipse_730" data-name="Ellipse 730" cx="4.824" cy="4.824" r="4.824" transform="translate(22.344 29.694)" fill="none" stroke="#a2d0ff" stroke-linecap="round" stroke-linejoin="round" stroke-width="1"/>
                <line id="Line_145" data-name="Line 145" x1="6.125" transform="translate(48.029 34.518)" fill="none" stroke="#a2d0ff" stroke-linecap="round" stroke-linejoin="round" stroke-width="1"/>
                <circle id="Ellipse_731" data-name="Ellipse 731" cx="1.057" cy="1.057" r="1.057" transform="translate(42.154 33.46)" fill="#a2d0ff"/>
                <circle id="Ellipse_732" data-name="Ellipse 732" cx="4.824" cy="4.824" r="4.824" transform="translate(38.387 29.694)" fill="none" stroke="#a2d0ff" stroke-linecap="round" stroke-linejoin="round" stroke-width="1"/>
                <path id="Path_42051" data-name="Path 42051" d="M46.756,51.02a6.289,6.289,0,0,1,6.395,0" transform="translate(-14.763 -16.502)" fill="none" stroke="#a2d0ff" stroke-linecap="round" stroke-linejoin="round" stroke-width="1"/>
                <path id="Path_42052" data-name="Path 42052" d="M45.847,58.565a4.751,4.751,0,0,1,3.72-1.384s2.6.127,3.509,1.508" transform="translate(-14.689 -17.079)" fill="none" stroke="#a2d0ff" stroke-linecap="round" stroke-linejoin="round" stroke-width="1"/>
                <path id="Path_42053" data-name="Path 42053" d="M40.87,65.683s9.293,5.3,16.621,0" transform="translate(-14.28 -15.944)" fill="none" stroke="#a2d0ff" stroke-linecap="round" stroke-linejoin="round" stroke-width="1"/>
                <path id="Path_42054" data-name="Path 42054" d="M47.325,71.845s1.628,1.194,2.822.965a7.254,7.254,0,0,0,2.822-.468" transform="translate(-14.81 -16.45)" fill="none" stroke="#a2d0ff" stroke-linecap="round" stroke-linejoin="round" stroke-width="1"/>
                <path id="Path_42055" data-name="Path 42055" d="M53.9,42.963s4.43-3.447,8.811,0" transform="translate(-15.35 -15.788)" fill="none" stroke="#a2d0ff" stroke-linecap="round" stroke-linejoin="round" stroke-width="1"/>
                <path id="Path_42056" data-name="Path 42056" d="M36.852,42.963s4.43-3.447,8.811,0" transform="translate(-13.95 -15.788)" fill="none" stroke="#a2d0ff" stroke-linecap="round" stroke-linejoin="round" stroke-width="1"/>
                <path id="Path_42057" data-name="Path 42057" d="M48.032,22.109S44.867,41.9,24.9,44.4" transform="translate(-12.968 -14.201)" fill="none" stroke="#a2d0ff" stroke-linecap="round" stroke-linejoin="round" stroke-width="1"/>
                <path id="Path_42058" data-name="Path 42058" d="M49.941,13.971S71.361,8.841,74.41,33.144A6.284,6.284,0,0,0,80.216,39.9s7.216,2.688,4.389,12.933c0,0-2.024,4.371-6.064,6.19,0,0-2.408.476-1.756,5.2,0,0-.416,11.827-14.6,8.628" transform="translate(-15.025 -13.495)" fill="none" stroke="#a2d0ff" stroke-linecap="round" stroke-linejoin="round" stroke-width="1"/>
                <path id="Path_42059" data-name="Path 42059" d="M46.7,13.939s-20.9-5.1-23.947,19.2a6.283,6.283,0,0,1-5.8,6.761s-7.216,2.688-4.39,12.933c0,0,2.025,4.371,6.064,6.19,0,0,2.408.476,1.756,5.2,0,0,.008,12,14.189,8.8" transform="translate(-11.9 -13.493)" fill="none" stroke="#a2d0ff" stroke-linecap="round" stroke-linejoin="round" stroke-width="1"/>
              </g>
              <path id="Path_42060" data-name="Path 42060" d="M-8191.549-17302.033l1.948,1.945" transform="translate(8234.184 17350.664)" fill="none" stroke="#c6e2ff" stroke-linecap="round" stroke-width="1"/>
              <path id="Path_42061" data-name="Path 42061" d="M0,0,1.949,1.949" transform="matrix(0.259, 0.966, -0.966, 0.259, 26.857, 48.411)" fill="none" stroke="#c6e2ff" stroke-linecap="round" stroke-width="1"/>
            </g>
          </g>
        </g>
      </g>
    </g>
  </g>
</svg>
