<svg xmlns="http://www.w3.org/2000/svg" xmlns:xlink="http://www.w3.org/1999/xlink" width="690" height="292" viewBox="0 0 690 292">
  <defs>
    <clipPath id="clip-years">
      <rect width="690" height="292"/>
    </clipPath>
  </defs>
  <g id="years" clipPath="url(#clip-years)">
    <path id="Path_76770" data-name="Path 76770" d="M4.86-197.37v51.3H74.52L12.42,0H73.98l61.56-153.36v-44.01ZM287.55-75.06l-28.62-77.22H192.24L255.69-7.56,217.35,72.9h65.61l97.47-225.18H314.28ZM456.57-62.37c0-20.79,11.34-27,32.94-27h17.01v-63.99c-19.71,0-38.07,12.15-49.95,29.16v-28.08H396.63V0h59.94ZM660.69-45.63c0-58.59-79.65-41.04-79.65-59.94,0-4.59,3.51-7.02,9.45-7.02,9.72,0,15.66,4.86,17.28,12.96h53.19c-4.32-29.97-25.65-54.54-69.12-54.54-42.93,0-64.8,22.68-64.8,50.22,0,55.89,78.57,37.53,78.57,57.51,0,3.78-3.78,7.02-9.99,7.02-9.18,0-16.47-4.05-17.82-13.23H520.29c2.7,31.05,31.59,54.54,75.6,54.54C636.39,1.89,660.69-18.63,660.69-45.63Z" transform="translate(13 209.805)" fill="rgba(255,255,255,0)" stroke="#333" stroke-width="1"/>
  </g>
</svg>