<svg id="Group_163720" data-name="Group 163720" xmlns="http://www.w3.org/2000/svg" width="34.921" height="22.117" viewBox="0 0 34.921 22.117">
  <g id="Group_163719" data-name="Group 163719">
    <path id="Path_74754" data-name="Path 74754" d="M14.094,27.451s3.3-.245,3.3-4.121-2.7-5.766-6.129-5.766H0V39.221H11.269s6.88.218,6.88-6.392C18.149,32.829,18.449,27.451,14.094,27.451ZM4.965,21.414h6.3s1.532,0,1.532,2.253-.9,2.58-1.923,2.58H4.965Zm6.013,13.959H4.965V29.585h6.3s2.283-.029,2.283,2.974C13.553,35.064,11.883,35.348,10.979,35.373Z" transform="translate(0 -17.564)" fill="#ff6200"/>
    <rect id="Rectangle_253258" data-name="Rectangle 253258" width="8.936" height="2.667" transform="translate(22.666 1.276)" fill="#ff6200"/>
    <path id="Path_74755" data-name="Path 74755" d="M60.441,32.682c-8.328,0-8.321,8.32-8.321,8.32s-.571,8.279,8.322,8.279c0,0,7.411.424,7.411-5.76H64.041s.127,2.33-3.472,2.33a3.523,3.523,0,0,1-3.811-3.769H67.979S69.207,32.682,60.441,32.682Zm3.388,6.51H56.715a3.873,3.873,0,0,1,3.811-3.338A3.223,3.223,0,0,1,63.829,39.192Z" transform="translate(-33.117 -27.171)" fill="#ff6200"/>
  </g>
</svg>
