<svg xmlns="http://www.w3.org/2000/svg" width="22.217" height="22.156" viewBox="0 0 22.217 22.156">
  <g id="Group_163718" data-name="Group 163718" transform="translate(0)">
    <path id="Path_74751" data-name="Path 74751" d="M792.576,271.633a4.968,4.968,0,0,1,3.967-2.332,7.273,7.273,0,0,1,2.561.259,4.164,4.164,0,0,1,2.882,2.822,7.718,7.718,0,0,1,.419,2.092c.049.9.088,1.794.093,2.691.013,2.343,0,4.687,0,7.03,0,.265,0,.265-.258.265h-4.16c-.238,0-.239,0-.239-.246,0-2.613,0-5.226-.007-7.838a4.422,4.422,0,0,0-.345-1.823,1.9,1.9,0,0,0-1.757-1.166,3.237,3.237,0,0,0-1.4.182,2.322,2.322,0,0,0-1.384,1.741,8.083,8.083,0,0,0-.18,2.027q0,3.429,0,6.859c0,.266,0,.266-.257.266h-4.16c-.231,0-.232,0-.232-.222q0-7.185,0-14.37c0-.17.046-.225.223-.224q2.011.011,4.022,0c.181,0,.218.055.215.223C792.57,270.456,792.576,271.045,792.576,271.633Z" transform="translate(-780.288 -262.309)" fill="#ff6200"/>
    <path id="Path_74752" data-name="Path 74752" d="M665.679,282.7q0-3.584,0-7.169c0-.231,0-.231.237-.231h4.195c.226,0,.227,0,.227.23q0,7.177,0,14.354c0,.227,0,.228-.226.228-1.41,0-2.819,0-4.229,0-.17,0-.207-.051-.207-.213Q665.683,286.306,665.679,282.7Z" transform="translate(-665.316 -267.965)" fill="#ff6200"/>
    <path id="Path_74753" data-name="Path 74753" d="M662.441,160.372a2.686,2.686,0,1,1,2.707-2.676A2.666,2.666,0,0,1,662.441,160.372Z" transform="translate(-659.771 -155)" fill="#ff6200"/>
  </g>
</svg>
